{
.appVersion = "1122";
copyright = "Copyright 2011 The Sigmar One Project Authors (https://github.com/googlefonts/sigmarone)";
customParameters = (
{
name = licenseURL;
value = "http://scripts.sil.org/OFL";
},
{
name = vendorID;
value = NeWT;
},
{
name = fsType;
value = (
);
},
{
name = "Use Typo Metrics";
value = 1;
},
{
name = license;
value = "This Font Software is licensed under the SIL Open Font License, Version 1.1. This license is available with a FAQ at: http://scripts.sil.org/OFL";
}
);
date = "2011-05-02 20:36:33 +0000";
designer = "Vernon Adams";
designerURL = "http://www.sansoxygen.com";
familyName = "Sigmar One";
featurePrefixes = (
{
automatic = 1;
code = "languagesystem DFLT dflt;\012languagesystem latn dflt;\012languagesystem latn CAT;\012languagesystem latn ROM;\012languagesystem latn MOL;\012languagesystem latn KAZ;\012languagesystem latn TAT;\012languagesystem latn TRK;\012languagesystem latn CRT;\012languagesystem latn AZE;\012";
name = Languagesystems;
}
);
features = (
{
automatic = 1;
code = "feature ccmp;\012feature locl;\012feature sups;\012feature frac;\012feature ordn;\012feature salt;\012feature ss01;\012";
name = aalt;
},
{
automatic = 1;

glyphs = (
{
glyphname = A;
lastChange = "2016-10-15 12:39:21 +0000";
layers = (
{
anchors = (
{
name = bottom;
position = "{459, 0}";
},
{
name = ogonek;
position = "{826, 10}";
},
{
name = top;
position = "{459, 676}";
}
);
background = {
paths = (
{
closed = 1;
nodes = (
"349 666 LINE",
"350 666 LINE",
"365 668 LINE",
"388 668 LINE",
"413 668 LINE",
"434 670 LINE",
"448 670 LINE",
"448 671 LINE",
"450 671 LINE",
"478 671 LINE",
"518 671 LINE",
"563 671 LINE",
"600 670 LINE",
"628 668 LINE",
"629 666 LINE",
"643 666 LINE",
"669 671 LINE",
"683 671 LINE",
"689 671 LINE",
"701 665 LINE",
"708 665 LINE",
"710 665 LINE",
"713 666 LINE",
"716 666 LINE",
"719 665 LINE",
"726 658 LINE",
"726 655 LINE",
"796 339 LINE",
"813 278 LINE",
"841 151 LINE",
"854 91 LINE",
"855 86 LINE",
"859 69 LINE",
"863 49 LINE",
"864 28 LINE",
"863 10 LINE",
"854 -1 LINE",
"846 -1 LINE",
"843 -1 LINE",
"823 -1 LINE",
"798 0 LINE",
"771 0 LINE",
"748 0 LINE",
"731 0 LINE",
"731 1 LINE",
"668 1 LINE",
"668 3 LINE",
"666 5 LINE",
"658 5 LINE",
"658 5 LINE",
"655 1 LINE",
"654 1 LINE",
"651 1 LINE",
"650 1 LINE",
"634 3 LINE",
"611 3 LINE",
"585 5 LINE",
"576 5 LINE",
"568 18 LINE",
"554 80 LINE",
"546 123 LINE",
"534 120 LINE",
"506 119 LINE",
"476 119 LINE",
"444 119 LINE",
"431 119 LINE",
"423 78 LINE",
"409 18 LINE",
"403 5 LINE",
"398 5 LINE",
"388 1 LINE",
"388 1 LINE",
"384 1 LINE",
"378 1 LINE",
"373 5 LINE",
"370 5 LINE",
"344 4 LINE",
"325 3 LINE",
"316 3 LINE",
"300 3 LINE",
"288 1 LINE",
"280 1 LINE",
"188 1 LINE",
"186 1 LINE",
"171 0 LINE",
"148 0 LINE",
"120 0 LINE",
"95 -1 LINE",
"76 -1 LINE",
"73 -1 LINE",
"64 -1 LINE",
"56 10 LINE",
"54 28 LINE",
"56 49 LINE",
"60 69 LINE",
"63 86 LINE",
"64 91 LINE",
"78 151 LINE",
"106 278 LINE",
"123 339 LINE",
"193 655 LINE",
"193 658 LINE",
"199 665 LINE",
"203 666 LINE",
"205 666 LINE",
"208 665 LINE",
"211 665 LINE",
"224 665 LINE",
"251 671 LINE",
"265 671 LINE",
"286 671 LINE",
"326 666 LINE"
);
},
{
closed = 1;
nodes = (
"486 496 LINE",
"481 470 LINE",
"474 428 LINE",
"465 375 LINE",
"456 321 LINE",
"446 268 LINE",
"443 248 LINE",
"494 248 LINE",
"495 248 LINE",
"500 250 LINE",
"501 250 LINE",
"503 250 LINE",
"513 250 LINE",
"528 246 LINE",
"535 244 LINE",
"531 265 LINE",
"523 318 LINE",
"513 374 LINE",
"503 428 LINE",
"496 469 LINE",
"493 496 LINE",
"491 498 LINE",
"491 500 LINE",
"490 503 LINE",
"490 508 LINE",
"489 511 LINE",
"488 508 LINE",
"488 503 LINE",
"486 500 LINE",
"486 498 LINE"
);
}
);
};
layerId = UUID0;
paths = (
{
closed = 1;
nodes = (
"74 -1 OFFCURVE",
"79 -1 OFFCURVE",
"85 -1 CURVE SMOOTH",
"93 -1 OFFCURVE",
"100 -1 OFFCURVE",
"108 0 CURVE",
"116 0 OFFCURVE",
"125 0 OFFCURVE",
"134 0 CURVE",
"153 0 OFFCURVE",
"168 0 OFFCURVE",
"179 1 CURVE",
"184 1 OFFCURVE",
"188 1 OFFCURVE",
"188 1 CURVE SMOOTH",
"280 1 LINE",
"280 1 OFFCURVE",
"281 1 OFFCURVE",
"284 1 CURVE",
"286 1 OFFCURVE",
"290 1 OFFCURVE",
"294 3 CURVE SMOOTH",
"298 3 OFFCURVE",
"303 3 OFFCURVE",
"309 3 CURVE",
"314 3 OFFCURVE",
"319 3 OFFCURVE",
"325 3 CURVE",
"338 4 OFFCURVE",
"353 4 OFFCURVE",
"370 5 CURVE SMOOTH",
"373 5 OFFCURVE",
"374 4 OFFCURVE",
"375 3 CURVE SMOOTH",
"378 1 OFFCURVE",
"380 1 OFFCURVE",
"384 1 CURVE SMOOTH",
"388 1 LINE SMOOTH",
"388 1 OFFCURVE",
"390 1 OFFCURVE",
"393 3 CURVE SMOOTH",
"396 4 OFFCURVE",
"399 5 OFFCURVE",
"403 5 CURVE",
"411 21 OFFCURVE",
"419 64 OFFCURVE",
"431 119 CURVE",
"440 119 OFFCURVE",
"450 119 OFFCURVE",
"460 119 CURVE",
"470 119 OFFCURVE",
"480 119 OFFCURVE",
"491 119 CURVE SMOOTH",
"511 119 OFFCURVE",
"530 120 OFFCURVE",
"546 123 CURVE",
"558 65 OFFCURVE",
"566 21 OFFCURVE",
"576 5 CURVE",
"589 5 OFFCURVE",
"608 4 OFFCURVE",
"623 3 CURVE SMOOTH",
"630 3 OFFCURVE",
"638 3 OFFCURVE",
"643 1 CURVE SMOOTH",
"648 1 OFFCURVE",
"650 1 OFFCURVE",
"651 1 CURVE SMOOTH",
"654 1 LINE SMOOTH",
"655 1 OFFCURVE",
"656 1 OFFCURVE",
"656 3 CURVE SMOOTH",
"658 4 OFFCURVE",
"658 5 OFFCURVE",
"658 5 CURVE SMOOTH",
"663 5 OFFCURVE",
"666 4 OFFCURVE",
"668 3 CURVE",
"668 3 OFFCURVE",
"668 1 OFFCURVE",
"668 1 CURVE",
"731 1 LINE",
"731 0 OFFCURVE",
"734 0 OFFCURVE",
"739 0 CURVE SMOOTH",
"745 0 OFFCURVE",
"751 0 OFFCURVE",
"759 0 CURVE",
"768 0 OFFCURVE",
"775 0 OFFCURVE",
"784 0 CURVE",
"793 0 OFFCURVE",
"803 0 OFFCURVE",
"810 0 CURVE",
"818 -1 OFFCURVE",
"826 -1 OFFCURVE",
"833 -1 CURVE SMOOTH",
"839 -1 OFFCURVE",
"843 -1 OFFCURVE",
"846 -1 CURVE SMOOTH",
"851 -1 OFFCURVE",
"855 1 OFFCURVE",
"858 5 CURVE SMOOTH",
"863 13 OFFCURVE",
"865 24 OFFCURVE",
"863 39 CURVE SMOOTH",
"863 53 OFFCURVE",
"859 66 OFFCURVE",
"858 78 CURVE",
"855 83 OFFCURVE",
"854 88 OFFCURVE",
"854 91 CURVE",
"838 171 OFFCURVE",
"818 258 OFFCURVE",
"796 339 CURVE",
"726 655 LINE",
"726 658 OFFCURVE",
"720 664 OFFCURVE",
"716 666 CURVE",
"714 666 OFFCURVE",
"713 666 OFFCURVE",
"713 666 CURVE",
"710 665 OFFCURVE",
"709 665 OFFCURVE",
"708 665 CURVE SMOOTH",
"703 665 OFFCURVE",
"699 666 OFFCURVE",
"695 668 CURVE SMOOTH",
"691 670 OFFCURVE",
"688 671 OFFCURVE",
"683 671 CURVE SMOOTH",
"674 671 OFFCURVE",
"665 670 OFFCURVE",
"656 668 CURVE SMOOTH",
"648 668 OFFCURVE",
"638 666 OFFCURVE",
"629 666 CURVE",
"628 668 OFFCURVE",
"623 668 OFFCURVE",
"614 669 CURVE SMOOTH",
"596 671 OFFCURVE",
"569 671 OFFCURVE",
"540 671 CURVE SMOOTH",
"524 671 OFFCURVE",
"511 671 OFFCURVE",
"498 671 CURVE SMOOTH",
"484 671 OFFCURVE",
"473 671 OFFCURVE",
"464 671 CURVE",
"455 671 OFFCURVE",
"449 671 OFFCURVE",
"448 671 CURVE",
"448 670 OFFCURVE",
"445 670 OFFCURVE",
"440 670 CURVE",
"436 670 OFFCURVE",
"430 670 OFFCURVE",
"423 669 CURVE SMOOTH",
"416 669 OFFCURVE",
"408 668 OFFCURVE",
"399 668 CURVE SMOOTH",
"391 668 OFFCURVE",
"383 668 OFFCURVE",
"376 668 CURVE SMOOTH",
"369 668 OFFCURVE",
"363 668 OFFCURVE",
"358 668 CURVE",
"353 666 OFFCURVE",
"350 666 OFFCURVE",
"349 666 CURVE SMOOTH",
"333 666 OFFCURVE",
"319 668 OFFCURVE",
"306 668 CURVE SMOOTH",
"293 670 OFFCURVE",
"279 671 OFFCURVE",
"265 671 CURVE SMOOTH",
"256 671 OFFCURVE",
"248 670 OFFCURVE",
"238 668 CURVE SMOOTH",
"228 666 OFFCURVE",
"219 665 OFFCURVE",
"211 665 CURVE SMOOTH",
"209 665 OFFCURVE",
"208 665 OFFCURVE",
"208 666 CURVE",
"205 666 OFFCURVE",
"204 666 OFFCURVE",
"203 666 CURVE",
"198 664 OFFCURVE",
"193 658 OFFCURVE",
"193 655 CURVE",
"123 339 LINE",
"101 258 OFFCURVE",
"81 171 OFFCURVE",
"64 91 CURVE",
"63 85 OFFCURVE",
"60 73 OFFCURVE",
"58 59 CURVE SMOOTH",
"55 45 OFFCURVE",
"53 31 OFFCURVE",
"55 19 CURVE",
"58 8 OFFCURVE",
"63 -1 OFFCURVE",
"73 -1 CURVE SMOOTH"
);
},
{
closed = 1;
nodes = (
"530 245 OFFCURVE",
"525 248 OFFCURVE",
"521 248 CURVE SMOOTH",
"515 250 OFFCURVE",
"509 250 OFFCURVE",
"503 250 CURVE SMOOTH",
"501 250 LINE SMOOTH",
"500 250 OFFCURVE",
"496 249 OFFCURVE",
"494 248 CURVE",
"443 248 LINE",
"445 261 OFFCURVE",
"448 276 OFFCURVE",
"451 294 CURVE SMOOTH",
"454 313 OFFCURVE",
"458 330 OFFCURVE",
"460 348 CURVE SMOOTH",
"466 385 OFFCURVE",
"473 421 OFFCURVE",
"478 449 CURVE SMOOTH",
"480 463 OFFCURVE",
"483 474 OFFCURVE",
"484 483 CURVE SMOOTH",
"485 491 OFFCURVE",
"486 496 OFFCURVE",
"486 496 CURVE SMOOTH",
"486 498 OFFCURVE",
"486 499 OFFCURVE",
"486 500 CURVE SMOOTH",
"488 501 OFFCURVE",
"488 503 OFFCURVE",
"488 505 CURVE",
"488 506 OFFCURVE",
"488 509 OFFCURVE",
"489 511 CURVE",
"489 509 OFFCURVE",
"490 506 OFFCURVE",
"490 505 CURVE",
"490 501 OFFCURVE",
"491 499 OFFCURVE",
"493 496 CURVE",
"493 496 OFFCURVE",
"493 491 OFFCURVE",
"494 483 CURVE SMOOTH",
"496 474 OFFCURVE",
"498 463 OFFCURVE",
"500 448 CURVE SMOOTH",
"503 434 OFFCURVE",
"505 418 OFFCURVE",
"508 400 CURVE SMOOTH",
"511 383 OFFCURVE",
"514 364 OFFCURVE",
"518 346 CURVE SMOOTH",
"521 328 OFFCURVE",
"524 309 OFFCURVE",
"528 293 CURVE SMOOTH",
"530 273 OFFCURVE",
"533 258 OFFCURVE",
"535 244 CURVE"
);
}
);
width = 918;
}
);
leftKerningGroup = A;
rightKerningGroup = A;
unicode = 0041;
},
{
color = 9;
glyphname = Aringacute;
lastChange = "2016-10-15 12:39:21 +0000";
layers = (
{
background = {
components = (
{
name = ringcomb;
transform = "{1, 0, 0, 1, 59, 98}";
}
);
};
components = (
{
name = A;
}
);
guideLines = (
{
angle = 90;
position = "{918, 538}";
}
);
layerId = UUID0;
paths = (
{
closed = 1;
nodes = (
"701 903 OFFCURVE",
"708 903 OFFCURVE",
"713 904 CURVE SMOOTH",
"718 905 OFFCURVE",
"724 904 OFFCURVE",
"730 904 CURVE SMOOTH",
"748 904 LINE",
"750 905 LINE",
"754 903 LINE",
"758 904 OFFCURVE",
"761 904 OFFCURVE",
"766 904 CURVE SMOOTH",
"770 904 OFFCURVE",
"774 904 OFFCURVE",
"778 904 CURVE SMOOTH",
"781 904 OFFCURVE",
"784 908 OFFCURVE",
"788 913 CURVE SMOOTH",
"793 925 OFFCURVE",
"801 944 OFFCURVE",
"808 963 CURVE SMOOTH",
"810 973 OFFCURVE",
"814 980 OFFCURVE",
"816 986 CURVE",
"823 1000 OFFCURVE",
"828 1013 OFFCURVE",
"833 1025 CURVE SMOOTH",
"838 1038 OFFCURVE",
"840 1051 OFFCURVE",
"849 1063 CURVE SMOOTH",
"853 1068 OFFCURVE",
"854 1073 OFFCURVE",
"858 1078 CURVE SMOOTH",
"860 1084 OFFCURVE",
"863 1088 OFFCURVE",
"865 1094 CURVE SMOOTH",
"868 1100 OFFCURVE",
"871 1105 OFFCURVE",
"873 1111 CURVE SMOOTH",
"878 1123 OFFCURVE",
"883 1133 OFFCURVE",
"886 1138 CURVE SMOOTH",
"889 1144 OFFCURVE",
"889 1148 OFFCURVE",
"883 1150 CURVE SMOOTH",
"879 1153 OFFCURVE",
"873 1153 OFFCURVE",
"865 1155 CURVE",
"864 1155 OFFCURVE",
"863 1155 OFFCURVE",
"863 1155 CURVE",
"863 1154 OFFCURVE",
"861 1154 OFFCURVE",
"860 1154 CURVE",
"856 1156 LINE",
"829 1158 LINE",
"828 1158 OFFCURVE",
"828 1158 OFFCURVE",
"825 1158 CURVE",
"824 1158 OFFCURVE",
"823 1159 OFFCURVE",
"823 1159 CURVE",
"820 1159 OFFCURVE",
"818 1159 OFFCURVE",
"815 1159 CURVE",
"813 1159 OFFCURVE",
"810 1159 OFFCURVE",
"809 1158 CURVE",
"805 1160 LINE",
"794 1160 OFFCURVE",
"783 1159 OFFCURVE",
"771 1159 CURVE SMOOTH",
"759 1159 OFFCURVE",
"746 1158 OFFCURVE",
"731 1158 CURVE",
"704 1154 LINE",
"700 1149 LINE",
"693 1116 OFFCURVE",
"689 1086 OFFCURVE",
"685 1053 CURVE",
"685 1043 OFFCURVE",
"685 1031 OFFCURVE",
"685 1020 CURVE SMOOTH",
"685 1009 OFFCURVE",
"683 998 OFFCURVE",
"683 988 CURVE SMOOTH",
"683 965 OFFCURVE",
"680 944 OFFCURVE",
"683 923 CURVE SMOOTH",
"684 913 OFFCURVE",
"685 903 OFFCURVE",
"696 903 CURVE SMOOTH"
);
},
{
closed = 1;
nodes = (
"480 714 OFFCURVE",
"513 713 OFFCURVE",
"545 721 CURVE SMOOTH",
"576 729 OFFCURVE",
"603 743 OFFCURVE",
"623 773 CURVE",
"628 774 LINE",
"653 809 OFFCURVE",
"664 854 OFFCURVE",
"664 895 CURVE SMOOTH",
"664 934 OFFCURVE",
"658 966 OFFCURVE",
"643 993 CURVE SMOOTH",
"629 1020 OFFCURVE",
"605 1041 OFFCURVE",
"574 1063 CURVE",
"558 1071 OFFCURVE",
"543 1076 OFFCURVE",
"523 1079 CURVE SMOOTH",
"503 1081 OFFCURVE",
"480 1083 OFFCURVE",
"448 1083 CURVE SMOOTH",
"448 1083 OFFCURVE",
"448 1083 OFFCURVE",
"448 1083 CURVE SMOOTH",
"445 1083 OFFCURVE",
"444 1083 OFFCURVE",
"444 1081 CURVE",
"438 1083 OFFCURVE",
"430 1083 OFFCURVE",
"423 1083 CURVE SMOOTH",
"374 1083 OFFCURVE",
"336 1058 OFFCURVE",
"309 1020 CURVE SMOOTH",
"283 983 OFFCURVE",
"268 936 OFFCURVE",
"268 890 CURVE SMOOTH",
"268 866 OFFCURVE",
"271 836 OFFCURVE",
"283 808 CURVE SMOOTH",
"295 780 OFFCURVE",
"310 754 OFFCURVE",
"336 740 CURVE SMOOTH",
"374 720 OFFCURVE",
"413 711 OFFCURVE",
"450 713 CURVE SMOOTH"
);
},
{
closed = 1;
nodes = (
"443 828 OFFCURVE",
"433 830 OFFCURVE",
"424 835 CURVE SMOOTH",
"408 845 OFFCURVE",
"398 858 OFFCURVE",
"398 868 CURVE SMOOTH",
"398 873 OFFCURVE",
"395 875 OFFCURVE",
"395 875 CURVE",
"395 878 OFFCURVE",
"395 879 OFFCURVE",
"395 881 CURVE SMOOTH",
"395 883 OFFCURVE",
"395 885 OFFCURVE",
"395 886 CURVE SMOOTH",
"395 924 OFFCURVE",
"405 948 OFFCURVE",
"418 960 CURVE SMOOTH",
"430 974 OFFCURVE",
"445 978 OFFCURVE",
"456 978 CURVE SMOOTH",
"473 978 OFFCURVE",
"484 976 OFFCURVE",
"495 973 CURVE SMOOTH",
"515 968 OFFCURVE",
"528 956 OFFCURVE",
"535 946 CURVE SMOOTH",
"541 936 OFFCURVE",
"545 926 OFFCURVE",
"545 919 CURVE",
"545 918 OFFCURVE",
"545 915 OFFCURVE",
"545 915 CURVE",
"545 911 OFFCURVE",
"544 900 OFFCURVE",
"540 888 CURVE SMOOTH",
"536 873 OFFCURVE",
"528 860 OFFCURVE",
"514 848 CURVE SMOOTH",
"503 836 OFFCURVE",
"483 828 OFFCURVE",
"456 828 CURVE SMOOTH"
);
}
);
width = 918;
}
);
leftKerningGroup = A;
rightKerningGroup = A;
unicode = 01FA;
},
{
glyphname = AE;
lastChange = "2016-10-15 12:39:21 +0000";
layers = (
{
anchors = (
{
name = bottom;
position = "{605, 0}";
},
{
name = top;
position = "{743, 676}";
}
);
background = {
paths = (
{
closed = 1;
nodes = (
"500 666 LINE",
"501 666 LINE",
"513 668 LINE",
"531 668 LINE",
"553 668 LINE",
"569 670 LINE",
"580 670 LINE",
"580 671 LINE",
"583 671 LINE",
"616 671 LINE",
"660 671 LINE",
"708 671 LINE",
"728 670 LINE",
"778 671 LINE",
"870 674 LINE",
"965 675 LINE",
"1065 673 LINE",
"1123 669 LINE",
"1130 669 LINE",
"1138 645 LINE",
"1143 608 LINE",
"1148 563 LINE",
"1151 543 LINE",
"1151 531 LINE",
"1150 520 LINE",
"1148 515 LINE",
"1143 516 LINE",
"1138 516 LINE",
"1091 516 LINE",
"994 515 LINE",
"945 515 LINE",
"940 515 LINE",
"933 491 LINE",
"928 458 LINE",
"926 426 LINE",
"926 418 LINE",
"926 404 LINE",
"933 398 LINE",
"941 398 LINE",
"988 398 LINE",
"1075 398 LINE",
"1119 393 LINE",
"1126 393 LINE",
"1138 391 LINE",
"1145 388 LINE",
"1150 379 LINE",
"1153 370 LINE",
"1158 281 LINE",
"1158 278 LINE",
"1158 269 LINE",
"1138 259 LINE",
"1104 254 LINE",
"1063 253 LINE",
"1041 253 LINE",
"998 253 LINE",
"950 255 LINE",
"928 250 LINE",
"923 233 LINE",
"923 213 LINE",
"923 195 LINE",
"918 161 LINE",
"919 143 LINE",
"968 143 LINE",
"1064 143 LINE",
"1113 143 LINE",
"1113 143 LINE",
"1118 128 LINE",
"1121 105 LINE",
"1125 78 LINE",
"1128 51 LINE",
"1130 30 LINE",
"1130 26 LINE",
"1130 18 LINE",
"1121 5 LINE",
"1110 5 LINE",
"1078 5 LINE",
"1020 1 LINE",
"988 1 LINE",
"950 1 LINE",
"873 0 LINE",
"834 0 LINE",
"831 -1 LINE",
"828 -1 LINE",
"823 -1 LINE",
"803 -1 LINE",
"778 0 LINE",
"750 0 LINE",
"738 0 LINE",
"671 0 LINE",
"669 0 LINE",
"663 0 LINE",
"658 1 LINE",
"650 1 LINE",
"650 3 LINE",
"639 3 LINE",
"638 1 LINE",
"636 1 LINE",
"633 1 LINE",
"633 1 LINE",
"616 3 LINE",
"594 3 LINE",
"568 5 LINE",
"558 5 LINE",
"554 18 LINE",
"554 80 LINE",
"555 123 LINE",
"533 118 LINE",
"475 119 LINE",
"449 119 LINE",
"433 78 LINE",
"404 18 LINE",
"394 5 LINE",
"390 5 LINE",
"379 1 LINE",
"378 1 LINE",
"375 1 LINE",
"370 1 LINE",
"365 5 LINE",
"363 5 LINE",
"336 4 LINE",
"318 3 LINE",
"308 3 LINE",
"293 3 LINE",
"279 1 LINE",
"271 1 LINE",
"179 1 LINE",
"178 1 LINE",
"163 0 LINE",
"139 0 LINE",
"113 0 LINE",
"86 -1 LINE",
"68 -1 LINE",
"63 -1 LINE",
"56 -1 LINE",
"50 10 LINE",
"53 28 LINE",
"59 49 LINE",
"66 69 LINE",
"74 86 LINE",
"76 91 LINE",
"103 151 LINE",
"161 278 LINE",
"190 339 LINE",
"341 655 LINE",
"341 658 LINE",
"350 665 LINE",
"354 666 LINE",
"356 666 LINE",
"359 665 LINE",
"363 665 LINE",
"375 665 LINE",
"403 671 LINE",
"418 671 LINE",
"438 671 LINE",
"478 666 LINE"
);
},
{
closed = 1;
nodes = (
"579 496 LINE",
"579 496 LINE",
"570 470 LINE",
"555 428 LINE",
"536 375 LINE",
"518 321 LINE",
"498 268 LINE",
"490 248 LINE",
"531 248 LINE",
"541 248 LINE",
"563 248 LINE",
"571 244 LINE",
"573 265 LINE",
"575 318 LINE",
"579 374 LINE",
"581 428 LINE",
"583 469 LINE",
"585 496 LINE",
"585 496 LINE",
"585 500 LINE",
"585 503 LINE",
"585 508 LINE",
"585 511 LINE",
"584 508 LINE",
"583 503 LINE",
"581 500 LINE",
"580 498 LINE"
);
}
);
};
layerId = UUID0;
paths = (
{
closed = 1;
nodes = (
"66 -1 OFFCURVE",
"70 -1 OFFCURVE",
"78 -1 CURVE SMOOTH",
"83 -1 OFFCURVE",
"91 -1 OFFCURVE",
"99 0 CURVE",
"108 0 OFFCURVE",
"116 0 OFFCURVE",
"125 0 CURVE",
"144 0 OFFCURVE",
"160 0 OFFCURVE",
"170 1 CURVE",
"175 1 OFFCURVE",
"178 1 OFFCURVE",
"179 1 CURVE SMOOTH",
"271 1 LINE",
"271 1 OFFCURVE",
"273 1 OFFCURVE",
"275 1 CURVE",
"278 1 OFFCURVE",
"281 1 OFFCURVE",
"286 3 CURVE SMOOTH",
"290 3 OFFCURVE",
"295 3 OFFCURVE",
"300 3 CURVE",
"306 3 OFFCURVE",
"311 3 OFFCURVE",
"318 3 CURVE",
"330 4 OFFCURVE",
"345 4 OFFCURVE",
"363 5 CURVE SMOOTH",
"364 5 OFFCURVE",
"366 4 OFFCURVE",
"368 3 CURVE",
"369 1 OFFCURVE",
"373 1 OFFCURVE",
"375 1 CURVE SMOOTH",
"378 1 LINE SMOOTH",
"379 1 OFFCURVE",
"381 1 OFFCURVE",
"385 3 CURVE",
"388 4 OFFCURVE",
"393 5 OFFCURVE",
"394 5 CURVE",
"408 21 OFFCURVE",
"426 64 OFFCURVE",
"449 119 CURVE",
"466 119 OFFCURVE",
"484 119 OFFCURVE",
"504 119 CURVE SMOOTH",
"523 118 OFFCURVE",
"540 120 OFFCURVE",
"555 123 CURVE",
"554 94 OFFCURVE",
"554 69 OFFCURVE",
"554 48 CURVE SMOOTH",
"554 28 OFFCURVE",
"555 13 OFFCURVE",
"558 5 CURVE",
"571 5 OFFCURVE",
"590 4 OFFCURVE",
"605 3 CURVE SMOOTH",
"613 3 OFFCURVE",
"619 3 OFFCURVE",
"625 1 CURVE SMOOTH",
"630 1 OFFCURVE",
"633 1 OFFCURVE",
"633 1 CURVE SMOOTH",
"636 1 LINE SMOOTH",
"638 1 OFFCURVE",
"638 3 OFFCURVE",
"639 3 CURVE",
"650 3 LINE",
"650 1 LINE",
"658 1 LINE",
"664 0 OFFCURVE",
"669 0 OFFCURVE",
"671 0 CURVE SMOOTH",
"738 0 LINE SMOOTH",
"754 0 OFFCURVE",
"773 0 OFFCURVE",
"791 0 CURVE",
"799 -1 OFFCURVE",
"808 -1 OFFCURVE",
"813 -1 CURVE SMOOTH",
"820 -1 OFFCURVE",
"825 -1 OFFCURVE",
"828 -1 CURVE SMOOTH",
"830 -1 OFFCURVE",
"833 0 OFFCURVE",
"834 0 CURVE",
"860 0 OFFCURVE",
"886 0 OFFCURVE",
"913 1 CURVE SMOOTH",
"938 1 OFFCURVE",
"963 1 OFFCURVE",
"988 1 CURVE SMOOTH",
"1009 1 OFFCURVE",
"1030 1 OFFCURVE",
"1049 3 CURVE SMOOTH",
"1068 4 OFFCURVE",
"1089 5 OFFCURVE",
"1110 5 CURVE SMOOTH",
"1124 5 OFFCURVE",
"1130 14 OFFCURVE",
"1130 26 CURVE SMOOTH",
"1130 29 OFFCURVE",
"1129 34 OFFCURVE",
"1129 41 CURVE",
"1128 55 OFFCURVE",
"1125 73 OFFCURVE",
"1123 91 CURVE SMOOTH",
"1121 110 OFFCURVE",
"1118 126 OFFCURVE",
"1115 136 CURVE",
"1114 141 OFFCURVE",
"1113 143 OFFCURVE",
"1113 143 CURVE SMOOTH",
"1080 143 OFFCURVE",
"1048 143 OFFCURVE",
"1016 143 CURVE SMOOTH",
"984 143 OFFCURVE",
"953 143 OFFCURVE",
"919 143 CURVE",
"919 154 OFFCURVE",
"919 168 OFFCURVE",
"920 178 CURVE SMOOTH",
"923 189 OFFCURVE",
"923 201 OFFCURVE",
"923 213 CURVE SMOOTH",
"923 238 OFFCURVE",
"923 249 OFFCURVE",
"938 253 CURVE",
"946 254 OFFCURVE",
"958 254 OFFCURVE",
"974 254 CURVE SMOOTH",
"990 253 OFFCURVE",
"1013 253 OFFCURVE",
"1041 253 CURVE SMOOTH",
"1070 253 OFFCURVE",
"1099 253 OFFCURVE",
"1121 258 CURVE SMOOTH",
"1143 260 OFFCURVE",
"1158 266 OFFCURVE",
"1158 278 CURVE SMOOTH",
"1158 281 LINE",
"1153 370 LINE",
"1151 376 OFFCURVE",
"1149 380 OFFCURVE",
"1148 383 CURVE",
"1144 389 OFFCURVE",
"1139 391 OFFCURVE",
"1133 393 CURVE",
"1128 393 OFFCURVE",
"1124 393 OFFCURVE",
"1119 393 CURVE SMOOTH",
"1089 396 OFFCURVE",
"1060 398 OFFCURVE",
"1031 398 CURVE SMOOTH",
"1001 398 OFFCURVE",
"973 398 OFFCURVE",
"941 398 CURVE SMOOTH",
"930 398 OFFCURVE",
"926 400 OFFCURVE",
"926 418 CURVE SMOOTH",
"926 423 OFFCURVE",
"926 431 OFFCURVE",
"928 443 CURVE SMOOTH",
"929 463 OFFCURVE",
"933 488 OFFCURVE",
"938 503 CURVE SMOOTH",
"939 511 OFFCURVE",
"943 515 OFFCURVE",
"945 515 CURVE SMOOTH",
"978 515 OFFCURVE",
"1010 515 OFFCURVE",
"1043 516 CURVE SMOOTH",
"1075 516 OFFCURVE",
"1108 516 OFFCURVE",
"1138 516 CURVE SMOOTH",
"1141 516 OFFCURVE",
"1143 516 OFFCURVE",
"1145 516 CURVE",
"1148 515 OFFCURVE",
"1150 518 OFFCURVE",
"1151 525 CURVE",
"1151 529 OFFCURVE",
"1151 535 OFFCURVE",
"1151 543 CURVE",
"1149 558 OFFCURVE",
"1146 570 OFFCURVE",
"1145 585 CURVE SMOOTH",
"1143 615 OFFCURVE",
"1139 641 OFFCURVE",
"1134 658 CURVE",
"1131 665 OFFCURVE",
"1128 669 OFFCURVE",
"1123 669 CURVE",
"1084 673 OFFCURVE",
"1049 674 OFFCURVE",
"1015 674 CURVE SMOOTH",
"948 676 OFFCURVE",
"886 674 OFFCURVE",
"824 673 CURVE SMOOTH",
"793 671 OFFCURVE",
"760 671 OFFCURVE",
"728 670 CURVE SMOOTH",
"703 671 OFFCURVE",
"668 671 OFFCURVE",
"638 671 CURVE SMOOTH",
"623 671 OFFCURVE",
"610 671 OFFCURVE",
"600 671 CURVE",
"588 671 OFFCURVE",
"583 671 OFFCURVE",
"580 671 CURVE",
"580 670 OFFCURVE",
"578 670 OFFCURVE",
"575 670 CURVE",
"571 670 OFFCURVE",
"566 670 OFFCURVE",
"561 669 CURVE SMOOTH",
"555 669 OFFCURVE",
"548 668 OFFCURVE",
"543 668 CURVE SMOOTH",
"535 668 OFFCURVE",
"528 668 OFFCURVE",
"523 668 CURVE SMOOTH",
"516 668 OFFCURVE",
"511 668 OFFCURVE",
"508 668 CURVE",
"503 666 OFFCURVE",
"501 666 OFFCURVE",
"500 666 CURVE SMOOTH",
"485 666 OFFCURVE",
"471 668 OFFCURVE",
"458 668 CURVE SMOOTH",
"445 670 OFFCURVE",
"433 671 OFFCURVE",
"418 671 CURVE SMOOTH",
"408 671 OFFCURVE",
"398 670 OFFCURVE",
"389 668 CURVE SMOOTH",
"379 666 OFFCURVE",
"370 665 OFFCURVE",
"363 665 CURVE SMOOTH",
"360 665 OFFCURVE",
"358 665 OFFCURVE",
"358 666 CURVE SMOOTH",
"356 666 OFFCURVE",
"355 666 OFFCURVE",
"354 666 CURVE",
"348 664 OFFCURVE",
"341 658 OFFCURVE",
"341 655 CURVE",
"190 339 LINE SMOOTH",
"151 258 OFFCURVE",
"111 171 OFFCURVE",
"76 91 CURVE",
"75 88 OFFCURVE",
"73 83 OFFCURVE",
"70 78 CURVE SMOOTH",
"68 73 OFFCURVE",
"65 66 OFFCURVE",
"63 59 CURVE SMOOTH",
"58 45 OFFCURVE",
"53 31 OFFCURVE",
"51 19 CURVE SMOOTH",
"50 8 OFFCURVE",
"53 -1 OFFCURVE",
"63 -1 CURVE SMOOTH"
);
},
{
closed = 1;
nodes = (
"561 248 OFFCURVE",
"543 248 OFFCURVE",
"531 248 CURVE SMOOTH",
"490 248 LINE",
"495 261 OFFCURVE",
"500 276 OFFCURVE",
"508 294 CURVE SMOOTH",
"513 313 OFFCURVE",
"520 330 OFFCURVE",
"526 348 CURVE SMOOTH",
"533 366 OFFCURVE",
"540 384 OFFCURVE",
"546 403 CURVE SMOOTH",
"553 419 OFFCURVE",
"558 435 OFFCURVE",
"563 449 CURVE SMOOTH",
"568 463 OFFCURVE",
"571 474 OFFCURVE",
"575 483 CURVE SMOOTH",
"578 491 OFFCURVE",
"579 496 OFFCURVE",
"579 496 CURVE",
"580 498 OFFCURVE",
"580 499 OFFCURVE",
"581 500 CURVE",
"583 503 OFFCURVE",
"583 506 OFFCURVE",
"585 511 CURVE",
"585 509 OFFCURVE",
"585 506 OFFCURVE",
"585 505 CURVE",
"585 503 OFFCURVE",
"585 501 OFFCURVE",
"585 500 CURVE SMOOTH",
"585 496 LINE SMOOTH",
"585 496 OFFCURVE",
"585 491 OFFCURVE",
"584 483 CURVE SMOOTH",
"584 474 OFFCURVE",
"583 463 OFFCURVE",
"583 448 CURVE SMOOTH",
"583 434 OFFCURVE",
"581 418 OFFCURVE",
"580 400 CURVE SMOOTH",
"579 383 OFFCURVE",
"578 364 OFFCURVE",
"578 346 CURVE SMOOTH",
"575 309 OFFCURVE",
"573 271 OFFCURVE",
"571 244 CURVE"
);
}
);
width = 1210;
}
);
leftKerningGroup = A;
rightKerningGroup = E;
unicode = 00C6;
},
{
glyphname = B;
lastChange = "2016-10-15 12:39:21 +0000";
layers = (
{
anchors = (
{
name = bottom;
position = "{410, 0}";
},
{
name = top;
position = "{410, 676}";
}
);
background = {
paths = (
{
closed = 1;
nodes = (
"58 525 LINE",
"58 543 LINE",
"58 575 LINE",
"58 590 LINE",
"58 604 LINE",
"59 629 LINE",
"61 641 LINE",
"63 648 LINE",
"65 664 LINE",
"73 678 LINE",
"86 686 LINE",
"101 686 LINE",
"119 686 LINE",
"168 689 LINE",
"218 693 LINE",
"268 695 LINE",
"288 695 LINE",
"334 695 LINE",
"433 685 LINE",
"480 679 LINE",
"506 676 LINE",
"568 668 LINE",
"631 653 LINE",
"688 630 LINE",
"733 594 LINE",
"760 543 LINE",
"760 506 LINE",
"760 463 LINE",
"726 401 LINE",
"691 379 LINE",
"683 375 LINE",
"665 368 LINE",
"649 361 LINE",
"636 353 LINE",
"633 348 LINE",
"634 348 LINE",
"635 345 LINE",
"636 344 LINE",
"674 328 LINE",
"729 293 LINE",
"764 256 LINE",
"780 219 LINE",
"780 200 LINE",
"780 171 LINE",
"744 114 LINE",
"683 64 LINE",
"598 23 LINE",
"550 10 LINE",
"513 -1 LINE",
"441 -14 LINE",
"375 -21 LINE",
"318 -24 LINE",
"294 -24 LINE",
"228 -24 LINE",
"139 -18 LINE",
"85 3 LINE",
"63 41 LINE",
"63 73 LINE",
"63 83 LINE",
"64 113 LINE",
"65 144 LINE",
"66 173 LINE",
"66 179 LINE",
"66 265 LINE",
"58 438 LINE"
);
},
{
closed = 1;
nodes = (
"399 255 LINE",
"393 255 LINE",
"388 248 LINE",
"388 241 LINE",
"388 161 LINE",
"388 156 LINE",
"394 154 LINE",
"396 154 LINE",
"398 154 LINE",
"399 154 LINE",
"399 155 LINE",
"479 193 LINE",
"558 229 LINE",
"560 231 LINE",
"565 234 LINE",
"568 236 LINE",
"544 243 LINE",
"505 250 LINE",
"465 254 LINE",
"424 255 LINE"
);
},
{
closed = 1;
nodes = (
"405 453 LINE",
"405 448 LINE",
"406 443 LINE",
"413 443 LINE",
"415 443 LINE",
"434 449 LINE",
"459 460 LINE",
"488 474 LINE",
"511 485 LINE",
"528 493 LINE",
"528 493 LINE",
"531 493 LINE",
"540 496 LINE",
"540 500 LINE",
"540 510 LINE",
"518 521 LINE",
"486 526 LINE",
"456 528 LINE",
"448 528 LINE",
"431 528 LINE",
"414 516 LINE",
"406 495 LINE",
"405 468 LINE"
);
}
);
};
layerId = UUID0;
paths = (
{
closed = 1;
nodes = (
"325 -24 OFFCURVE",
"364 -23 OFFCURVE",
"408 -18 CURVE SMOOTH",
"453 -13 OFFCURVE",
"500 -4 OFFCURVE",
"550 10 CURVE SMOOTH",
"614 28 OFFCURVE",
"671 56 OFFCURVE",
"713 89 CURVE SMOOTH",
"754 123 OFFCURVE",
"780 161 OFFCURVE",
"780 200 CURVE SMOOTH",
"780 225 OFFCURVE",
"770 250 OFFCURVE",
"748 275 CURVE SMOOTH",
"723 299 OFFCURVE",
"688 323 OFFCURVE",
"636 344 CURVE",
"635 345 OFFCURVE",
"635 346 OFFCURVE",
"634 346 CURVE SMOOTH",
"634 348 OFFCURVE",
"633 348 OFFCURVE",
"633 348 CURVE",
"635 353 OFFCURVE",
"638 354 OFFCURVE",
"643 358 CURVE",
"651 363 OFFCURVE",
"663 368 OFFCURVE",
"674 371 CURVE",
"680 374 OFFCURVE",
"686 376 OFFCURVE",
"691 379 CURVE",
"738 408 OFFCURVE",
"760 449 OFFCURVE",
"760 506 CURVE SMOOTH",
"760 554 OFFCURVE",
"740 588 OFFCURVE",
"711 613 CURVE SMOOTH",
"681 636 OFFCURVE",
"641 650 OFFCURVE",
"600 660 CURVE SMOOTH",
"558 670 OFFCURVE",
"515 675 OFFCURVE",
"480 679 CURVE SMOOTH",
"418 688 OFFCURVE",
"350 695 OFFCURVE",
"288 695 CURVE SMOOTH",
"274 695 OFFCURVE",
"259 694 OFFCURVE",
"243 693 CURVE SMOOTH",
"228 693 OFFCURVE",
"210 691 OFFCURVE",
"193 690 CURVE SMOOTH",
"176 689 OFFCURVE",
"159 688 OFFCURVE",
"143 688 CURVE SMOOTH",
"128 688 OFFCURVE",
"113 686 OFFCURVE",
"101 686 CURVE SMOOTH",
"91 686 OFFCURVE",
"84 685 OFFCURVE",
"79 683 CURVE SMOOTH",
"69 676 OFFCURVE",
"65 668 OFFCURVE",
"64 656 CURVE",
"63 651 OFFCURVE",
"63 646 OFFCURVE",
"61 641 CURVE SMOOTH",
"58 625 OFFCURVE",
"58 609 OFFCURVE",
"58 590 CURVE SMOOTH",
"58 580 OFFCURVE",
"58 569 OFFCURVE",
"58 559 CURVE SMOOTH",
"58 548 OFFCURVE",
"58 536 OFFCURVE",
"58 525 CURVE SMOOTH",
"58 468 OFFCURVE",
"59 410 OFFCURVE",
"63 353 CURVE SMOOTH",
"64 294 OFFCURVE",
"66 236 OFFCURVE",
"66 179 CURVE SMOOTH",
"66 174 OFFCURVE",
"66 168 OFFCURVE",
"65 158 CURVE SMOOTH",
"65 148 OFFCURVE",
"65 138 OFFCURVE",
"64 128 CURVE SMOOTH",
"64 118 OFFCURVE",
"64 108 OFFCURVE",
"63 98 CURVE SMOOTH",
"63 86 OFFCURVE",
"63 78 OFFCURVE",
"63 73 CURVE SMOOTH",
"63 30 OFFCURVE",
"78 6 OFFCURVE",
"113 -8 CURVE SMOOTH",
"148 -21 OFFCURVE",
"206 -24 OFFCURVE",
"294 -24 CURVE SMOOTH"
);
},
{
closed = 1;
nodes = (
"393 154 OFFCURVE",
"388 154 OFFCURVE",
"388 161 CURVE SMOOTH",
"388 241 LINE SMOOTH",
"388 249 OFFCURVE",
"391 255 OFFCURVE",
"399 255 CURVE SMOOTH",
"433 255 OFFCURVE",
"459 254 OFFCURVE",
"485 253 CURVE SMOOTH",
"513 250 OFFCURVE",
"538 245 OFFCURVE",
"568 236 CURVE",
"566 235 OFFCURVE",
"564 234 OFFCURVE",
"563 233 CURVE SMOOTH",
"561 233 OFFCURVE",
"559 230 OFFCURVE",
"558 229 CURVE",
"505 205 OFFCURVE",
"453 181 OFFCURVE",
"399 155 CURVE",
"399 154 OFFCURVE",
"398 154 OFFCURVE",
"398 154 CURVE SMOOTH",
"398 154 OFFCURVE",
"396 154 OFFCURVE",
"396 154 CURVE SMOOTH"
);
},
{
closed = 1;
nodes = (
"403 443 OFFCURVE",
"405 446 OFFCURVE",
"405 453 CURVE SMOOTH",
"405 473 OFFCURVE",
"404 491 OFFCURVE",
"410 505 CURVE SMOOTH",
"415 519 OFFCURVE",
"426 528 OFFCURVE",
"448 528 CURVE SMOOTH",
"458 528 OFFCURVE",
"481 528 OFFCURVE",
"503 523 CURVE SMOOTH",
"523 520 OFFCURVE",
"540 513 OFFCURVE",
"540 500 CURVE SMOOTH",
"540 498 OFFCURVE",
"539 495 OFFCURVE",
"536 495 CURVE",
"533 494 OFFCURVE",
"530 493 OFFCURVE",
"528 493 CURVE",
"528 493 OFFCURVE",
"524 491 OFFCURVE",
"519 489 CURVE SMOOTH",
"508 484 OFFCURVE",
"493 476 OFFCURVE",
"473 468 CURVE SMOOTH",
"455 458 OFFCURVE",
"438 451 OFFCURVE",
"424 446 CURVE SMOOTH",
"418 443 OFFCURVE",
"414 443 OFFCURVE",
"413 443 CURVE SMOOTH"
);
}
);
width = 820;
}
);
leftKerningGroup = H;
rightKerningGroup = B;
unicode = 0042;
},
{
glyphname = C;
lastChange = "2016-10-15 12:39:21 +0000";
layers = (
{
anchors = (
{
name = bottom;
position = "{318, 0}";
},
{
name = top;
position = "{358, 676}";
}
);
background = {
paths = (
{
closed = 1;
nodes = (
"380 328 LINE",
"380 315 LINE",
"381 293 LINE",
"383 283 LINE",
"385 250 LINE",
"400 204 LINE",
"423 176 LINE",
"450 164 LINE",
"466 164 LINE",
"481 164 LINE",
"514 173 LINE",
"549 190 LINE",
"585 211 LINE",
"603 224 LINE",
"613 60 LINE",
"593 41 LINE",
"541 10 LINE",
"484 -13 LINE",
"428 -24 LINE",
"403 -24 LINE",
"375 -24 LINE",
"320 -21 LINE",
"266 -14 LINE",
"214 0 LINE",
"190 11 LINE",
"180 16 LINE",
"161 26 LINE",
"153 33 LINE",
"138 46 LINE",
"110 78 LINE",
"99 96 LINE",
"80 118 LINE",
"68 146 LINE",
"55 179 LINE",
"41 261 LINE",
"41 313 LINE",
"41 373 LINE",
"65 471 LINE",
"88 513 LINE",
"128 596 LINE",
"266 688 LINE",
"353 694 LINE",
"359 695 LINE",
"371 695 LINE",
"378 695 LINE",
"419 695 LINE",
"463 686 LINE",
"504 678 LINE",
"588 645 LINE",
"631 620 LINE",
"613 490 LINE",
"584 498 LINE",
"523 513 LINE",
"494 513 LINE",
"469 513 LINE",
"425 495 LINE",
"410 471 LINE",
"396 450 LINE",
"380 380 LINE"
);
}
);
};
layerId = UUID0;
paths = (
{
closed = 1;
nodes = (
"436 -24 OFFCURVE",
"475 -16 OFFCURVE",
"513 -1 CURVE SMOOTH",
"550 14 OFFCURVE",
"586 35 OFFCURVE",
"613 60 CURVE",
"603 224 LINE",
"580 208 OFFCURVE",
"555 193 OFFCURVE",
"533 183 CURVE SMOOTH",
"508 170 OFFCURVE",
"486 164 OFFCURVE",
"466 164 CURVE SMOOTH",
"444 164 OFFCURVE",
"426 173 OFFCURVE",
"411 190 CURVE SMOOTH",
"396 209 OFFCURVE",
"386 239 OFFCURVE",
"383 283 CURVE SMOOTH",
"380 296 OFFCURVE",
"380 311 OFFCURVE",
"380 328 CURVE SMOOTH",
"380 398 OFFCURVE",
"391 443 OFFCURVE",
"410 471 CURVE SMOOTH",
"431 503 OFFCURVE",
"461 513 OFFCURVE",
"494 513 CURVE SMOOTH",
"514 513 OFFCURVE",
"534 510 OFFCURVE",
"554 505 CURVE SMOOTH",
"574 500 OFFCURVE",
"594 495 OFFCURVE",
"613 490 CURVE",
"631 620 LINE",
"603 638 OFFCURVE",
"574 650 OFFCURVE",
"546 663 CURVE SMOOTH",
"490 683 OFFCURVE",
"433 695 OFFCURVE",
"378 695 CURVE SMOOTH",
"374 695 OFFCURVE",
"369 695 OFFCURVE",
"365 695 CURVE SMOOTH",
"361 695 OFFCURVE",
"358 694 OFFCURVE",
"353 694 CURVE",
"238 686 OFFCURVE",
"143 624 OFFCURVE",
"88 513 CURVE",
"58 458 OFFCURVE",
"41 393 OFFCURVE",
"41 313 CURVE SMOOTH",
"41 244 OFFCURVE",
"51 190 OFFCURVE",
"68 146 CURVE",
"76 128 OFFCURVE",
"86 110 OFFCURVE",
"99 96 CURVE",
"114 71 OFFCURVE",
"133 50 OFFCURVE",
"153 33 CURVE",
"164 24 OFFCURVE",
"178 18 OFFCURVE",
"190 11 CURVE SMOOTH",
"223 -4 OFFCURVE",
"258 -13 OFFCURVE",
"293 -18 CURVE SMOOTH",
"330 -23 OFFCURVE",
"366 -24 OFFCURVE",
"403 -24 CURVE SMOOTH"
);
}
);
width = 676;
}
);
leftKerningGroup = O;
rightKerningGroup = C;
unicode = 0043;
},
{
glyphname = D;
lastChange = "2016-10-15 12:39:21 +0000";
layers = (
{
anchors = (
{
name = bottom;
position = "{429, 0}";
},
{
name = center;
position = "{429, 338}";
},
{
name = top;
position = "{429, 676}";
}
);
background = {
paths = (
{
closed = 1;
nodes = (
"375 -1 LINE",
"343 -1 LINE",
"278 0 LINE",
"208 0 LINE",
"133 1 LINE",
"90 1 LINE",
"81 1 LINE",
"70 13 LINE",
"65 31 LINE",
"63 53 LINE",
"63 63 LINE",
"63 85 LINE",
"63 168 LINE",
"60 268 LINE",
"58 375 LINE",
"58 425 LINE",
"58 645 LINE",
"58 654 LINE",
"75 671 LINE",
"84 671 LINE",
"151 671 LINE",
"248 669 LINE",
"283 669 LINE",
"338 669 LINE",
"461 673 LINE",
"535 673 LINE",
"563 673 LINE",
"625 663 LINE",
"686 636 LINE",
"743 593 LINE",
"786 526 LINE",
"813 434 LINE",
"813 373 LINE",
"813 270 LINE",
"768 128 LINE",
"664 39 LINE",
"498 -1 LINE"
);
},
{
closed = 1;
nodes = (
"383 133 LINE",
"393 131 LINE",
"401 133 LINE",
"408 133 LINE",
"423 135 LINE",
"428 139 LINE",
"434 146 LINE",
"445 176 LINE",
"456 218 LINE",
"464 268 LINE",
"470 320 LINE",
"473 373 LINE",
"473 394 LINE",
"473 398 LINE",
"473 428 LINE",
"470 468 LINE",
"465 513 LINE",
"455 553 LINE",
"438 578 LINE",
"428 578 LINE",
"419 578 LINE",
"408 574 LINE",
"403 573 LINE",
"398 570 LINE",
"394 568 LINE",
"394 544 LINE",
"393 483 LINE",
"391 413 LINE",
"389 339 LINE",
"388 304 LINE"
);
}
);
};
layerId = UUID0;
paths = (
{
closed = 1;
nodes = (
"538 -1 OFFCURVE",
"646 24 OFFCURVE",
"715 83 CURVE SMOOTH",
"784 143 OFFCURVE",
"813 235 OFFCURVE",
"813 373 CURVE SMOOTH",
"813 454 OFFCURVE",
"793 515 OFFCURVE",
"764 560 CURVE SMOOTH",
"735 604 OFFCURVE",
"696 633 OFFCURVE",
"655 649 CURVE SMOOTH",
"614 666 OFFCURVE",
"573 673 OFFCURVE",
"535 673 CURVE SMOOTH",
"486 673 OFFCURVE",
"441 671 OFFCURVE",
"400 670 CURVE SMOOTH",
"358 669 OFFCURVE",
"320 669 OFFCURVE",
"283 669 CURVE SMOOTH",
"260 669 OFFCURVE",
"233 669 OFFCURVE",
"200 670 CURVE SMOOTH",
"168 670 OFFCURVE",
"129 671 OFFCURVE",
"84 671 CURVE SMOOTH",
"73 671 OFFCURVE",
"58 658 OFFCURVE",
"58 645 CURVE SMOOTH",
"58 425 LINE SMOOTH",
"58 358 OFFCURVE",
"59 283 OFFCURVE",
"61 218 CURVE SMOOTH",
"63 150 OFFCURVE",
"63 93 OFFCURVE",
"63 63 CURVE SMOOTH",
"63 49 OFFCURVE",
"64 34 OFFCURVE",
"68 23 CURVE",
"71 10 OFFCURVE",
"78 1 OFFCURVE",
"90 1 CURVE SMOOTH",
"148 1 OFFCURVE",
"198 0 OFFCURVE",
"243 0 CURVE SMOOTH",
"289 0 OFFCURVE",
"331 -1 OFFCURVE",
"375 -1 CURVE SMOOTH"
);
},
{
closed = 1;
nodes = (
"388 304 LINE SMOOTH",
"388 328 OFFCURVE",
"389 351 OFFCURVE",
"390 376 CURVE SMOOTH",
"391 400 OFFCURVE",
"393 424 OFFCURVE",
"393 448 CURVE SMOOTH",
"393 494 OFFCURVE",
"394 536 OFFCURVE",
"394 568 CURVE",
"396 569 OFFCURVE",
"399 570 OFFCURVE",
"403 573 CURVE SMOOTH",
"408 574 OFFCURVE",
"416 578 OFFCURVE",
"428 578 CURVE SMOOTH",
"435 578 OFFCURVE",
"441 573 OFFCURVE",
"448 564 CURVE SMOOTH",
"458 548 OFFCURVE",
"464 521 OFFCURVE",
"468 491 CURVE SMOOTH",
"471 460 OFFCURVE",
"473 433 OFFCURVE",
"473 413 CURVE SMOOTH",
"473 403 OFFCURVE",
"473 396 OFFCURVE",
"473 394 CURVE SMOOTH",
"473 364 OFFCURVE",
"471 329 OFFCURVE",
"468 294 CURVE SMOOTH",
"463 259 OFFCURVE",
"458 225 OFFCURVE",
"451 198 CURVE SMOOTH",
"444 169 OFFCURVE",
"436 148 OFFCURVE",
"428 139 CURVE SMOOTH",
"425 138 OFFCURVE",
"421 135 OFFCURVE",
"416 134 CURVE SMOOTH",
"406 133 OFFCURVE",
"396 131 OFFCURVE",
"383 133 CURVE"
);
}
);
width = 858;
}
);
leftKerningGroup = H;
rightKerningGroup = O;
unicode = 0044;
},
{
glyphname = Eth;
lastChange = "2016-10-15 12:39:21 +0000";
layers = (
{
background = {
paths = (
{
closed = 1;
nodes = (
"411 -1 LINE",
"381 -1 LINE",
"323 0 LINE",
"259 0 LINE",
"190 1 LINE",
"151 1 LINE",
"143 1 LINE",
"131 13 LINE",
"126 31 LINE",
"125 53 LINE",
"125 63 LINE",
"125 78 LINE",
"124 123 LINE",
"123 179 LINE",
"121 243 LINE",
"121 278 LINE",
"105 278 LINE",
"78 278 LINE",
"58 283 LINE",
"44 289 LINE",
"44 294 LINE",
"44 313 LINE",
"44 339 LINE",
"43 364 LINE",
"43 391 LINE",
"43 408 LINE",
"43 410 LINE",
"48 416 LINE",
"58 420 LINE",
"68 423 LINE",
"71 423 LINE",
"83 423 LINE",
"108 423 LINE",
"119 423 LINE",
"119 425 LINE",
"119 645 LINE",
"119 654 LINE",
"136 671 LINE",
"146 671 LINE",
"205 671 LINE",
"288 669 LINE",
"320 669 LINE",
"375 669 LINE",
"498 673 LINE",
"573 673 LINE",
"599 673 LINE",
"661 663 LINE",
"723 635 LINE",
"779 590 LINE",
"823 521 LINE",
"848 426 LINE",
"848 363 LINE",
"848 263 LINE",
"803 124 LINE",
"700 38 LINE",
"533 -1 LINE"
);
},
{
closed = 1;
nodes = (
"419 133 LINE",
"431 131 LINE",
"443 133 LINE",
"451 133 LINE",
"469 135 LINE",
"474 139 LINE",
"484 149 LINE",
"503 183 LINE",
"518 241 LINE",
"524 329 LINE",
"524 394 LINE",
"524 398 LINE",
"524 428 LINE",
"521 468 LINE",
"513 513 LINE",
"500 553 LINE",
"479 578 LINE",
"464 578 LINE",
"453 578 LINE",
"438 574 LINE",
"431 573 LINE",
"425 570 LINE",
"420 568 LINE",
"420 540 LINE",
"420 464 LINE",
"420 423 LINE",
"433 423 LINE",
"454 420 LINE",
"473 418 LINE",
"484 413 LINE",
"484 408 LINE",
"484 389 LINE",
"483 365 LINE",
"483 344 LINE",
"481 324 LINE",
"481 311 LINE",
"481 304 LINE",
"479 293 LINE",
"466 285 LINE",
"441 280 LINE",
"419 280 LINE",
"419 249 LINE",
"419 195 LINE",
"419 175 LINE"
);
}
);
};
layerId = UUID0;
paths = (
{
closed = 1;
nodes = (
"574 -1 OFFCURVE",
"683 23 OFFCURVE",
"753 81 CURVE SMOOTH",
"820 139 OFFCURVE",
"848 229 OFFCURVE",
"848 363 CURVE SMOOTH",
"848 448 OFFCURVE",
"830 510 OFFCURVE",
"801 556 CURVE SMOOTH",
"773 603 OFFCURVE",
"733 631 OFFCURVE",
"693 648 CURVE SMOOTH",
"651 666 OFFCURVE",
"608 673 OFFCURVE",
"573 673 CURVE SMOOTH",
"523 673 OFFCURVE",
"478 671 OFFCURVE",
"438 670 CURVE SMOOTH",
"395 669 OFFCURVE",
"356 669 OFFCURVE",
"320 669 CURVE SMOOTH",
"299 669 OFFCURVE",
"274 669 OFFCURVE",
"248 670 CURVE SMOOTH",
"219 670 OFFCURVE",
"185 671 OFFCURVE",
"146 671 CURVE SMOOTH",
"133 671 OFFCURVE",
"119 658 OFFCURVE",
"119 645 CURVE SMOOTH",
"119 425 LINE",
"119 423 LINE",
"111 423 OFFCURVE",
"103 423 OFFCURVE",
"95 423 CURVE SMOOTH",
"88 423 OFFCURVE",
"80 423 OFFCURVE",
"71 423 CURVE SMOOTH",
"65 423 OFFCURVE",
"58 421 OFFCURVE",
"53 418 CURVE",
"48 415 OFFCURVE",
"43 411 OFFCURVE",
"43 408 CURVE SMOOTH",
"43 385 OFFCURVE",
"43 369 OFFCURVE",
"44 353 CURVE SMOOTH",
"44 334 OFFCURVE",
"44 318 OFFCURVE",
"44 294 CURVE SMOOTH",
"44 288 OFFCURVE",
"53 283 OFFCURVE",
"68 280 CURVE SMOOTH",
"81 278 OFFCURVE",
"100 278 OFFCURVE",
"121 278 CURVE",
"121 254 OFFCURVE",
"123 233 OFFCURVE",
"123 211 CURVE SMOOTH",
"123 189 OFFCURVE",
"123 169 OFFCURVE",
"123 151 CURVE SMOOTH",
"124 133 OFFCURVE",
"124 115 OFFCURVE",
"124 100 CURVE SMOOTH",
"125 85 OFFCURVE",
"125 73 OFFCURVE",
"125 63 CURVE SMOOTH",
"125 49 OFFCURVE",
"125 34 OFFCURVE",
"129 23 CURVE",
"133 10 OFFCURVE",
"139 1 OFFCURVE",
"151 1 CURVE SMOOTH",
"204 1 OFFCURVE",
"249 0 OFFCURVE",
"291 0 CURVE SMOOTH",
"333 0 OFFCURVE",
"371 -1 OFFCURVE",
"411 -1 CURVE SMOOTH"
);
},
{
closed = 1;
nodes = (
"419 175 LINE SMOOTH",
"419 188 OFFCURVE",
"419 204 OFFCURVE",
"419 223 CURVE SMOOTH",
"419 240 OFFCURVE",
"419 259 OFFCURVE",
"419 280 CURVE",
"434 280 OFFCURVE",
"446 281 OFFCURVE",
"454 283 CURVE SMOOTH",
"463 284 OFFCURVE",
"468 286 OFFCURVE",
"473 289 CURVE",
"480 294 OFFCURVE",
"481 301 OFFCURVE",
"481 311 CURVE SMOOTH",
"481 320 OFFCURVE",
"481 328 OFFCURVE",
"481 334 CURVE SMOOTH",
"483 341 OFFCURVE",
"483 348 OFFCURVE",
"483 354 CURVE",
"483 368 OFFCURVE",
"484 383 OFFCURVE",
"484 408 CURVE SMOOTH",
"484 413 OFFCURVE",
"476 418 OFFCURVE",
"463 419 CURVE SMOOTH",
"451 421 OFFCURVE",
"436 423 OFFCURVE",
"420 423 CURVE",
"420 450 OFFCURVE",
"420 478 OFFCURVE",
"420 503 CURVE SMOOTH",
"420 528 OFFCURVE",
"420 549 OFFCURVE",
"420 568 CURVE",
"423 569 OFFCURVE",
"428 570 OFFCURVE",
"431 573 CURVE SMOOTH",
"438 574 OFFCURVE",
"449 578 OFFCURVE",
"464 578 CURVE SMOOTH",
"474 578 OFFCURVE",
"483 573 OFFCURVE",
"489 564 CURVE SMOOTH",
"503 548 OFFCURVE",
"513 521 OFFCURVE",
"518 491 CURVE SMOOTH",
"523 460 OFFCURVE",
"524 433 OFFCURVE",
"524 413 CURVE SMOOTH",
"524 403 OFFCURVE",
"524 396 OFFCURVE",
"524 394 CURVE SMOOTH",
"524 308 OFFCURVE",
"519 250 OFFCURVE",
"510 211 CURVE SMOOTH",
"500 173 OFFCURVE",
"488 153 OFFCURVE",
"474 139 CURVE",
"471 138 OFFCURVE",
"466 135 OFFCURVE",
"460 134 CURVE SMOOTH",
"448 133 OFFCURVE",
"435 131 OFFCURVE",
"419 133 CURVE"
);
}
);
width = 895;
}
);
leftKerningGroup = H;
rightKerningGroup = O;
unicode = 00D0;
},
{
glyphname = E;
lastChange = "2016-10-15 12:39:21 +0000";
layers = (
{
anchors = (
{
name = bottom;
position = "{348, 0}";
},
{
name = ogonek;
position = "{603, 10}";
},
{
name = top;
position = "{348, 676}";
},
{
name = topleft;
position = "{20, 676}";
}
);
background = {
paths = (
{
closed = 1;
nodes = (
"58 393 LINE",
"58 458 LINE",
"59 583 LINE",
"65 650 LINE",
"65 658 LINE",
"79 665 LINE",
"100 669 LINE",
"126 670 LINE",
"139 670 LINE",
"201 670 LINE",
"313 673 LINE",
"423 675 LINE",
"539 674 LINE",
"606 669 LINE",
"615 669 LINE",
"626 648 LINE",
"633 615 LINE",
"639 576 LINE",
"644 558 LINE",
"645 545 LINE",
"643 534 LINE",
"638 530 LINE",
"628 531 LINE",
"621 531 LINE",
"596 531 LINE",
"544 528 LINE",
"493 523 LINE",
"439 518 LINE",
"413 515 LINE",
"409 515 LINE",
"401 491 LINE",
"396 458 LINE",
"394 426 LINE",
"394 418 LINE",
"394 404 LINE",
"401 398 LINE",
"410 398 LINE",
"455 398 LINE",
"543 398 LINE",
"588 393 LINE",
"595 393 LINE",
"605 391 LINE",
"613 388 LINE",
"619 379 LINE",
"621 370 LINE",
"625 281 LINE",
"625 278 LINE",
"625 269 LINE",
"605 259 LINE",
"573 254 LINE",
"531 253 LINE",
"509 253 LINE",
"466 253 LINE",
"418 255 LINE",
"396 250 LINE",
"391 233 LINE",
"391 213 LINE",
"391 194 LINE",
"388 158 LINE",
"388 138 LINE",
"436 138 LINE",
"533 143 LINE",
"580 143 LINE",
"583 143 LINE",
"591 128 LINE",
"600 105 LINE",
"608 78 LINE",
"614 51 LINE",
"618 30 LINE",
"618 26 LINE",
"618 18 LINE",
"608 5 LINE",
"598 5 LINE",
"563 5 LINE",
"494 1 LINE",
"456 1 LINE",
"378 1 LINE",
"219 0 LINE",
"140 0 LINE",
"136 0 LINE",
"113 3 LINE",
"89 6 LINE",
"70 11 LINE",
"71 14 LINE",
"71 25 LINE",
"69 63 LINE",
"68 105 LINE",
"64 153 LINE",
"63 198 LINE",
"60 234 LINE",
"60 246 LINE",
"60 263 LINE",
"59 289 LINE",
"58 321 LINE",
"58 363 LINE"
);
}
);
};
layerId = UUID0;
paths = (
{
closed = 1;
nodes = (
"193 0 OFFCURVE",
"245 0 OFFCURVE",
"298 0 CURVE SMOOTH",
"351 1 OFFCURVE",
"404 1 OFFCURVE",
"456 1 CURVE SMOOTH",
"481 1 OFFCURVE",
"505 1 OFFCURVE",
"528 3 CURVE SMOOTH",
"550 4 OFFCURVE",
"574 5 OFFCURVE",
"598 5 CURVE SMOOTH",
"613 5 OFFCURVE",
"618 14 OFFCURVE",
"618 26 CURVE SMOOTH",
"618 29 OFFCURVE",
"618 34 OFFCURVE",
"616 41 CURVE SMOOTH",
"613 55 OFFCURVE",
"609 73 OFFCURVE",
"604 91 CURVE SMOOTH",
"598 110 OFFCURVE",
"593 126 OFFCURVE",
"588 136 CURVE",
"585 141 OFFCURVE",
"583 143 OFFCURVE",
"580 143 CURVE SMOOTH",
"548 143 OFFCURVE",
"518 143 OFFCURVE",
"484 140 CURVE SMOOTH",
"453 138 OFFCURVE",
"420 138 OFFCURVE",
"388 138 CURVE",
"388 151 OFFCURVE",
"388 164 OFFCURVE",
"389 176 CURVE SMOOTH",
"390 188 OFFCURVE",
"391 201 OFFCURVE",
"391 213 CURVE SMOOTH",
"391 238 OFFCURVE",
"393 249 OFFCURVE",
"408 253 CURVE",
"414 254 OFFCURVE",
"426 254 OFFCURVE",
"443 254 CURVE SMOOTH",
"458 253 OFFCURVE",
"480 253 OFFCURVE",
"509 253 CURVE SMOOTH",
"538 253 OFFCURVE",
"568 253 OFFCURVE",
"589 258 CURVE SMOOTH",
"611 260 OFFCURVE",
"625 266 OFFCURVE",
"625 278 CURVE SMOOTH",
"625 281 LINE",
"621 370 LINE",
"620 376 OFFCURVE",
"618 380 OFFCURVE",
"616 383 CURVE",
"613 389 OFFCURVE",
"608 391 OFFCURVE",
"600 393 CURVE",
"598 393 OFFCURVE",
"593 393 OFFCURVE",
"588 393 CURVE SMOOTH",
"558 396 OFFCURVE",
"528 398 OFFCURVE",
"499 398 CURVE SMOOTH",
"470 398 OFFCURVE",
"440 398 OFFCURVE",
"410 398 CURVE SMOOTH",
"398 398 OFFCURVE",
"394 400 OFFCURVE",
"394 418 CURVE SMOOTH",
"394 423 OFFCURVE",
"395 431 OFFCURVE",
"396 443 CURVE SMOOTH",
"398 463 OFFCURVE",
"400 488 OFFCURVE",
"405 503 CURVE SMOOTH",
"408 511 OFFCURVE",
"410 515 OFFCURVE",
"413 515 CURVE",
"430 516 OFFCURVE",
"448 518 OFFCURVE",
"465 520 CURVE SMOOTH",
"483 521 OFFCURVE",
"500 523 OFFCURVE",
"518 524 CURVE SMOOTH",
"553 528 OFFCURVE",
"588 531 OFFCURVE",
"621 531 CURVE SMOOTH",
"625 531 OFFCURVE",
"629 531 OFFCURVE",
"633 530 CURVE",
"638 530 OFFCURVE",
"643 533 OFFCURVE",
"644 540 CURVE",
"644 543 OFFCURVE",
"645 550 OFFCURVE",
"644 558 CURVE",
"641 570 OFFCURVE",
"638 583 OFFCURVE",
"636 595 CURVE",
"634 608 OFFCURVE",
"633 620 OFFCURVE",
"629 631 CURVE SMOOTH",
"625 653 OFFCURVE",
"618 669 OFFCURVE",
"606 669 CURVE",
"561 673 OFFCURVE",
"519 674 OFFCURVE",
"480 675 CURVE SMOOTH",
"403 676 OFFCURVE",
"331 674 OFFCURVE",
"258 673 CURVE SMOOTH",
"220 670 OFFCURVE",
"180 670 OFFCURVE",
"139 670 CURVE SMOOTH",
"123 670 OFFCURVE",
"104 670 OFFCURVE",
"89 668 CURVE SMOOTH",
"75 664 OFFCURVE",
"65 659 OFFCURVE",
"65 650 CURVE",
"58 560 OFFCURVE",
"58 478 OFFCURVE",
"58 393 CURVE SMOOTH",
"58 353 OFFCURVE",
"58 326 OFFCURVE",
"59 305 CURVE SMOOTH",
"60 284 OFFCURVE",
"60 268 OFFCURVE",
"60 246 CURVE SMOOTH",
"60 238 OFFCURVE",
"61 228 OFFCURVE",
"61 215 CURVE SMOOTH",
"63 190 OFFCURVE",
"63 160 OFFCURVE",
"65 129 CURVE SMOOTH",
"66 113 OFFCURVE",
"68 98 OFFCURVE",
"68 83 CURVE SMOOTH",
"70 54 OFFCURVE",
"71 28 OFFCURVE",
"71 14 CURVE",
"70 13 OFFCURVE",
"73 10 OFFCURVE",
"80 9 CURVE SMOOTH",
"86 8 OFFCURVE",
"93 6 OFFCURVE",
"101 4 CURVE SMOOTH",
"118 3 OFFCURVE",
"134 0 OFFCURVE",
"140 0 CURVE SMOOTH"
);
}
);
width = 693;
}
);
leftKerningGroup = H;
rightKerningGroup = E;
unicode = 0045;
},
{
glyphname = F;
lastChange = "2016-10-15 12:39:21 +0000";
layers = (
{
anchors = (
{
name = bottom;
position = "{331, 0}";
},
{
name = top;
position = "{331, 676}";
}
);
background = {
paths = (
{
closed = 1;
nodes = (
"58 655 LINE",
"58 660 LINE",
"63 665 LINE",
"68 666 LINE",
"73 665 LINE",
"74 665 LINE",
"109 665 LINE",
"223 670 LINE",
"293 670 LINE",
"293 670 LINE",
"313 669 LINE",
"333 669 LINE",
"350 669 LINE",
"351 669 LINE",
"374 669 LINE",
"421 668 LINE",
"473 668 LINE",
"529 666 LINE",
"563 666 LINE",
"569 666 LINE",
"580 663 LINE",
"588 663 LINE",
"598 663 LINE",
"601 666 LINE",
"614 666 LINE",
"625 643 LINE",
"628 604 LINE",
"625 554 LINE",
"625 528 LINE",
"625 521 LINE",
"614 516 LINE",
"598 514 LINE",
"581 514 LINE",
"575 514 LINE",
"530 514 LINE",
"519 514 LINE",
"506 513 LINE",
"495 511 LINE",
"481 510 LINE",
"469 510 LINE",
"461 510 LINE",
"448 510 LINE",
"445 511 LINE",
"443 510 LINE",
"438 508 LINE",
"438 508 LINE",
"438 504 LINE",
"434 490 LINE",
"433 465 LINE",
"430 428 LINE",
"430 400 LINE",
"430 400 LINE",
"428 394 LINE",
"433 389 LINE",
"453 389 LINE",
"553 389 LINE",
"563 389 LINE",
"576 383 LINE",
"583 366 LINE",
"583 335 LINE",
"583 313 LINE",
"583 283 LINE",
"583 248 LINE",
"581 228 LINE",
"574 223 LINE",
"568 223 LINE",
"563 223 LINE",
"543 220 LINE",
"519 219 LINE",
"495 218 LINE",
"488 218 LINE",
"479 218 LINE",
"473 218 LINE",
"465 215 LINE",
"458 214 LINE",
"449 213 LINE",
"441 213 LINE",
"428 213 LINE",
"418 211 LINE",
"408 206 LINE",
"403 199 LINE",
"403 163 LINE",
"403 100 LINE",
"400 50 LINE",
"395 14 LINE",
"391 5 LINE",
"380 5 LINE",
"353 3 LINE",
"326 3 LINE",
"308 1 LINE",
"303 0 LINE",
"298 3 LINE",
"294 3 LINE",
"291 5 LINE",
"289 5 LINE",
"288 5 LINE",
"283 3 LINE",
"281 1 LINE",
"198 1 LINE",
"198 0 LINE",
"170 -4 LINE",
"138 -8 LINE",
"108 -11 LINE",
"103 -11 LINE",
"90 -11 LINE",
"78 13 LINE",
"73 44 LINE",
"73 74 LINE",
"73 81 LINE",
"71 113 LINE",
"68 178 LINE",
"65 243 LINE",
"61 308 LINE",
"58 339 LINE"
);
}
);
};
layerId = UUID0;
paths = (
{
closed = 1;
nodes = (
"106 -11 OFFCURVE",
"113 -11 OFFCURVE",
"123 -10 CURVE SMOOTH",
"143 -8 OFFCURVE",
"166 -5 OFFCURVE",
"184 -3 CURVE SMOOTH",
"193 0 OFFCURVE",
"198 0 OFFCURVE",
"198 1 CURVE",
"281 1 LINE",
"283 3 OFFCURVE",
"288 5 OFFCURVE",
"289 5 CURVE SMOOTH",
"291 5 OFFCURVE",
"293 5 OFFCURVE",
"293 4 CURVE",
"294 4 OFFCURVE",
"295 3 OFFCURVE",
"296 3 CURVE",
"298 3 OFFCURVE",
"303 0 OFFCURVE",
"308 1 CURVE",
"308 1 OFFCURVE",
"311 1 OFFCURVE",
"318 1 CURVE SMOOTH",
"323 3 OFFCURVE",
"331 3 OFFCURVE",
"339 3 CURVE SMOOTH",
"356 4 OFFCURVE",
"376 5 OFFCURVE",
"391 5 CURVE",
"396 18 OFFCURVE",
"400 43 OFFCURVE",
"401 75 CURVE SMOOTH",
"403 108 OFFCURVE",
"403 151 OFFCURVE",
"403 199 CURVE",
"406 204 OFFCURVE",
"409 208 OFFCURVE",
"413 209 CURVE SMOOTH",
"419 213 OFFCURVE",
"426 213 OFFCURVE",
"435 213 CURVE",
"439 213 OFFCURVE",
"443 213 OFFCURVE",
"449 213 CURVE",
"459 214 OFFCURVE",
"464 215 OFFCURVE",
"468 216 CURVE SMOOTH",
"473 218 OFFCURVE",
"478 218 OFFCURVE",
"488 218 CURVE SMOOTH",
"493 218 OFFCURVE",
"499 218 OFFCURVE",
"508 218 CURVE SMOOTH",
"523 219 OFFCURVE",
"539 220 OFFCURVE",
"553 221 CURVE SMOOTH",
"560 223 OFFCURVE",
"565 223 OFFCURVE",
"568 223 CURVE SMOOTH",
"576 223 OFFCURVE",
"580 225 OFFCURVE",
"583 238 CURVE",
"583 244 OFFCURVE",
"583 253 OFFCURVE",
"583 265 CURVE SMOOTH",
"583 278 OFFCURVE",
"583 293 OFFCURVE",
"583 313 CURVE SMOOTH",
"583 343 OFFCURVE",
"583 363 OFFCURVE",
"579 375 CURVE SMOOTH",
"575 386 OFFCURVE",
"568 389 OFFCURVE",
"553 389 CURVE SMOOTH",
"453 389 LINE",
"433 389 LINE",
"430 393 OFFCURVE",
"429 395 OFFCURVE",
"429 398 CURVE SMOOTH",
"430 399 OFFCURVE",
"430 400 OFFCURVE",
"430 400 CURVE",
"430 418 OFFCURVE",
"430 433 OFFCURVE",
"431 446 CURVE SMOOTH",
"433 471 OFFCURVE",
"434 488 OFFCURVE",
"436 498 CURVE",
"436 503 OFFCURVE",
"438 505 OFFCURVE",
"438 508 CURVE",
"439 508 OFFCURVE",
"441 510 OFFCURVE",
"445 511 CURVE",
"448 510 OFFCURVE",
"459 510 OFFCURVE",
"469 510 CURVE SMOOTH",
"485 510 OFFCURVE",
"493 511 OFFCURVE",
"500 513 CURVE SMOOTH",
"508 513 OFFCURVE",
"516 514 OFFCURVE",
"530 514 CURVE SMOOTH",
"575 514 LINE SMOOTH",
"579 514 OFFCURVE",
"583 514 OFFCURVE",
"589 514 CURVE",
"595 514 OFFCURVE",
"601 514 OFFCURVE",
"606 515 CURVE",
"618 516 OFFCURVE",
"625 520 OFFCURVE",
"625 528 CURVE SMOOTH",
"625 545 OFFCURVE",
"625 563 OFFCURVE",
"626 579 CURVE SMOOTH",
"628 596 OFFCURVE",
"628 610 OFFCURVE",
"626 624 CURVE",
"625 649 OFFCURVE",
"619 666 OFFCURVE",
"601 666 CURVE",
"598 664 OFFCURVE",
"595 663 OFFCURVE",
"593 663 CURVE",
"588 663 OFFCURVE",
"583 663 OFFCURVE",
"575 665 CURVE SMOOTH",
"571 666 OFFCURVE",
"568 666 OFFCURVE",
"563 666 CURVE SMOOTH",
"540 666 OFFCURVE",
"520 666 OFFCURVE",
"501 668 CURVE SMOOTH",
"463 668 OFFCURVE",
"429 668 OFFCURVE",
"398 668 CURVE SMOOTH",
"381 669 OFFCURVE",
"366 669 OFFCURVE",
"351 669 CURVE SMOOTH",
"350 669 OFFCURVE",
"348 669 OFFCURVE",
"341 669 CURVE",
"335 669 OFFCURVE",
"329 669 OFFCURVE",
"323 669 CURVE SMOOTH",
"315 669 OFFCURVE",
"309 669 OFFCURVE",
"303 670 CURVE",
"296 670 OFFCURVE",
"293 670 OFFCURVE",
"293 670 CURVE SMOOTH",
"246 670 OFFCURVE",
"204 669 OFFCURVE",
"166 668 CURVE SMOOTH",
"128 666 OFFCURVE",
"98 665 OFFCURVE",
"74 665 CURVE SMOOTH",
"73 665 OFFCURVE",
"73 665 OFFCURVE",
"71 666 CURVE",
"69 666 OFFCURVE",
"68 666 OFFCURVE",
"65 666 CURVE SMOOTH",
"61 665 OFFCURVE",
"58 663 OFFCURVE",
"58 655 CURVE SMOOTH",
"58 339 LINE",
"60 318 OFFCURVE",
"63 298 OFFCURVE",
"63 275 CURVE SMOOTH",
"66 233 OFFCURVE",
"68 188 OFFCURVE",
"70 145 CURVE SMOOTH",
"70 123 OFFCURVE",
"71 103 OFFCURVE",
"73 81 CURVE",
"73 78 OFFCURVE",
"73 69 OFFCURVE",
"73 59 CURVE SMOOTH",
"73 49 OFFCURVE",
"74 39 OFFCURVE",
"76 28 CURVE SMOOTH",
"79 8 OFFCURVE",
"86 -11 OFFCURVE",
"103 -11 CURVE SMOOTH"
);
}
);
width = 663;
}
);
leftKerningGroup = H;
rightKerningGroup = F;
unicode = 0046;
},
{
glyphname = G;
lastChange = "2016-10-15 12:39:21 +0000";
layers = (
{
anchors = (
{
name = bottom;
position = "{414, 0}";
},
{
name = top;
position = "{414, 676}";
}
);
background = {
paths = (
{
closed = 1;
nodes = (
"778 143 LINE",
"778 119 LINE",
"778 74 LINE",
"775 38 LINE",
"773 9 LINE",
"769 3 LINE",
"760 3 LINE",
"740 3 LINE",
"730 1 LINE",
"719 0 LINE",
"708 0 LINE",
"705 0 LINE",
"698 0 LINE",
"695 1 LINE",
"693 3 LINE",
"693 3 LINE",
"690 3 LINE",
"688 1 LINE",
"688 0 LINE",
"588 0 LINE",
"588 0 LINE",
"578 0 LINE",
"566 0 LINE",
"555 -1 LINE",
"553 -1 LINE",
"549 -1 LINE",
"543 11 LINE",
"539 33 LINE",
"536 63 LINE",
"534 83 LINE",
"529 56 LINE",
"496 18 LINE",
"446 -9 LINE",
"383 -23 LINE",
"348 -23 LINE",
"313 -23 LINE",
"243 -6 LINE",
"174 29 LINE",
"114 85 LINE",
"69 164 LINE",
"43 268 LINE",
"43 333 LINE",
"43 420 LINE",
"104 555 LINE",
"214 648 LINE",
"363 695 LINE",
"449 695 LINE",
"513 695 LINE",
"646 663 LINE",
"713 630 LINE",
"674 460 LINE",
"656 465 LINE",
"616 476 LINE",
"575 486 LINE",
"535 493 LINE",
"516 493 LINE",
"488 493 LINE",
"438 478 LINE",
"403 441 LINE",
"381 378 LINE",
"381 328 LINE",
"381 284 LINE",
"394 225 LINE",
"418 189 LINE",
"449 174 LINE",
"468 174 LINE",
"481 174 LINE",
"513 181 LINE",
"528 188 LINE",
"526 224 LINE",
"524 293 LINE",
"524 326 LINE",
"524 344 LINE",
"524 363 LINE",
"530 369 LINE",
"543 368 LINE",
"555 368 LINE",
"661 368 LINE",
"699 368 LINE",
"745 369 LINE",
"771 365 LINE",
"780 353 LINE",
"780 338 LINE",
"780 333 LINE",
"781 326 LINE",
"781 314 LINE",
"781 293 LINE",
"781 274 LINE",
"781 173 LINE",
"781 171 LINE",
"780 163 LINE",
"778 151 LINE",
"778 143 LINE"
);
}
);
};
layerId = UUID0;
paths = (
{
closed = 1;
nodes = (
"394 -23 OFFCURVE",
"438 -14 OFFCURVE",
"471 4 CURVE SMOOTH",
"504 21 OFFCURVE",
"528 48 OFFCURVE",
"534 83 CURVE",
"535 70 OFFCURVE",
"536 59 OFFCURVE",
"538 48 CURVE SMOOTH",
"539 28 OFFCURVE",
"543 13 OFFCURVE",
"546 5 CURVE",
"548 1 OFFCURVE",
"551 -1 OFFCURVE",
"553 -1 CURVE SMOOTH",
"555 -1 OFFCURVE",
"558 -1 OFFCURVE",
"561 0 CURVE",
"564 0 OFFCURVE",
"568 0 OFFCURVE",
"573 0 CURVE SMOOTH",
"576 0 OFFCURVE",
"580 0 OFFCURVE",
"583 0 CURVE",
"586 0 OFFCURVE",
"588 0 OFFCURVE",
"588 0 CURVE SMOOTH",
"688 0 LINE",
"688 0 OFFCURVE",
"688 1 OFFCURVE",
"690 3 CURVE",
"693 3 LINE",
"693 3 OFFCURVE",
"694 3 OFFCURVE",
"695 1 CURVE",
"696 0 OFFCURVE",
"699 0 OFFCURVE",
"705 0 CURVE SMOOTH",
"708 0 LINE",
"715 0 OFFCURVE",
"723 1 OFFCURVE",
"730 1 CURVE SMOOTH",
"743 3 OFFCURVE",
"758 3 OFFCURVE",
"769 3 CURVE",
"773 11 OFFCURVE",
"775 30 OFFCURVE",
"776 55 CURVE SMOOTH",
"778 80 OFFCURVE",
"778 111 OFFCURVE",
"778 143 CURVE SMOOTH",
"778 143 OFFCURVE",
"778 144 OFFCURVE",
"778 148 CURVE",
"778 153 OFFCURVE",
"780 161 OFFCURVE",
"781 168 CURVE SMOOTH",
"781 169 OFFCURVE",
"781 171 OFFCURVE",
"781 173 CURVE SMOOTH",
"781 274 LINE SMOOTH",
"781 288 OFFCURVE",
"781 296 OFFCURVE",
"781 304 CURVE",
"781 311 OFFCURVE",
"781 316 OFFCURVE",
"781 320 CURVE SMOOTH",
"781 324 OFFCURVE",
"781 328 OFFCURVE",
"781 329 CURVE",
"780 333 OFFCURVE",
"780 334 OFFCURVE",
"780 338 CURVE SMOOTH",
"780 356 OFFCURVE",
"775 364 OFFCURVE",
"758 368 CURVE SMOOTH",
"750 369 OFFCURVE",
"738 369 OFFCURVE",
"723 369 CURVE SMOOTH",
"708 368 OFFCURVE",
"686 368 OFFCURVE",
"661 368 CURVE SMOOTH",
"555 368 LINE SMOOTH",
"548 368 OFFCURVE",
"541 368 OFFCURVE",
"538 369 CURVE",
"528 369 OFFCURVE",
"524 365 OFFCURVE",
"524 353 CURVE",
"524 348 OFFCURVE",
"524 338 OFFCURVE",
"524 326 CURVE SMOOTH",
"524 303 OFFCURVE",
"524 281 OFFCURVE",
"525 258 CURVE SMOOTH",
"526 235 OFFCURVE",
"528 213 OFFCURVE",
"528 188 CURVE",
"506 179 OFFCURVE",
"485 174 OFFCURVE",
"468 174 CURVE SMOOTH",
"443 174 OFFCURVE",
"421 184 OFFCURVE",
"406 208 CURVE SMOOTH",
"390 231 OFFCURVE",
"381 269 OFFCURVE",
"381 328 CURVE SMOOTH",
"381 394 OFFCURVE",
"396 435 OFFCURVE",
"420 459 CURVE SMOOTH",
"444 484 OFFCURVE",
"478 493 OFFCURVE",
"516 493 CURVE SMOOTH",
"528 493 OFFCURVE",
"543 491 OFFCURVE",
"555 489 CURVE SMOOTH",
"583 485 OFFCURVE",
"609 478 OFFCURVE",
"636 471 CURVE SMOOTH",
"649 468 OFFCURVE",
"663 463 OFFCURVE",
"674 460 CURVE",
"713 630 LINE",
"623 673 OFFCURVE",
"533 695 OFFCURVE",
"449 695 CURVE SMOOTH",
"334 695 OFFCURVE",
"233 663 OFFCURVE",
"159 601 CURVE SMOOTH",
"86 540 OFFCURVE",
"43 449 OFFCURVE",
"43 333 CURVE SMOOTH",
"43 246 OFFCURVE",
"63 178 OFFCURVE",
"93 125 CURVE SMOOTH",
"123 73 OFFCURVE",
"163 35 OFFCURVE",
"208 13 CURVE SMOOTH",
"253 -13 OFFCURVE",
"303 -23 OFFCURVE",
"348 -23 CURVE SMOOTH"
);
}
);
width = 828;
}
);
leftKerningGroup = O;
rightKerningGroup = G;
unicode = 0047;
},
{
glyphname = H;
lastChange = "2016-10-15 12:39:21 +0000";
layers = (
{
anchors = (
{
name = bottom;
position = "{465, 0}";
},
{
name = center;
position = "{465, 338}";
},
{
name = top;
position = "{465, 676}";
},
{
name = topleft;
position = "{20, 676}";
}
);
background = {
paths = (
{
closed = 1;
nodes = (
"518 466 LINE",
"518 504 LINE",
"519 534 LINE",
"520 548 LINE",
"520 573 LINE",
"521 594 LINE",
"521 608 LINE",
"521 609 LINE",
"521 628 LINE",
"523 649 LINE",
"530 661 LINE",
"549 665 LINE",
"568 665 LINE",
"574 665 LINE",
"615 666 LINE",
"669 668 LINE",
"731 668 LINE",
"786 669 LINE",
"826 670 LINE",
"833 670 LINE",
"843 670 LINE",
"860 668 LINE",
"871 660 LINE",
"875 645 LINE",
"875 631 LINE",
"875 601 LINE",
"874 550 LINE",
"871 503 LINE",
"869 453 LINE",
"869 423 LINE",
"869 418 LINE",
"873 408 LINE",
"873 403 LINE",
"848 23 LINE",
"848 20 LINE",
"844 13 LINE",
"838 5 LINE",
"829 0 LINE",
"825 0 LINE",
"550 0 LINE",
"546 0 LINE",
"541 9 LINE",
"538 24 LINE",
"535 43 LINE",
"534 53 LINE",
"523 238 LINE",
"508 238 LINE",
"485 238 LINE",
"458 240 LINE",
"435 241 LINE",
"418 241 LINE",
"411 241 LINE",
"409 229 LINE",
"409 224 LINE",
"409 168 LINE",
"409 91 LINE",
"408 41 LINE",
"403 14 LINE",
"394 1 LINE",
"383 -1 LINE",
"373 -1 LINE",
"318 -5 LINE",
"264 -6 LINE",
"243 -6 LINE",
"193 -6 LINE",
"148 -3 LINE",
"104 3 LINE",
"86 8 LINE",
"84 8 LINE",
"80 15 LINE",
"78 24 LINE",
"75 33 LINE",
"75 34 LINE",
"56 398 LINE",
"56 408 LINE",
"56 418 LINE",
"56 425 LINE",
"58 465 LINE",
"59 516 LINE",
"60 571 LINE",
"63 616 LINE",
"63 646 LINE",
"64 648 LINE",
"66 649 LINE",
"75 658 LINE",
"88 665 LINE",
"103 670 LINE",
"110 670 LINE",
"168 670 LINE",
"168 670 LINE",
"199 669 LINE",
"243 669 LINE",
"293 668 LINE",
"336 668 LINE",
"365 668 LINE",
"366 668 LINE",
"378 668 LINE",
"396 664 LINE",
"408 655 LINE",
"413 639 LINE",
"413 625 LINE",
"413 623 LINE",
"411 608 LINE",
"410 590 LINE",
"408 575 LINE",
"408 571 LINE",
"408 568 LINE",
"411 558 LINE",
"411 553 LINE",
"411 533 LINE",
"409 495 LINE",
"409 473 LINE",
"420 473 LINE",
"448 471 LINE",
"478 468 LINE",
"505 466 LINE"
);
}
);
};
layerId = UUID0;
paths = (
{
closed = 1;
nodes = (
"299 -5 OFFCURVE",
"335 -3 OFFCURVE",
"373 -1 CURVE",
"379 -1 OFFCURVE",
"384 0 OFFCURVE",
"388 0 CURVE SMOOTH",
"396 3 OFFCURVE",
"403 9 OFFCURVE",
"405 28 CURVE SMOOTH",
"406 38 OFFCURVE",
"408 49 OFFCURVE",
"408 66 CURVE SMOOTH",
"409 100 OFFCURVE",
"409 149 OFFCURVE",
"409 224 CURVE SMOOTH",
"409 230 OFFCURVE",
"409 241 OFFCURVE",
"418 241 CURVE SMOOTH",
"418 241 OFFCURVE",
"420 241 OFFCURVE",
"426 241 CURVE",
"438 241 OFFCURVE",
"454 240 OFFCURVE",
"473 239 CURVE SMOOTH",
"489 238 OFFCURVE",
"505 238 OFFCURVE",
"516 238 CURVE",
"521 238 OFFCURVE",
"523 238 OFFCURVE",
"523 238 CURVE",
"534 53 LINE SMOOTH",
"535 40 OFFCURVE",
"538 26 OFFCURVE",
"539 18 CURVE SMOOTH",
"543 6 OFFCURVE",
"545 0 OFFCURVE",
"550 0 CURVE SMOOTH",
"825 0 LINE SMOOTH",
"831 0 OFFCURVE",
"836 4 OFFCURVE",
"841 9 CURVE",
"845 14 OFFCURVE",
"848 19 OFFCURVE",
"848 23 CURVE",
"873 403 LINE",
"873 405 OFFCURVE",
"871 408 OFFCURVE",
"871 413 CURVE",
"870 415 OFFCURVE",
"869 418 OFFCURVE",
"869 423 CURVE SMOOTH",
"869 461 OFFCURVE",
"871 494 OFFCURVE",
"873 526 CURVE SMOOTH",
"874 559 OFFCURVE",
"875 591 OFFCURVE",
"875 631 CURVE SMOOTH",
"875 649 OFFCURVE",
"873 658 OFFCURVE",
"865 664 CURVE",
"858 669 OFFCURVE",
"848 670 OFFCURVE",
"833 670 CURVE SMOOTH",
"828 670 OFFCURVE",
"819 670 OFFCURVE",
"806 670 CURVE",
"793 669 OFFCURVE",
"776 669 OFFCURVE",
"758 669 CURVE SMOOTH",
"740 668 OFFCURVE",
"721 668 OFFCURVE",
"700 668 CURVE SMOOTH",
"680 668 OFFCURVE",
"660 668 OFFCURVE",
"643 668 CURVE SMOOTH",
"624 666 OFFCURVE",
"608 666 OFFCURVE",
"595 666 CURVE",
"581 665 OFFCURVE",
"573 665 OFFCURVE",
"568 665 CURVE SMOOTH",
"556 665 OFFCURVE",
"546 665 OFFCURVE",
"540 663 CURVE SMOOTH",
"534 663 OFFCURVE",
"529 659 OFFCURVE",
"526 655 CURVE",
"521 648 OFFCURVE",
"521 633 OFFCURVE",
"521 609 CURVE SMOOTH",
"521 608 OFFCURVE",
"521 605 OFFCURVE",
"521 601 CURVE",
"521 591 OFFCURVE",
"520 578 OFFCURVE",
"520 560 CURVE",
"520 553 OFFCURVE",
"520 543 OFFCURVE",
"519 534 CURVE SMOOTH",
"519 514 OFFCURVE",
"518 491 OFFCURVE",
"518 466 CURVE",
"509 466 OFFCURVE",
"500 466 OFFCURVE",
"491 468 CURVE",
"483 468 OFFCURVE",
"473 469 OFFCURVE",
"463 470 CURVE",
"453 470 OFFCURVE",
"444 471 OFFCURVE",
"435 473 CURVE",
"425 473 OFFCURVE",
"418 473 OFFCURVE",
"409 473 CURVE",
"409 488 OFFCURVE",
"410 501 OFFCURVE",
"410 514 CURVE SMOOTH",
"411 526 OFFCURVE",
"411 539 OFFCURVE",
"411 553 CURVE SMOOTH",
"411 555 OFFCURVE",
"411 559 OFFCURVE",
"410 563 CURVE SMOOTH",
"409 565 OFFCURVE",
"408 568 OFFCURVE",
"408 571 CURVE SMOOTH",
"408 573 OFFCURVE",
"409 578 OFFCURVE",
"409 583 CURVE SMOOTH",
"410 588 OFFCURVE",
"410 593 OFFCURVE",
"411 599 CURVE SMOOTH",
"411 604 OFFCURVE",
"413 610 OFFCURVE",
"413 615 CURVE SMOOTH",
"413 620 OFFCURVE",
"413 623 OFFCURVE",
"413 625 CURVE SMOOTH",
"413 643 OFFCURVE",
"409 654 OFFCURVE",
"401 660 CURVE SMOOTH",
"394 666 OFFCURVE",
"383 668 OFFCURVE",
"366 668 CURVE SMOOTH",
"366 668 OFFCURVE",
"360 668 OFFCURVE",
"351 668 CURVE",
"341 668 OFFCURVE",
"329 668 OFFCURVE",
"314 668 CURVE SMOOTH",
"300 668 OFFCURVE",
"284 668 OFFCURVE",
"268 668 CURVE SMOOTH",
"250 669 OFFCURVE",
"235 669 OFFCURVE",
"221 669 CURVE SMOOTH",
"206 669 OFFCURVE",
"194 669 OFFCURVE",
"184 670 CURVE",
"173 670 OFFCURVE",
"168 670 OFFCURVE",
"168 670 CURVE SMOOTH",
"110 670 LINE",
"99 670 OFFCURVE",
"89 668 OFFCURVE",
"81 661 CURVE SMOOTH",
"73 655 OFFCURVE",
"68 649 OFFCURVE",
"64 648 CURVE SMOOTH",
"64 646 OFFCURVE",
"63 641 OFFCURVE",
"63 631 CURVE SMOOTH",
"61 611 OFFCURVE",
"61 580 OFFCURVE",
"60 543 CURVE SMOOTH",
"59 525 OFFCURVE",
"59 508 OFFCURVE",
"58 491 CURVE SMOOTH",
"58 458 OFFCURVE",
"56 428 OFFCURVE",
"56 418 CURVE SMOOTH",
"56 408 LINE",
"56 398 LINE",
"75 34 LINE",
"75 33 OFFCURVE",
"76 26 OFFCURVE",
"78 20 CURVE SMOOTH",
"80 14 OFFCURVE",
"83 8 OFFCURVE",
"86 8 CURVE",
"110 1 OFFCURVE",
"139 -3 OFFCURVE",
"170 -4 CURVE SMOOTH",
"201 -6 OFFCURVE",
"234 -6 OFFCURVE",
"264 -6 CURVE SMOOTH"
);
}
);
width = 930;
}
);
leftKerningGroup = H;
rightKerningGroup = H;
unicode = 0048;
},
{
glyphname = Hbar;
lastChange = "2016-10-15 12:39:21 +0000";
layers = (
{
background = {
paths = (
{
closed = 1;
nodes = (
"18 519 LINE",
"3 523 LINE",
"3 528 LINE",
"3 538 LINE",
"1 554 LINE",
"1 569 LINE",
"0 584 LINE",
"0 595 LINE",
"0 598 LINE",
"10 601 LINE",
"26 604 LINE",
"43 608 LINE",
"53 608 LINE",
"61 608 LINE",
"63 621 LINE",
"63 631 LINE",
"63 646 LINE",
"64 648 LINE",
"66 649 LINE",
"75 658 LINE",
"88 665 LINE",
"103 670 LINE",
"110 670 LINE",
"168 670 LINE",
"168 670 LINE",
"199 669 LINE",
"243 669 LINE",
"293 668 LINE",
"336 668 LINE",
"365 668 LINE",
"366 668 LINE",
"378 668 LINE",
"396 664 LINE",
"408 655 LINE",
"413 639 LINE",
"413 625 LINE",
"413 623 LINE",
"413 615 LINE",
"411 611 LINE",
"411 606 LINE",
"443 606 LINE",
"480 606 LINE",
"521 606 LINE",
"521 608 LINE",
"521 609 LINE",
"521 628 LINE",
"523 649 LINE",
"530 661 LINE",
"549 665 LINE",
"568 665 LINE",
"574 665 LINE",
"615 666 LINE",
"669 668 LINE",
"731 668 LINE",
"786 669 LINE",
"826 670 LINE",
"833 670 LINE",
"843 670 LINE",
"860 668 LINE",
"871 660 LINE",
"875 645 LINE",
"875 631 LINE",
"875 618 LINE",
"875 604 LINE",
"883 603 LINE",
"890 603 LINE",
"908 601 LINE",
"933 596 LINE",
"933 593 LINE",
"933 584 LINE",
"934 575 LINE",
"934 569 LINE",
"936 564 LINE",
"936 558 LINE",
"938 548 LINE",
"938 541 LINE",
"938 536 LINE",
"936 526 LINE",
"925 518 LINE",
"903 513 LINE",
"884 513 LINE",
"871 513 LINE",
"871 495 LINE",
"870 478 LINE",
"869 453 LINE",
"869 423 LINE",
"869 418 LINE",
"873 408 LINE",
"873 403 LINE",
"848 23 LINE",
"848 20 LINE",
"844 13 LINE",
"838 5 LINE",
"829 0 LINE",
"825 0 LINE",
"550 0 LINE",
"546 0 LINE",
"541 9 LINE",
"538 24 LINE",
"535 43 LINE",
"534 53 LINE",
"523 238 LINE",
"523 238 LINE",
"508 238 LINE",
"485 238 LINE",
"458 240 LINE",
"435 241 LINE",
"418 241 LINE",
"418 241 LINE",
"411 241 LINE",
"409 229 LINE",
"409 224 LINE",
"409 168 LINE",
"409 91 LINE",
"408 41 LINE",
"403 14 LINE",
"394 1 LINE",
"383 -1 LINE",
"373 -1 LINE",
"318 -5 LINE",
"264 -6 LINE",
"243 -6 LINE",
"193 -6 LINE",
"148 -3 LINE",
"104 3 LINE",
"86 8 LINE",
"84 8 LINE",
"80 15 LINE",
"78 24 LINE",
"75 33 LINE",
"75 34 LINE",
"56 398 LINE",
"56 418 LINE",
"56 425 LINE",
"58 465 LINE",
"58 491 LINE",
"58 503 LINE",
"59 515 LINE",
"58 515 LINE",
"33 516 LINE"
);
},
{
closed = 1;
nodes = (
"518 466 LINE",
"518 493 LINE",
"518 514 LINE",
"489 515 LINE",
"464 515 LINE",
"438 515 LINE",
"419 515 LINE",
"410 515 LINE",
"410 514 LINE",
"409 495 LINE",
"409 473 LINE",
"420 473 LINE",
"448 471 LINE",
"478 468 LINE",
"505 466 LINE"
);
}
);
};
layerId = UUID0;
paths = (
{
closed = 1;
nodes = (
"299 -5 OFFCURVE",
"335 -3 OFFCURVE",
"373 -1 CURVE",
"379 -1 OFFCURVE",
"384 0 OFFCURVE",
"388 0 CURVE SMOOTH",
"396 3 OFFCURVE",
"403 9 OFFCURVE",
"405 28 CURVE SMOOTH",
"406 38 OFFCURVE",
"408 49 OFFCURVE",
"408 66 CURVE SMOOTH",
"409 100 OFFCURVE",
"409 149 OFFCURVE",
"409 224 CURVE SMOOTH",
"409 230 OFFCURVE",
"409 241 OFFCURVE",
"418 241 CURVE SMOOTH",
"418 241 OFFCURVE",
"420 241 OFFCURVE",
"426 241 CURVE",
"438 241 OFFCURVE",
"454 240 OFFCURVE",
"473 239 CURVE SMOOTH",
"489 238 OFFCURVE",
"505 238 OFFCURVE",
"516 238 CURVE",
"521 238 OFFCURVE",
"523 238 OFFCURVE",
"523 238 CURVE",
"534 53 LINE SMOOTH",
"535 40 OFFCURVE",
"538 26 OFFCURVE",
"539 18 CURVE SMOOTH",
"543 6 OFFCURVE",
"545 0 OFFCURVE",
"550 0 CURVE SMOOTH",
"825 0 LINE SMOOTH",
"831 0 OFFCURVE",
"836 4 OFFCURVE",
"841 9 CURVE",
"845 14 OFFCURVE",
"848 19 OFFCURVE",
"848 23 CURVE",
"873 403 LINE",
"873 405 OFFCURVE",
"871 408 OFFCURVE",
"871 413 CURVE",
"870 415 OFFCURVE",
"869 418 OFFCURVE",
"869 423 CURVE SMOOTH",
"869 443 OFFCURVE",
"870 460 OFFCURVE",
"870 478 CURVE SMOOTH",
"871 489 OFFCURVE",
"871 501 OFFCURVE",
"871 513 CURVE",
"884 513 LINE SMOOTH",
"909 513 OFFCURVE",
"923 518 OFFCURVE",
"930 523 CURVE",
"938 528 OFFCURVE",
"938 535 OFFCURVE",
"938 541 CURVE SMOOTH",
"938 546 OFFCURVE",
"938 550 OFFCURVE",
"938 553 CURVE SMOOTH",
"938 556 OFFCURVE",
"936 558 OFFCURVE",
"936 561 CURVE",
"936 563 OFFCURVE",
"936 565 OFFCURVE",
"935 566 CURVE SMOOTH",
"935 568 OFFCURVE",
"934 570 OFFCURVE",
"934 573 CURVE",
"934 574 OFFCURVE",
"934 578 OFFCURVE",
"933 580 CURVE SMOOTH",
"933 583 OFFCURVE",
"933 588 OFFCURVE",
"933 593 CURVE SMOOTH",
"933 595 OFFCURVE",
"928 598 OFFCURVE",
"920 599 CURVE SMOOTH",
"913 600 OFFCURVE",
"903 603 OFFCURVE",
"890 603 CURVE SMOOTH",
"885 603 OFFCURVE",
"880 603 OFFCURVE",
"875 604 CURVE",
"875 613 OFFCURVE",
"875 623 OFFCURVE",
"875 631 CURVE SMOOTH",
"875 649 OFFCURVE",
"873 658 OFFCURVE",
"865 664 CURVE",
"858 669 OFFCURVE",
"848 670 OFFCURVE",
"833 670 CURVE SMOOTH",
"828 670 OFFCURVE",
"819 670 OFFCURVE",
"806 670 CURVE",
"793 669 OFFCURVE",
"776 669 OFFCURVE",
"758 669 CURVE SMOOTH",
"740 668 OFFCURVE",
"721 668 OFFCURVE",
"700 668 CURVE SMOOTH",
"680 668 OFFCURVE",
"660 668 OFFCURVE",
"643 668 CURVE SMOOTH",
"624 666 OFFCURVE",
"608 666 OFFCURVE",
"595 666 CURVE",
"581 665 OFFCURVE",
"573 665 OFFCURVE",
"568 665 CURVE SMOOTH",
"556 665 OFFCURVE",
"546 665 OFFCURVE",
"540 663 CURVE SMOOTH",
"534 663 OFFCURVE",
"529 659 OFFCURVE",
"526 655 CURVE",
"521 648 OFFCURVE",
"521 633 OFFCURVE",
"521 609 CURVE SMOOTH",
"521 609 OFFCURVE",
"521 608 OFFCURVE",
"521 606 CURVE",
"494 606 OFFCURVE",
"468 606 OFFCURVE",
"443 606 CURVE SMOOTH",
"411 606 LINE",
"411 609 OFFCURVE",
"411 613 OFFCURVE",
"413 615 CURVE",
"413 620 OFFCURVE",
"413 623 OFFCURVE",
"413 625 CURVE SMOOTH",
"413 643 OFFCURVE",
"409 654 OFFCURVE",
"401 660 CURVE SMOOTH",
"394 666 OFFCURVE",
"383 668 OFFCURVE",
"366 668 CURVE SMOOTH",
"366 668 OFFCURVE",
"360 668 OFFCURVE",
"351 668 CURVE",
"341 668 OFFCURVE",
"329 668 OFFCURVE",
"314 668 CURVE SMOOTH",
"300 668 OFFCURVE",
"284 668 OFFCURVE",
"268 668 CURVE SMOOTH",
"250 669 OFFCURVE",
"235 669 OFFCURVE",
"221 669 CURVE SMOOTH",
"206 669 OFFCURVE",
"194 669 OFFCURVE",
"184 670 CURVE",
"173 670 OFFCURVE",
"168 670 OFFCURVE",
"168 670 CURVE SMOOTH",
"110 670 LINE",
"99 670 OFFCURVE",
"89 668 OFFCURVE",
"81 661 CURVE SMOOTH",
"73 655 OFFCURVE",
"68 649 OFFCURVE",
"64 648 CURVE SMOOTH",
"63 646 OFFCURVE",
"63 625 OFFCURVE",
"61 608 CURVE",
"53 608 LINE SMOOTH",
"46 608 OFFCURVE",
"41 606 OFFCURVE",
"35 606 CURVE",
"23 604 OFFCURVE",
"13 603 OFFCURVE",
"5 599 CURVE",
"3 598 OFFCURVE",
"0 598 OFFCURVE",
"0 595 CURVE SMOOTH",
"0 588 OFFCURVE",
"0 583 OFFCURVE",
"1 578 CURVE SMOOTH",
"1 571 OFFCURVE",
"1 566 OFFCURVE",
"1 563 CURVE SMOOTH",
"1 558 OFFCURVE",
"1 553 OFFCURVE",
"3 546 CURVE",
"3 541 OFFCURVE",
"3 535 OFFCURVE",
"3 528 CURVE SMOOTH",
"3 524 OFFCURVE",
"8 521 OFFCURVE",
"18 519 CURVE",
"28 518 OFFCURVE",
"41 516 OFFCURVE",
"58 515 CURVE SMOOTH",
"59 515 LINE",
"58 508 OFFCURVE",
"58 499 OFFCURVE",
"58 491 CURVE SMOOTH",
"58 474 OFFCURVE",
"58 458 OFFCURVE",
"58 445 CURVE SMOOTH",
"56 433 OFFCURVE",
"56 423 OFFCURVE",
"56 418 CURVE SMOOTH",
"56 398 LINE",
"75 34 LINE",
"75 33 OFFCURVE",
"76 26 OFFCURVE",
"78 20 CURVE SMOOTH",
"80 14 OFFCURVE",
"83 8 OFFCURVE",
"86 8 CURVE",
"110 1 OFFCURVE",
"139 -3 OFFCURVE",
"170 -4 CURVE SMOOTH",
"201 -6 OFFCURVE",
"234 -6 OFFCURVE",
"264 -6 CURVE SMOOTH"
);
},
{
closed = 1;
nodes = (
"509 466 OFFCURVE",
"500 466 OFFCURVE",
"491 468 CURVE",
"483 468 OFFCURVE",
"473 469 OFFCURVE",
"463 470 CURVE",
"453 470 OFFCURVE",
"444 471 OFFCURVE",
"435 473 CURVE",
"425 473 OFFCURVE",
"418 473 OFFCURVE",
"409 473 CURVE",
"409 488 OFFCURVE",
"410 501 OFFCURVE",
"410 514 CURVE",
"410 515 LINE",
"419 515 LINE SMOOTH",
"433 515 OFFCURVE",
"448 515 OFFCURVE",
"464 515 CURVE SMOOTH",
"481 515 OFFCURVE",
"499 515 OFFCURVE",
"518 514 CURVE",
"518 499 OFFCURVE",
"518 483 OFFCURVE",
"518 466 CURVE"
);
}
);
width = 930;
}
);
leftKerningGroup = H;
rightKerningGroup = H;
unicode = 0126;
},
{
glyphname = I;
lastChange = "2016-10-15 12:39:21 +0000";
layers = (
{
anchors = (
{
name = bottom;
position = "{240, 0}";
},
{
name = ogonek;
position = "{353, 10}";
},
{
name = top;
position = "{240, 676}";
},
{
name = topleft;
position = "{20, 676}";
}
);
background = {
paths = (
{
closed = 1;
nodes = (
"418 199 LINE",
"418 166 LINE",
"418 104 LINE",
"415 53 LINE",
"411 14 LINE",
"406 5 LINE",
"395 5 LINE",
"368 3 LINE",
"341 3 LINE",
"324 1 LINE",
"323 1 LINE",
"320 1 LINE",
"314 1 LINE",
"308 5 LINE",
"304 5 LINE",
"303 4 LINE",
"300 3 LINE",
"296 1 LINE",
"204 1 LINE",
"203 0 LINE",
"170 0 LINE",
"130 0 LINE",
"94 -1 LINE",
"88 -1 LINE",
"80 -1 LINE",
"69 10 LINE",
"63 28 LINE",
"60 49 LINE",
"59 69 LINE",
"59 86 LINE",
"59 91 LINE",
"60 151 LINE",
"60 278 LINE",
"63 339 LINE",
"63 655 LINE",
"63 663 LINE",
"73 665 LINE",
"80 665 LINE",
"130 665 LINE",
"229 666 LINE",
"279 666 LINE",
"284 666 LINE",
"293 668 LINE",
"311 670 LINE",
"339 669 LINE",
"361 666 LINE",
"366 663 LINE",
"373 665 LINE",
"378 666 LINE",
"391 666 LINE",
"409 663 LINE",
"420 648 LINE",
"424 618 LINE",
"424 591 LINE",
"424 396 LINE",
"423 368 LINE",
"423 323 LINE",
"420 273 LINE",
"419 230 LINE",
"418 200 LINE"
);
}
);
};
layerId = UUID0;
paths = (
{
closed = 1;
nodes = (
"93 -1 OFFCURVE",
"100 -1 OFFCURVE",
"113 0 CURVE",
"125 0 OFFCURVE",
"138 0 OFFCURVE",
"150 0 CURVE",
"164 0 OFFCURVE",
"176 0 OFFCURVE",
"188 0 CURVE",
"198 0 OFFCURVE",
"203 0 OFFCURVE",
"204 1 CURVE",
"296 1 LINE",
"296 1 OFFCURVE",
"303 4 OFFCURVE",
"304 5 CURVE",
"308 5 OFFCURVE",
"309 4 OFFCURVE",
"313 3 CURVE",
"313 1 OFFCURVE",
"316 1 OFFCURVE",
"320 1 CURVE SMOOTH",
"323 1 LINE SMOOTH",
"324 1 OFFCURVE",
"328 1 OFFCURVE",
"333 1 CURVE SMOOTH",
"338 3 OFFCURVE",
"346 3 OFFCURVE",
"354 3 CURVE SMOOTH",
"371 4 OFFCURVE",
"391 5 OFFCURVE",
"406 5 CURVE",
"409 11 OFFCURVE",
"413 20 OFFCURVE",
"413 33 CURVE SMOOTH",
"416 58 OFFCURVE",
"418 94 OFFCURVE",
"418 135 CURVE SMOOTH",
"418 156 OFFCURVE",
"418 178 OFFCURVE",
"418 199 CURVE SMOOTH",
"418 200 OFFCURVE",
"418 205 OFFCURVE",
"419 215 CURVE SMOOTH",
"419 225 OFFCURVE",
"419 238 OFFCURVE",
"420 253 CURVE SMOOTH",
"420 266 OFFCURVE",
"421 283 OFFCURVE",
"421 298 CURVE SMOOTH",
"423 315 OFFCURVE",
"423 331 OFFCURVE",
"423 345 CURVE SMOOTH",
"423 359 OFFCURVE",
"423 373 OFFCURVE",
"424 381 CURVE SMOOTH",
"424 391 OFFCURVE",
"424 396 OFFCURVE",
"424 396 CURVE SMOOTH",
"424 591 LINE SMOOTH",
"424 609 OFFCURVE",
"424 623 OFFCURVE",
"423 633 CURVE SMOOTH",
"421 643 OFFCURVE",
"418 650 OFFCURVE",
"415 655 CURVE",
"408 665 OFFCURVE",
"396 666 OFFCURVE",
"378 666 CURVE",
"375 665 OFFCURVE",
"373 664 OFFCURVE",
"370 664 CURVE",
"368 663 OFFCURVE",
"364 664 OFFCURVE",
"361 666 CURVE",
"348 668 OFFCURVE",
"334 669 OFFCURVE",
"325 669 CURVE SMOOTH",
"306 670 OFFCURVE",
"295 669 OFFCURVE",
"289 668 CURVE",
"285 668 OFFCURVE",
"283 666 OFFCURVE",
"279 666 CURVE SMOOTH",
"246 666 OFFCURVE",
"213 666 OFFCURVE",
"179 666 CURVE SMOOTH",
"146 665 OFFCURVE",
"113 665 OFFCURVE",
"80 665 CURVE SMOOTH",
"71 665 OFFCURVE",
"63 666 OFFCURVE",
"63 655 CURVE SMOOTH",
"63 339 LINE",
"61 298 OFFCURVE",
"60 258 OFFCURVE",
"60 215 CURVE SMOOTH",
"60 173 OFFCURVE",
"59 131 OFFCURVE",
"59 91 CURVE SMOOTH",
"59 88 OFFCURVE",
"59 83 OFFCURVE",
"59 78 CURVE SMOOTH",
"59 73 OFFCURVE",
"59 66 OFFCURVE",
"60 59 CURVE SMOOTH",
"61 45 OFFCURVE",
"63 31 OFFCURVE",
"66 19 CURVE",
"70 8 OFFCURVE",
"78 -1 OFFCURVE",
"88 -1 CURVE SMOOTH"
);
}
);
width = 480;
}
);
leftKerningGroup = H;
rightKerningGroup = H;
unicode = 0049;
},
{
glyphname = IJ;
lastChange = "2016-10-15 12:39:21 +0000";
layers = (
{
anchors = (
{
name = bottom;
position = "{624, 0}";
},
{
name = ogonek;
position = "{353, 218}";
},
{
name = top;
position = "{616, 676}";
},
{
name = topleft;
position = "{20, 685}";
}
);
layerId = UUID0;
paths = (
{
closed = 1;
nodes = (
"573 -30 OFFCURVE",
"603 -28 OFFCURVE",
"634 -24 CURVE SMOOTH",
"658 -21 OFFCURVE",
"680 -15 OFFCURVE",
"704 -8 CURVE SMOOTH",
"744 6 OFFCURVE",
"793 28 OFFCURVE",
"834 65 CURVE SMOOTH",
"865 94 OFFCURVE",
"881 131 OFFCURVE",
"890 173 CURVE SMOOTH",
"899 213 OFFCURVE",
"899 255 OFFCURVE",
"899 294 CURVE SMOOTH",
"899 294 OFFCURVE",
"899 298 OFFCURVE",
"900 303 CURVE",
"900 308 OFFCURVE",
"900 314 OFFCURVE",
"900 323 CURVE SMOOTH",
"900 329 OFFCURVE",
"900 338 OFFCURVE",
"901 346 CURVE SMOOTH",
"903 354 OFFCURVE",
"901 363 OFFCURVE",
"903 370 CURVE SMOOTH",
"903 378 OFFCURVE",
"903 383 OFFCURVE",
"903 388 CURVE",
"903 393 OFFCURVE",
"903 396 OFFCURVE",
"903 396 CURVE SMOOTH",
"903 591 LINE SMOOTH",
"903 609 OFFCURVE",
"903 623 OFFCURVE",
"901 633 CURVE SMOOTH",
"900 643 OFFCURVE",
"898 650 OFFCURVE",
"893 655 CURVE",
"886 665 OFFCURVE",
"874 666 OFFCURVE",
"856 666 CURVE SMOOTH",
"758 666 LINE SMOOTH",
"724 666 OFFCURVE",
"691 666 OFFCURVE",
"658 666 CURVE SMOOTH",
"625 666 OFFCURVE",
"591 665 OFFCURVE",
"558 665 CURVE SMOOTH",
"550 665 OFFCURVE",
"541 666 OFFCURVE",
"541 655 CURVE SMOOTH",
"543 449 LINE SMOOTH",
"543 436 OFFCURVE",
"543 423 OFFCURVE",
"543 406 CURVE SMOOTH",
"543 393 OFFCURVE",
"541 378 OFFCURVE",
"541 360 CURVE SMOOTH",
"541 343 OFFCURVE",
"541 323 OFFCURVE",
"540 303 CURVE SMOOTH",
"536 249 OFFCURVE",
"538 215 OFFCURVE",
"536 193 CURVE",
"534 188 OFFCURVE",
"533 181 OFFCURVE",
"530 173 CURVE",
"528 165 OFFCURVE",
"525 158 OFFCURVE",
"521 150 CURVE",
"513 134 OFFCURVE",
"500 121 OFFCURVE",
"463 121 CURVE SMOOTH",
"444 121 OFFCURVE",
"414 123 OFFCURVE",
"384 128 CURVE SMOOTH",
"355 131 OFFCURVE",
"324 139 OFFCURVE",
"283 151 CURVE",
"283 153 OFFCURVE",
"283 151 OFFCURVE",
"281 146 CURVE",
"280 143 OFFCURVE",
"278 138 OFFCURVE",
"278 131 CURVE",
"276 119 OFFCURVE",
"275 104 OFFCURVE",
"275 96 CURVE",
"274 89 OFFCURVE",
"273 83 OFFCURVE",
"273 75 CURVE",
"271 68 OFFCURVE",
"270 61 OFFCURVE",
"269 55 CURVE",
"268 43 OFFCURVE",
"265 31 OFFCURVE",
"268 28 CURVE",
"323 8 LINE",
"391 -16 OFFCURVE",
"466 -28 OFFCURVE",
"541 -29 CURVE SMOOTH"
);
},
{
closed = 1;
nodes = (
"93 209 OFFCURVE",
"100 209 OFFCURVE",
"113 210 CURVE",
"125 210 OFFCURVE",
"138 210 OFFCURVE",
"150 210 CURVE",
"164 210 OFFCURVE",
"176 210 OFFCURVE",
"188 210 CURVE",
"198 210 OFFCURVE",
"203 210 OFFCURVE",
"204 211 CURVE",
"296 211 LINE",
"296 211 OFFCURVE",
"303 213 OFFCURVE",
"304 214 CURVE",
"308 214 OFFCURVE",
"309 213 OFFCURVE",
"313 213 CURVE",
"313 211 OFFCURVE",
"316 211 OFFCURVE",
"320 211 CURVE SMOOTH",
"323 211 LINE SMOOTH",
"324 211 OFFCURVE",
"328 211 OFFCURVE",
"333 211 CURVE SMOOTH",
"338 211 OFFCURVE",
"346 211 OFFCURVE",
"354 213 CURVE SMOOTH",
"371 213 OFFCURVE",
"391 214 OFFCURVE",
"406 214 CURVE",
"409 218 OFFCURVE",
"413 224 OFFCURVE",
"413 234 CURVE SMOOTH",
"416 251 OFFCURVE",
"418 276 OFFCURVE",
"418 305 CURVE SMOOTH",
"418 320 OFFCURVE",
"418 335 OFFCURVE",
"418 350 CURVE SMOOTH",
"418 350 OFFCURVE",
"418 354 OFFCURVE",
"419 361 CURVE SMOOTH",
"419 369 OFFCURVE",
"419 376 OFFCURVE",
"420 388 CURVE SMOOTH",
"420 398 OFFCURVE",
"421 409 OFFCURVE",
"421 420 CURVE SMOOTH",
"423 431 OFFCURVE",
"423 443 OFFCURVE",
"423 453 CURVE SMOOTH",
"423 463 OFFCURVE",
"423 471 OFFCURVE",
"424 478 CURVE SMOOTH",
"424 485 OFFCURVE",
"424 489 OFFCURVE",
"424 489 CURVE SMOOTH",
"424 625 LINE SMOOTH",
"424 638 OFFCURVE",
"424 648 OFFCURVE",
"423 655 CURVE SMOOTH",
"421 663 OFFCURVE",
"418 666 OFFCURVE",
"415 670 CURVE",
"408 678 OFFCURVE",
"396 678 OFFCURVE",
"378 678 CURVE",
"375 678 OFFCURVE",
"373 676 OFFCURVE",
"370 676 CURVE",
"368 676 OFFCURVE",
"364 676 OFFCURVE",
"361 678 CURVE",
"348 680 OFFCURVE",
"334 680 OFFCURVE",
"325 680 CURVE SMOOTH",
"306 681 OFFCURVE",
"295 680 OFFCURVE",
"289 679 CURVE",
"285 679 OFFCURVE",
"283 678 OFFCURVE",
"279 678 CURVE SMOOTH",
"246 678 OFFCURVE",
"213 678 OFFCURVE",
"179 678 CURVE SMOOTH",
"146 678 OFFCURVE",
"113 678 OFFCURVE",
"80 678 CURVE SMOOTH",
"71 678 OFFCURVE",
"63 678 OFFCURVE",
"63 670 CURVE SMOOTH",
"63 449 LINE",
"61 420 OFFCURVE",
"60 390 OFFCURVE",
"60 361 CURVE SMOOTH",
"60 331 OFFCURVE",
"59 303 OFFCURVE",
"59 274 CURVE SMOOTH",
"59 271 OFFCURVE",
"59 269 OFFCURVE",
"59 265 CURVE SMOOTH",
"59 260 OFFCURVE",
"59 256 OFFCURVE",
"60 251 CURVE SMOOTH",
"61 241 OFFCURVE",
"63 231 OFFCURVE",
"66 224 CURVE",
"70 215 OFFCURVE",
"78 209 OFFCURVE",
"88 209 CURVE SMOOTH"
);
}
);
width = 951;
}
);
leftKerningGroup = H;
rightKerningGroup = J;
rightMetricsKey = J;
unicode = 0132;
},
{
glyphname = J;
lastChange = "2016-10-15 12:39:21 +0000";
layers = (
{
anchors = (
{
name = bottom;
position = "{328, 0}";
},
{
name = top;
position = "{320, 676}";
}
);
background = {
paths = (
{
closed = 1;
nodes = (
"538 65 LINE",
"508 38 LINE",
"438 3 LINE",
"408 -8 LINE",
"373 -19 LINE",
"338 -24 LINE",
"270 -33 LINE",
"131 -20 LINE",
"68 8 LINE",
"23 28 LINE",
"23 30 LINE",
"23 45 LINE",
"25 64 LINE",
"28 85 LINE",
"29 96 LINE",
"29 103 LINE",
"31 123 LINE",
"33 140 LINE",
"35 153 LINE",
"36 151 LINE",
"61 143 LINE",
"100 130 LINE",
"136 124 LINE",
"173 121 LINE",
"198 121 LINE",
"208 121 LINE",
"224 138 LINE",
"233 161 LINE",
"239 185 LINE",
"241 193 LINE",
"243 209 LINE",
"244 263 LINE",
"244 303 LINE",
"245 333 LINE",
"245 386 LINE",
"246 406 LINE",
"246 430 LINE",
"246 449 LINE",
"245 655 LINE",
"245 663 LINE",
"256 665 LINE",
"263 665 LINE",
"313 665 LINE",
"411 666 LINE",
"463 666 LINE",
"560 666 LINE",
"574 666 LINE",
"593 663 LINE",
"603 648 LINE",
"608 618 LINE",
"608 591 LINE",
"608 396 LINE",
"606 380 LINE",
"605 358 LINE",
"604 333 LINE",
"604 311 LINE",
"603 295 LINE",
"603 294 LINE",
"603 265 LINE",
"600 203 LINE",
"588 143 LINE",
"563 86 LINE"
);
}
);
};
layerId = UUID0;
paths = (
{
closed = 1;
nodes = (
"361 -21 OFFCURVE",
"384 -15 OFFCURVE",
"408 -8 CURVE SMOOTH",
"448 6 OFFCURVE",
"498 28 OFFCURVE",
"538 65 CURVE SMOOTH",
"569 94 OFFCURVE",
"585 131 OFFCURVE",
"594 173 CURVE SMOOTH",
"603 213 OFFCURVE",
"603 255 OFFCURVE",
"603 294 CURVE SMOOTH",
"603 294 OFFCURVE",
"603 298 OFFCURVE",
"604 303 CURVE",
"604 308 OFFCURVE",
"604 314 OFFCURVE",
"604 323 CURVE SMOOTH",
"604 329 OFFCURVE",
"604 338 OFFCURVE",
"605 346 CURVE SMOOTH",
"606 354 OFFCURVE",
"605 363 OFFCURVE",
"606 370 CURVE SMOOTH",
"608 378 OFFCURVE",
"606 383 OFFCURVE",
"608 388 CURVE",
"608 393 OFFCURVE",
"608 396 OFFCURVE",
"608 396 CURVE SMOOTH",
"608 591 LINE SMOOTH",
"608 609 OFFCURVE",
"606 623 OFFCURVE",
"605 633 CURVE SMOOTH",
"604 643 OFFCURVE",
"601 650 OFFCURVE",
"598 655 CURVE",
"590 665 OFFCURVE",
"578 666 OFFCURVE",
"560 666 CURVE SMOOTH",
"463 666 LINE SMOOTH",
"428 666 OFFCURVE",
"395 666 OFFCURVE",
"363 666 CURVE SMOOTH",
"329 666 OFFCURVE",
"295 665 OFFCURVE",
"263 665 CURVE SMOOTH",
"254 665 OFFCURVE",
"245 666 OFFCURVE",
"245 655 CURVE SMOOTH",
"246 449 LINE SMOOTH",
"246 436 OFFCURVE",
"246 423 OFFCURVE",
"246 406 CURVE SMOOTH",
"246 393 OFFCURVE",
"245 378 OFFCURVE",
"245 360 CURVE SMOOTH",
"245 343 OFFCURVE",
"245 323 OFFCURVE",
"244 303 CURVE SMOOTH",
"241 249 OFFCURVE",
"243 215 OFFCURVE",
"241 193 CURVE",
"239 188 OFFCURVE",
"238 181 OFFCURVE",
"236 173 CURVE",
"234 165 OFFCURVE",
"233 158 OFFCURVE",
"229 150 CURVE",
"223 134 OFFCURVE",
"213 121 OFFCURVE",
"198 121 CURVE SMOOTH",
"166 121 OFFCURVE",
"143 123 OFFCURVE",
"118 128 CURVE SMOOTH",
"94 131 OFFCURVE",
"69 139 OFFCURVE",
"36 151 CURVE",
"36 153 OFFCURVE",
"35 151 OFFCURVE",
"34 146 CURVE",
"33 143 OFFCURVE",
"33 138 OFFCURVE",
"33 131 CURVE",
"30 119 OFFCURVE",
"29 104 OFFCURVE",
"29 96 CURVE",
"28 89 OFFCURVE",
"28 83 OFFCURVE",
"28 75 CURVE",
"26 68 OFFCURVE",
"25 61 OFFCURVE",
"24 55 CURVE",
"23 43 OFFCURVE",
"21 31 OFFCURVE",
"23 28 CURVE",
"68 8 LINE",
"153 -28 OFFCURVE",
"248 -36 OFFCURVE",
"338 -24 CURVE SMOOTH"
);
}
);
width = 656;
}
);
leftKerningGroup = J;
rightKerningGroup = J;
unicode = 004A;
},
{
glyphname = K;
lastChange = "2016-10-15 12:39:21 +0000";
layers = (
{
anchors = (
{
name = bottom;
position = "{428, 0}";
},
{
name = top;
position = "{428, 676}";
}
);
background = {
paths = (
{
closed = 1;
nodes = (
"403 673 LINE",
"411 673 LINE",
"419 663 LINE",
"421 649 LINE",
"421 634 LINE",
"421 628 LINE",
"421 589 LINE",
"416 518 LINE",
"416 490 LINE",
"425 490 LINE",
"434 493 LINE",
"441 498 LINE",
"448 506 LINE",
"454 511 LINE",
"458 513 LINE",
"488 543 LINE",
"530 583 LINE",
"579 628 LINE",
"624 668 LINE",
"658 694 LINE",
"665 695 LINE",
"668 695 LINE",
"675 688 LINE",
"683 678 LINE",
"690 669 LINE",
"693 668 LINE",
"693 666 LINE",
"704 656 LINE",
"718 643 LINE",
"729 633 LINE",
"731 629 LINE",
"738 619 LINE",
"754 598 LINE",
"771 575 LINE",
"788 553 LINE",
"793 541 LINE",
"793 539 LINE",
"793 529 LINE",
"775 506 LINE",
"753 483 LINE",
"731 463 LINE",
"726 456 LINE",
"724 455 LINE",
"709 443 LINE",
"689 426 LINE",
"668 408 LINE",
"648 390 LINE",
"633 378 LINE",
"631 378 LINE",
"626 373 LINE",
"618 370 LINE",
"613 366 LINE",
"609 361 LINE",
"609 355 LINE",
"609 346 LINE",
"618 331 LINE",
"631 318 LINE",
"646 308 LINE",
"653 301 LINE",
"659 293 LINE",
"689 268 LINE",
"728 233 LINE",
"766 198 LINE",
"798 164 LINE",
"819 136 LINE",
"819 128 LINE",
"819 123 LINE",
"818 114 LINE",
"811 109 LINE",
"794 95 LINE",
"754 73 LINE",
"738 59 LINE",
"725 48 LINE",
"695 21 LINE",
"680 13 LINE",
"673 9 LINE",
"663 4 LINE",
"656 0 LINE",
"646 -6 LINE",
"638 -13 LINE",
"621 -21 LINE",
"596 -21 LINE",
"579 -13 LINE",
"568 -1 LINE",
"568 0 LINE",
"463 121 LINE",
"460 125 LINE",
"448 140 LINE",
"433 156 LINE",
"418 168 LINE",
"416 168 LINE",
"413 168 LINE",
"408 163 LINE",
"408 160 LINE",
"408 155 LINE",
"408 136 LINE",
"408 113 LINE",
"406 85 LINE",
"405 61 LINE",
"405 43 LINE",
"405 38 LINE",
"405 29 LINE",
"406 18 LINE",
"403 8 LINE",
"393 5 LINE",
"383 6 LINE",
"330 3 LINE",
"233 5 LINE",
"180 5 LINE",
"173 5 LINE",
"153 5 LINE",
"133 5 LINE",
"118 6 LINE",
"73 10 LINE",
"70 18 LINE",
"69 18 LINE",
"69 40 LINE",
"68 75 LINE",
"66 119 LINE",
"65 164 LINE",
"64 206 LINE",
"64 220 LINE",
"63 258 LINE",
"56 333 LINE",
"56 370 LINE",
"56 373 LINE",
"58 389 LINE",
"58 408 LINE",
"59 424 LINE",
"59 428 LINE",
"59 429 LINE",
"58 440 LINE",
"58 453 LINE",
"56 464 LINE",
"56 466 LINE",
"56 468 LINE",
"58 486 LINE",
"58 508 LINE",
"59 524 LINE",
"59 528 LINE",
"59 533 LINE",
"59 551 LINE",
"58 576 LINE",
"58 603 LINE",
"56 624 LINE",
"56 640 LINE",
"56 643 LINE",
"54 655 LINE",
"68 668 LINE",
"90 673 LINE",
"116 673 LINE",
"125 673 LINE",
"188 673 LINE",
"283 673 LINE",
"350 673 LINE",
"393 673 LINE"
);
}
);
};
layerId = UUID0;
paths = (
{
closed = 1;
nodes = (
"599 -23 OFFCURVE",
"616 -25 OFFCURVE",
"638 -13 CURVE SMOOTH",
"643 -8 OFFCURVE",
"648 -5 OFFCURVE",
"651 -3 CURVE",
"654 -1 OFFCURVE",
"658 1 OFFCURVE",
"660 3 CURVE SMOOTH",
"665 5 OFFCURVE",
"669 8 OFFCURVE",
"680 13 CURVE SMOOTH",
"690 19 OFFCURVE",
"700 26 OFFCURVE",
"710 35 CURVE SMOOTH",
"730 53 OFFCURVE",
"748 70 OFFCURVE",
"774 84 CURVE SMOOTH",
"788 91 OFFCURVE",
"800 100 OFFCURVE",
"811 109 CURVE",
"819 116 OFFCURVE",
"819 121 OFFCURVE",
"819 128 CURVE SMOOTH",
"819 133 OFFCURVE",
"815 141 OFFCURVE",
"809 150 CURVE SMOOTH",
"795 168 OFFCURVE",
"773 191 OFFCURVE",
"746 215 CURVE SMOOTH",
"720 239 OFFCURVE",
"694 263 OFFCURVE",
"674 280 CURVE SMOOTH",
"664 289 OFFCURVE",
"658 296 OFFCURVE",
"653 301 CURVE SMOOTH",
"648 305 OFFCURVE",
"644 309 OFFCURVE",
"639 313 CURVE",
"633 316 OFFCURVE",
"629 320 OFFCURVE",
"625 325 CURVE SMOOTH",
"616 333 OFFCURVE",
"609 343 OFFCURVE",
"609 355 CURVE SMOOTH",
"609 359 OFFCURVE",
"609 363 OFFCURVE",
"611 364 CURVE",
"613 368 OFFCURVE",
"618 369 OFFCURVE",
"623 373 CURVE",
"628 374 OFFCURVE",
"630 376 OFFCURVE",
"640 384 CURVE SMOOTH",
"645 388 OFFCURVE",
"651 393 OFFCURVE",
"658 398 CURVE",
"664 404 OFFCURVE",
"671 410 OFFCURVE",
"678 418 CURVE SMOOTH",
"693 430 OFFCURVE",
"708 441 OFFCURVE",
"718 449 CURVE SMOOTH",
"723 453 OFFCURVE",
"725 456 OFFCURVE",
"726 456 CURVE",
"729 460 OFFCURVE",
"735 466 OFFCURVE",
"743 473 CURVE SMOOTH",
"750 480 OFFCURVE",
"758 488 OFFCURVE",
"765 495 CURVE SMOOTH",
"779 510 OFFCURVE",
"793 526 OFFCURVE",
"793 539 CURVE SMOOTH",
"793 541 LINE",
"785 558 OFFCURVE",
"774 573 OFFCURVE",
"763 586 CURVE SMOOTH",
"751 601 OFFCURVE",
"739 615 OFFCURVE",
"731 629 CURVE",
"729 631 OFFCURVE",
"728 634 OFFCURVE",
"723 638 CURVE",
"719 641 OFFCURVE",
"715 645 OFFCURVE",
"711 649 CURVE SMOOTH",
"708 654 OFFCURVE",
"703 658 OFFCURVE",
"699 661 CURVE",
"695 665 OFFCURVE",
"693 668 OFFCURVE",
"693 668 CURVE",
"690 669 OFFCURVE",
"689 671 OFFCURVE",
"688 674 CURVE SMOOTH",
"684 678 OFFCURVE",
"681 680 OFFCURVE",
"679 683 CURVE",
"673 689 OFFCURVE",
"668 695 OFFCURVE",
"665 695 CURVE",
"661 694 OFFCURVE",
"653 689 OFFCURVE",
"641 681 CURVE SMOOTH",
"618 663 OFFCURVE",
"588 636 OFFCURVE",
"555 605 CURVE SMOOTH",
"521 574 OFFCURVE",
"493 548 OFFCURVE",
"473 528 CURVE SMOOTH",
"463 518 OFFCURVE",
"458 513 OFFCURVE",
"454 511 CURVE",
"450 508 OFFCURVE",
"448 504 OFFCURVE",
"445 503 CURVE SMOOTH",
"443 500 OFFCURVE",
"440 498 OFFCURVE",
"438 496 CURVE",
"433 493 OFFCURVE",
"428 490 OFFCURVE",
"416 490 CURVE",
"416 508 OFFCURVE",
"418 529 OFFCURVE",
"419 553 CURVE SMOOTH",
"420 578 OFFCURVE",
"421 603 OFFCURVE",
"421 628 CURVE",
"421 631 OFFCURVE",
"421 636 OFFCURVE",
"421 643 CURVE",
"421 648 OFFCURVE",
"421 653 OFFCURVE",
"420 656 CURVE",
"418 666 OFFCURVE",
"414 673 OFFCURVE",
"403 673 CURVE SMOOTH",
"395 673 OFFCURVE",
"385 673 OFFCURVE",
"371 673 CURVE",
"358 673 OFFCURVE",
"339 673 OFFCURVE",
"318 673 CURVE SMOOTH",
"294 673 OFFCURVE",
"268 673 OFFCURVE",
"236 673 CURVE SMOOTH",
"204 673 OFFCURVE",
"168 673 OFFCURVE",
"125 673 CURVE SMOOTH",
"119 673 OFFCURVE",
"111 673 OFFCURVE",
"103 673 CURVE SMOOTH",
"95 673 OFFCURVE",
"88 673 OFFCURVE",
"80 670 CURVE SMOOTH",
"65 668 OFFCURVE",
"54 660 OFFCURVE",
"56 643 CURVE",
"56 641 OFFCURVE",
"56 638 OFFCURVE",
"56 633 CURVE",
"56 628 OFFCURVE",
"56 620 OFFCURVE",
"58 613 CURVE SMOOTH",
"58 598 OFFCURVE",
"58 580 OFFCURVE",
"59 563 CURVE SMOOTH",
"59 555 OFFCURVE",
"59 548 OFFCURVE",
"59 543 CURVE",
"59 535 OFFCURVE",
"59 530 OFFCURVE",
"59 528 CURVE SMOOTH",
"59 523 OFFCURVE",
"59 510 OFFCURVE",
"58 498 CURVE SMOOTH",
"58 483 OFFCURVE",
"56 469 OFFCURVE",
"56 466 CURVE SMOOTH",
"56 464 OFFCURVE",
"58 455 OFFCURVE",
"58 448 CURVE SMOOTH",
"59 438 OFFCURVE",
"59 429 OFFCURVE",
"59 428 CURVE SMOOTH",
"59 423 OFFCURVE",
"59 411 OFFCURVE",
"58 398 CURVE SMOOTH",
"58 393 OFFCURVE",
"58 386 OFFCURVE",
"56 380 CURVE SMOOTH",
"56 375 OFFCURVE",
"56 373 OFFCURVE",
"56 370 CURVE SMOOTH",
"56 345 OFFCURVE",
"58 320 OFFCURVE",
"59 295 CURVE SMOOTH",
"61 270 OFFCURVE",
"63 245 OFFCURVE",
"64 220 CURVE",
"64 201 OFFCURVE",
"65 171 OFFCURVE",
"66 143 CURVE SMOOTH",
"66 126 OFFCURVE",
"66 113 OFFCURVE",
"68 98 CURVE SMOOTH",
"68 83 OFFCURVE",
"68 69 OFFCURVE",
"68 58 CURVE SMOOTH",
"69 46 OFFCURVE",
"69 38 OFFCURVE",
"69 29 CURVE",
"69 23 OFFCURVE",
"69 18 OFFCURVE",
"70 18 CURVE",
"73 10 LINE",
"118 6 LINE",
"118 6 OFFCURVE",
"121 6 OFFCURVE",
"125 6 CURVE",
"130 5 OFFCURVE",
"136 5 OFFCURVE",
"143 5 CURVE SMOOTH",
"149 5 OFFCURVE",
"156 5 OFFCURVE",
"163 5 CURVE",
"170 5 OFFCURVE",
"175 5 OFFCURVE",
"180 5 CURVE SMOOTH",
"214 5 OFFCURVE",
"249 4 OFFCURVE",
"281 4 CURVE SMOOTH",
"314 3 OFFCURVE",
"348 4 OFFCURVE",
"383 6 CURVE",
"389 5 OFFCURVE",
"394 5 OFFCURVE",
"398 8 CURVE",
"404 9 OFFCURVE",
"406 15 OFFCURVE",
"405 23 CURVE",
"405 28 OFFCURVE",
"405 33 OFFCURVE",
"405 38 CURVE SMOOTH",
"405 40 OFFCURVE",
"405 45 OFFCURVE",
"405 51 CURVE",
"405 58 OFFCURVE",
"405 64 OFFCURVE",
"406 73 CURVE",
"406 81 OFFCURVE",
"406 89 OFFCURVE",
"406 99 CURVE SMOOTH",
"408 108 OFFCURVE",
"408 116 OFFCURVE",
"408 124 CURVE",
"408 133 OFFCURVE",
"408 139 OFFCURVE",
"408 146 CURVE",
"408 153 OFFCURVE",
"408 158 OFFCURVE",
"408 160 CURVE SMOOTH",
"408 164 OFFCURVE",
"411 168 OFFCURVE",
"416 168 CURVE SMOOTH",
"418 168 OFFCURVE",
"421 166 OFFCURVE",
"425 163 CURVE",
"430 158 OFFCURVE",
"435 153 OFFCURVE",
"440 148 CURVE",
"450 138 OFFCURVE",
"459 125 OFFCURVE",
"463 121 CURVE",
"568 0 LINE",
"568 -1 OFFCURVE",
"570 -3 OFFCURVE",
"574 -8 CURVE",
"578 -11 OFFCURVE",
"583 -14 OFFCURVE",
"588 -18 CURVE"
);
}
);
width = 854;
}
);
leftKerningGroup = H;
rightKerningGroup = K;
unicode = 004B;
},
{
glyphname = L;
lastChange = "2016-10-15 12:39:21 +0000";
layers = (
{
anchors = (
{
name = bottom;
position = "{313, 0}";
},
{
name = center;
position = "{313, 338}";
},
{
name = top;
position = "{228, 676}";
},
{
name = topright;
position = "{455, 676}";
}
);
background = {
paths = (
{
closed = 1;
nodes = (
"60 248 LINE",
"60 294 LINE",
"59 395 LINE",
"60 489 LINE",
"63 569 LINE",
"64 596 LINE",
"64 606 LINE",
"64 633 LINE",
"69 655 LINE",
"80 673 LINE",
"91 673 LINE",
"134 673 LINE",
"195 671 LINE",
"246 670 LINE",
"294 669 LINE",
"324 669 LINE",
"341 669 LINE",
"368 668 LINE",
"386 660 LINE",
"396 639 LINE",
"396 618 LINE",
"396 618 LINE",
"394 603 LINE",
"393 588 LINE",
"390 574 LINE",
"390 573 LINE",
"390 569 LINE",
"393 553 LINE",
"394 536 LINE",
"396 523 LINE",
"396 484 LINE",
"396 415 LINE",
"396 350 LINE",
"396 288 LINE",
"396 256 LINE",
"396 249 LINE",
"396 240 LINE",
"400 235 LINE",
"409 233 LINE",
"418 233 LINE",
"453 233 LINE",
"530 234 LINE",
"573 234 LINE",
"584 234 LINE",
"598 221 LINE",
"598 214 LINE",
"598 23 LINE",
"598 20 LINE",
"596 13 LINE",
"583 5 LINE",
"555 0 LINE",
"528 0 LINE",
"383 0 LINE",
"340 0 LINE",
"268 0 LINE",
"199 1 LINE",
"128 3 LINE",
"85 3 LINE",
"81 3 LINE",
"73 8 LINE",
"64 14 LINE",
"60 23 LINE",
"60 28 LINE"
);
}
);
};
layerId = UUID0;
paths = (
{
closed = 1;
nodes = (
"528 0 LINE SMOOTH",
"546 0 OFFCURVE",
"560 1 OFFCURVE",
"569 3 CURVE SMOOTH",
"578 4 OFFCURVE",
"585 6 OFFCURVE",
"590 8 CURVE",
"599 13 OFFCURVE",
"598 19 OFFCURVE",
"598 23 CURVE SMOOTH",
"598 214 LINE SMOOTH",
"598 223 OFFCURVE",
"588 234 OFFCURVE",
"573 234 CURVE SMOOTH",
"544 234 OFFCURVE",
"518 234 OFFCURVE",
"491 233 CURVE SMOOTH",
"465 233 OFFCURVE",
"440 233 OFFCURVE",
"418 233 CURVE SMOOTH",
"413 233 OFFCURVE",
"408 233 OFFCURVE",
"405 234 CURVE",
"399 235 OFFCURVE",
"396 238 OFFCURVE",
"396 244 CURVE SMOOTH",
"396 248 OFFCURVE",
"396 251 OFFCURVE",
"396 256 CURVE SMOOTH",
"396 278 OFFCURVE",
"396 298 OFFCURVE",
"396 318 CURVE SMOOTH",
"396 339 OFFCURVE",
"396 360 OFFCURVE",
"396 383 CURVE SMOOTH",
"396 425 OFFCURVE",
"396 471 OFFCURVE",
"396 523 CURVE",
"396 523 OFFCURVE",
"396 525 OFFCURVE",
"395 529 CURVE SMOOTH",
"395 534 OFFCURVE",
"394 539 OFFCURVE",
"393 545 CURVE",
"391 556 OFFCURVE",
"390 568 OFFCURVE",
"390 573 CURVE SMOOTH",
"390 574 OFFCURVE",
"391 585 OFFCURVE",
"393 595 CURVE",
"394 601 OFFCURVE",
"395 605 OFFCURVE",
"395 610 CURVE SMOOTH",
"396 614 OFFCURVE",
"396 618 OFFCURVE",
"396 618 CURVE SMOOTH",
"396 646 OFFCURVE",
"389 658 OFFCURVE",
"378 664 CURVE SMOOTH",
"365 670 OFFCURVE",
"346 669 OFFCURVE",
"324 669 CURVE SMOOTH",
"304 669 OFFCURVE",
"286 669 OFFCURVE",
"270 669 CURVE SMOOTH",
"254 670 OFFCURVE",
"238 670 OFFCURVE",
"221 670 CURVE SMOOTH",
"188 671 OFFCURVE",
"148 673 OFFCURVE",
"91 673 CURVE SMOOTH",
"84 673 OFFCURVE",
"78 669 OFFCURVE",
"75 664 CURVE",
"68 653 OFFCURVE",
"64 636 OFFCURVE",
"64 619 CURVE SMOOTH",
"64 610 OFFCURVE",
"64 603 OFFCURVE",
"64 596 CURVE",
"63 578 OFFCURVE",
"61 556 OFFCURVE",
"61 529 CURVE SMOOTH",
"59 476 OFFCURVE",
"59 411 OFFCURVE",
"60 344 CURVE SMOOTH",
"60 311 OFFCURVE",
"60 279 OFFCURVE",
"60 248 CURVE SMOOTH",
"60 28 LINE SMOOTH",
"60 23 OFFCURVE",
"63 16 OFFCURVE",
"68 11 CURVE SMOOTH",
"73 6 OFFCURVE",
"80 3 OFFCURVE",
"85 3 CURVE SMOOTH",
"141 3 OFFCURVE",
"188 1 OFFCURVE",
"233 1 CURVE SMOOTH",
"280 0 OFFCURVE",
"326 0 OFFCURVE",
"383 0 CURVE SMOOTH"
);
}
);
width = 625;
}
);
leftKerningGroup = H;
rightKerningGroup = L;
unicode = 004C;
},
{
glyphname = Lslash;
lastChange = "2016-10-15 12:39:21 +0000";
layers = (
{
background = {
paths = (
{
closed = 1;
nodes = (
"101 248 LINE",
"101 265 LINE",
"89 263 LINE",
"70 259 LINE",
"55 263 LINE",
"46 271 LINE",
"46 281 LINE",
"46 303 LINE",
"46 338 LINE",
"45 371 LINE",
"45 405 LINE",
"45 428 LINE",
"45 433 LINE",
"50 443 LINE",
"58 453 LINE",
"68 459 LINE",
"71 460 LINE",
"79 463 LINE",
"93 466 LINE",
"100 468 LINE",
"101 508 LINE",
"103 573 LINE",
"105 596 LINE",
"105 606 LINE",
"105 633 LINE",
"110 655 LINE",
"121 673 LINE",
"133 673 LINE",
"175 673 LINE",
"236 671 LINE",
"288 670 LINE",
"335 669 LINE",
"365 669 LINE",
"383 669 LINE",
"409 668 LINE",
"428 660 LINE",
"438 639 LINE",
"438 618 LINE",
"438 618 LINE",
"435 603 LINE",
"433 588 LINE",
"431 574 LINE",
"431 573 LINE",
"431 570 LINE",
"431 564 LINE",
"433 561 LINE",
"451 564 LINE",
"484 570 LINE",
"504 575 LINE",
"514 578 LINE",
"535 583 LINE",
"553 581 LINE",
"565 573 LINE",
"565 564 LINE",
"565 543 LINE",
"564 513 LINE",
"563 486 LINE",
"563 461 LINE",
"563 446 LINE",
"563 433 LINE",
"560 413 LINE",
"550 396 LINE",
"529 383 LINE",
"511 378 LINE",
"508 378 LINE",
"504 375 LINE",
"501 374 LINE",
"496 371 LINE",
"495 371 LINE",
"445 358 LINE",
"438 356 LINE",
"438 256 LINE",
"438 249 LINE",
"438 240 LINE",
"441 235 LINE",
"450 233 LINE",
"458 233 LINE",
"493 233 LINE",
"571 234 LINE",
"614 234 LINE",
"625 234 LINE",
"639 221 LINE",
"639 214 LINE",
"639 23 LINE",
"639 20 LINE",
"638 13 LINE",
"624 5 LINE",
"596 0 LINE",
"569 0 LINE",
"423 0 LINE",
"381 0 LINE",
"309 0 LINE",
"240 1 LINE",
"168 3 LINE",
"126 3 LINE",
"123 3 LINE",
"113 8 LINE",
"105 14 LINE",
"101 23 LINE",
"101 28 LINE"
);
}
);
};
layerId = UUID0;
paths = (
{
closed = 1;
nodes = (
"569 0 LINE SMOOTH",
"588 0 OFFCURVE",
"601 1 OFFCURVE",
"610 3 CURVE SMOOTH",
"619 4 OFFCURVE",
"626 6 OFFCURVE",
"631 8 CURVE",
"640 13 OFFCURVE",
"639 19 OFFCURVE",
"639 23 CURVE SMOOTH",
"639 214 LINE SMOOTH",
"639 223 OFFCURVE",
"628 234 OFFCURVE",
"614 234 CURVE SMOOTH",
"585 234 OFFCURVE",
"558 234 OFFCURVE",
"533 233 CURVE SMOOTH",
"506 233 OFFCURVE",
"481 233 OFFCURVE",
"458 233 CURVE SMOOTH",
"453 233 OFFCURVE",
"448 233 OFFCURVE",
"446 234 CURVE",
"440 235 OFFCURVE",
"438 238 OFFCURVE",
"438 244 CURVE SMOOTH",
"438 248 OFFCURVE",
"438 251 OFFCURVE",
"438 256 CURVE SMOOTH",
"438 356 LINE",
"445 358 LINE",
"495 371 LINE",
"495 371 OFFCURVE",
"498 373 OFFCURVE",
"499 373 CURVE",
"500 373 OFFCURVE",
"503 374 OFFCURVE",
"504 375 CURVE",
"506 376 OFFCURVE",
"508 378 OFFCURVE",
"511 378 CURVE",
"535 384 OFFCURVE",
"548 393 OFFCURVE",
"555 404 CURVE SMOOTH",
"561 415 OFFCURVE",
"563 428 OFFCURVE",
"563 446 CURVE SMOOTH",
"563 456 OFFCURVE",
"563 465 OFFCURVE",
"563 474 CURVE SMOOTH",
"563 483 OFFCURVE",
"563 490 OFFCURVE",
"563 499 CURVE SMOOTH",
"564 516 OFFCURVE",
"565 535 OFFCURVE",
"565 564 CURVE SMOOTH",
"565 576 OFFCURVE",
"556 581 OFFCURVE",
"544 583 CURVE SMOOTH",
"533 583 OFFCURVE",
"518 579 OFFCURVE",
"504 575 CURVE SMOOTH",
"491 573 OFFCURVE",
"479 569 OFFCURVE",
"468 568 CURVE SMOOTH",
"458 565 OFFCURVE",
"444 563 OFFCURVE",
"433 561 CURVE",
"431 563 OFFCURVE",
"431 565 OFFCURVE",
"431 568 CURVE SMOOTH",
"431 569 OFFCURVE",
"431 571 OFFCURVE",
"431 573 CURVE SMOOTH",
"431 574 OFFCURVE",
"433 585 OFFCURVE",
"434 595 CURVE",
"435 601 OFFCURVE",
"436 605 OFFCURVE",
"436 610 CURVE SMOOTH",
"438 614 OFFCURVE",
"438 618 OFFCURVE",
"438 618 CURVE SMOOTH",
"438 646 OFFCURVE",
"430 658 OFFCURVE",
"418 664 CURVE SMOOTH",
"406 670 OFFCURVE",
"388 669 OFFCURVE",
"365 669 CURVE SMOOTH",
"345 669 OFFCURVE",
"328 669 OFFCURVE",
"311 669 CURVE SMOOTH",
"295 670 OFFCURVE",
"278 670 OFFCURVE",
"263 670 CURVE SMOOTH",
"228 671 OFFCURVE",
"189 673 OFFCURVE",
"133 673 CURVE SMOOTH",
"125 673 OFFCURVE",
"119 669 OFFCURVE",
"116 664 CURVE",
"108 653 OFFCURVE",
"105 636 OFFCURVE",
"105 619 CURVE SMOOTH",
"105 610 OFFCURVE",
"105 603 OFFCURVE",
"105 596 CURVE",
"103 565 OFFCURVE",
"101 521 OFFCURVE",
"100 468 CURVE",
"96 468 OFFCURVE",
"91 465 OFFCURVE",
"86 464 CURVE SMOOTH",
"81 463 OFFCURVE",
"76 461 OFFCURVE",
"71 460 CURVE",
"65 458 OFFCURVE",
"59 453 OFFCURVE",
"54 448 CURVE SMOOTH",
"48 440 OFFCURVE",
"45 433 OFFCURVE",
"45 428 CURVE SMOOTH",
"45 398 OFFCURVE",
"45 376 OFFCURVE",
"46 354 CURVE SMOOTH",
"46 333 OFFCURVE",
"46 311 OFFCURVE",
"46 281 CURVE SMOOTH",
"46 268 OFFCURVE",
"53 263 OFFCURVE",
"63 261 CURVE",
"73 259 OFFCURVE",
"85 261 OFFCURVE",
"101 265 CURVE",
"101 248 LINE",
"101 28 LINE SMOOTH",
"101 23 OFFCURVE",
"104 16 OFFCURVE",
"109 11 CURVE SMOOTH",
"114 6 OFFCURVE",
"121 3 OFFCURVE",
"126 3 CURVE SMOOTH",
"183 3 OFFCURVE",
"228 1 OFFCURVE",
"274 1 CURVE SMOOTH",
"321 0 OFFCURVE",
"368 0 OFFCURVE",
"423 0 CURVE SMOOTH"
);
}
);
width = 676;
}
);
leftKerningGroup = H;
rightKerningGroup = L;
unicode = 0141;
},
{
glyphname = M;
lastChange = "2016-10-15 12:39:21 +0000";
layers = (
{
anchors = (
{
name = bottom;
position = "{508, 0}";
},
{
name = top;
position = "{508, 676}";
}
);
background = {
paths = (
{
closed = 1;
nodes = (
"519 434 LINE",
"520 436 LINE",
"533 463 LINE",
"550 503 LINE",
"571 548 LINE",
"590 589 LINE",
"604 620 LINE",
"606 625 LINE",
"609 633 LINE",
"620 649 LINE",
"629 663 LINE",
"638 673 LINE",
"641 673 LINE",
"658 673 LINE",
"779 673 LINE",
"888 673 LINE",
"898 673 LINE",
"908 673 LINE",
"918 673 LINE",
"934 673 LINE",
"948 673 LINE",
"950 673 LINE",
"953 643 LINE",
"955 593 LINE",
"958 528 LINE",
"958 460 LINE",
"958 396 LINE",
"958 370 LINE",
"958 333 LINE",
"953 258 LINE",
"949 220 LINE",
"949 206 LINE",
"950 164 LINE",
"950 119 LINE",
"951 75 LINE",
"953 40 LINE",
"953 18 LINE",
"953 18 LINE",
"950 10 LINE",
"905 -1 LINE",
"904 -1 LINE",
"890 -1 LINE",
"870 -1 LINE",
"849 -3 LINE",
"843 -3 LINE",
"823 -3 LINE",
"785 0 LINE",
"749 1 LINE",
"711 4 LINE",
"691 6 LINE",
"690 6 LINE",
"683 5 LINE",
"680 5 LINE",
"676 5 LINE",
"671 26 LINE",
"668 61 LINE",
"668 108 LINE",
"666 161 LINE",
"665 215 LINE",
"665 240 LINE",
"665 243 LINE",
"661 248 LINE",
"658 248 LINE",
"654 248 LINE",
"646 228 LINE",
"635 201 LINE",
"625 171 LINE",
"621 163 LINE",
"620 160 LINE",
"613 143 LINE",
"600 119 LINE",
"585 93 LINE",
"566 71 LINE",
"546 56 LINE",
"535 56 LINE",
"529 56 LINE",
"510 56 LINE",
"489 58 LINE",
"468 58 LINE",
"458 58 LINE",
"430 103 LINE",
"394 173 LINE",
"373 223 LINE",
"363 248 LINE",
"360 248 LINE",
"356 248 LINE",
"353 243 LINE",
"353 240 LINE",
"353 219 LINE",
"353 168 LINE",
"353 115 LINE",
"350 65 LINE",
"348 28 LINE",
"341 5 LINE",
"338 5 LINE",
"334 5 LINE",
"328 6 LINE",
"326 6 LINE",
"286 3 LINE",
"214 -3 LINE",
"174 -3 LINE",
"168 -3 LINE",
"146 -1 LINE",
"128 -1 LINE",
"113 -1 LINE",
"68 10 LINE",
"64 18 LINE",
"63 18 LINE",
"63 40 LINE",
"61 75 LINE",
"60 119 LINE",
"59 164 LINE",
"58 206 LINE",
"58 220 LINE",
"59 273 LINE",
"63 373 LINE",
"63 428 LINE",
"63 429 LINE",
"63 440 LINE",
"61 453 LINE",
"60 464 LINE",
"60 466 LINE",
"60 481 LINE",
"63 505 LINE",
"63 530 LINE",
"65 560 LINE",
"65 580 LINE",
"65 583 LINE",
"64 598 LINE",
"63 616 LINE",
"63 631 LINE",
"63 634 LINE",
"63 635 LINE",
"60 640 LINE",
"60 641 LINE",
"60 653 LINE",
"78 665 LINE",
"100 671 LINE",
"123 673 LINE",
"129 673 LINE",
"238 673 LINE",
"359 673 LINE",
"376 673 LINE",
"378 673 LINE",
"388 663 LINE",
"398 649 LINE",
"408 633 LINE",
"411 625 LINE",
"413 620 LINE",
"425 588 LINE",
"441 548 LINE",
"459 501 LINE",
"475 463 LINE",
"486 435 LINE",
"488 434 LINE",
"495 418 LINE",
"503 418 LINE",
"508 418 LINE",
"518 428 LINE"
);
}
);
};
layerId = UUID0;
paths = (
{
closed = 1;
nodes = (
"228 -3 OFFCURVE",
"273 3 OFFCURVE",
"326 6 CURVE",
"326 6 OFFCURVE",
"328 6 OFFCURVE",
"331 5 CURVE SMOOTH",
"333 5 OFFCURVE",
"335 5 OFFCURVE",
"338 5 CURVE SMOOTH",
"340 5 OFFCURVE",
"343 9 OFFCURVE",
"344 18 CURVE SMOOTH",
"348 33 OFFCURVE",
"350 58 OFFCURVE",
"351 90 CURVE SMOOTH",
"353 123 OFFCURVE",
"353 158 OFFCURVE",
"353 193 CURVE SMOOTH",
"353 210 OFFCURVE",
"353 226 OFFCURVE",
"353 240 CURVE SMOOTH",
"353 244 OFFCURVE",
"354 248 OFFCURVE",
"360 248 CURVE SMOOTH",
"361 248 OFFCURVE",
"364 244 OFFCURVE",
"368 235 CURVE SMOOTH",
"371 228 OFFCURVE",
"376 214 OFFCURVE",
"383 198 CURVE SMOOTH",
"398 165 OFFCURVE",
"420 118 OFFCURVE",
"458 58 CURVE",
"464 58 OFFCURVE",
"471 58 OFFCURVE",
"478 58 CURVE",
"485 58 OFFCURVE",
"493 58 OFFCURVE",
"500 58 CURVE",
"508 56 OFFCURVE",
"514 56 OFFCURVE",
"520 56 CURVE SMOOTH",
"526 56 OFFCURVE",
"531 56 OFFCURVE",
"535 56 CURVE SMOOTH",
"543 56 OFFCURVE",
"549 59 OFFCURVE",
"556 63 CURVE SMOOTH",
"570 73 OFFCURVE",
"583 88 OFFCURVE",
"593 106 CURVE SMOOTH",
"603 124 OFFCURVE",
"611 140 OFFCURVE",
"616 151 CURVE SMOOTH",
"619 158 OFFCURVE",
"620 161 OFFCURVE",
"621 163 CURVE",
"624 168 OFFCURVE",
"626 176 OFFCURVE",
"630 186 CURVE SMOOTH",
"638 206 OFFCURVE",
"644 225 OFFCURVE",
"650 238 CURVE SMOOTH",
"653 245 OFFCURVE",
"655 248 OFFCURVE",
"658 248 CURVE SMOOTH",
"663 248 OFFCURVE",
"665 244 OFFCURVE",
"665 240 CURVE SMOOTH",
"665 223 OFFCURVE",
"665 206 OFFCURVE",
"666 188 CURVE SMOOTH",
"666 153 OFFCURVE",
"668 116 OFFCURVE",
"668 84 CURVE SMOOTH",
"668 53 OFFCURVE",
"670 29 OFFCURVE",
"674 16 CURVE",
"675 8 OFFCURVE",
"678 5 OFFCURVE",
"680 5 CURVE SMOOTH",
"683 5 OFFCURVE",
"684 5 OFFCURVE",
"688 5 CURVE SMOOTH",
"689 6 OFFCURVE",
"690 6 OFFCURVE",
"691 6 CURVE",
"704 5 OFFCURVE",
"718 4 OFFCURVE",
"730 3 CURVE SMOOTH",
"743 3 OFFCURVE",
"755 1 OFFCURVE",
"768 0 CURVE SMOOTH",
"793 -1 OFFCURVE",
"816 -3 OFFCURVE",
"843 -3 CURVE SMOOTH",
"848 -3 OFFCURVE",
"853 -3 OFFCURVE",
"860 -1 CURVE",
"868 -1 OFFCURVE",
"874 -1 OFFCURVE",
"880 -1 CURVE SMOOTH",
"886 -1 OFFCURVE",
"893 -1 OFFCURVE",
"898 -1 CURVE",
"903 -1 OFFCURVE",
"904 -1 OFFCURVE",
"905 -1 CURVE",
"950 10 LINE",
"953 18 LINE",
"953 18 OFFCURVE",
"953 23 OFFCURVE",
"953 29 CURVE",
"953 38 OFFCURVE",
"953 46 OFFCURVE",
"953 58 CURVE",
"951 69 OFFCURVE",
"951 83 OFFCURVE",
"951 98 CURVE SMOOTH",
"950 113 OFFCURVE",
"950 126 OFFCURVE",
"950 143 CURVE",
"950 158 OFFCURVE",
"950 171 OFFCURVE",
"949 185 CURVE SMOOTH",
"949 199 OFFCURVE",
"949 210 OFFCURVE",
"949 220 CURVE",
"953 269 OFFCURVE",
"958 321 OFFCURVE",
"958 370 CURVE SMOOTH",
"958 388 OFFCURVE",
"958 408 OFFCURVE",
"958 428 CURVE SMOOTH",
"958 471 OFFCURVE",
"958 518 OFFCURVE",
"956 560 CURVE SMOOTH",
"955 603 OFFCURVE",
"954 638 OFFCURVE",
"953 658 CURVE SMOOTH",
"951 668 OFFCURVE",
"949 673 OFFCURVE",
"948 673 CURVE SMOOTH",
"938 673 OFFCURVE",
"931 673 OFFCURVE",
"926 673 CURVE",
"921 673 OFFCURVE",
"918 673 OFFCURVE",
"913 673 CURVE SMOOTH",
"910 673 OFFCURVE",
"906 673 OFFCURVE",
"903 673 CURVE",
"899 673 OFFCURVE",
"894 673 OFFCURVE",
"888 673 CURVE SMOOTH",
"815 673 OFFCURVE",
"759 673 OFFCURVE",
"719 673 CURVE SMOOTH",
"678 673 OFFCURVE",
"653 673 OFFCURVE",
"641 673 CURVE SMOOTH",
"639 673 OFFCURVE",
"638 670 OFFCURVE",
"634 668 CURVE SMOOTH",
"631 665 OFFCURVE",
"628 661 OFFCURVE",
"625 656 CURVE",
"618 646 OFFCURVE",
"610 635 OFFCURVE",
"606 625 CURVE SMOOTH",
"604 623 OFFCURVE",
"603 615 OFFCURVE",
"598 604 CURVE",
"593 594 OFFCURVE",
"588 583 OFFCURVE",
"581 568 CURVE SMOOTH",
"568 541 OFFCURVE",
"553 508 OFFCURVE",
"541 483 CURVE SMOOTH",
"535 469 OFFCURVE",
"530 458 OFFCURVE",
"526 450 CURVE SMOOTH",
"521 440 OFFCURVE",
"520 436 OFFCURVE",
"519 434 CURVE",
"516 426 OFFCURVE",
"510 418 OFFCURVE",
"503 418 CURVE SMOOTH",
"498 418 OFFCURVE",
"493 423 OFFCURVE",
"488 434 CURVE",
"488 435 OFFCURVE",
"484 439 OFFCURVE",
"481 449 CURVE",
"478 458 OFFCURVE",
"473 468 OFFCURVE",
"468 481 CURVE SMOOTH",
"463 495 OFFCURVE",
"458 509 OFFCURVE",
"450 524 CURVE SMOOTH",
"438 555 OFFCURVE",
"428 583 OFFCURVE",
"419 604 CURVE SMOOTH",
"411 625 OFFCURVE",
"408 629 OFFCURVE",
"403 641 CURVE SMOOTH",
"396 653 OFFCURVE",
"389 663 OFFCURVE",
"383 668 CURVE SMOOTH",
"380 670 OFFCURVE",
"378 673 OFFCURVE",
"376 673 CURVE SMOOTH",
"365 673 OFFCURVE",
"339 673 OFFCURVE",
"298 673 CURVE SMOOTH",
"258 673 OFFCURVE",
"203 673 OFFCURVE",
"129 673 CURVE SMOOTH",
"121 673 OFFCURVE",
"104 673 OFFCURVE",
"88 668 CURVE SMOOTH",
"73 664 OFFCURVE",
"60 655 OFFCURVE",
"60 641 CURVE SMOOTH",
"60 639 OFFCURVE",
"63 635 OFFCURVE",
"63 634 CURVE",
"63 630 OFFCURVE",
"63 619 OFFCURVE",
"64 608 CURVE SMOOTH",
"64 595 OFFCURVE",
"65 584 OFFCURVE",
"65 580 CURVE SMOOTH",
"65 553 OFFCURVE",
"64 535 OFFCURVE",
"63 518 CURVE SMOOTH",
"61 500 OFFCURVE",
"60 486 OFFCURVE",
"60 466 CURVE SMOOTH",
"60 465 OFFCURVE",
"60 463 OFFCURVE",
"61 459 CURVE SMOOTH",
"61 455 OFFCURVE",
"61 451 OFFCURVE",
"63 448 CURVE SMOOTH",
"63 443 OFFCURVE",
"63 438 OFFCURVE",
"63 435 CURVE SMOOTH",
"63 431 OFFCURVE",
"63 428 OFFCURVE",
"63 428 CURVE SMOOTH",
"63 390 OFFCURVE",
"63 355 OFFCURVE",
"61 323 CURVE SMOOTH",
"60 289 OFFCURVE",
"58 255 OFFCURVE",
"58 220 CURVE",
"58 201 OFFCURVE",
"59 171 OFFCURVE",
"60 143 CURVE SMOOTH",
"60 126 OFFCURVE",
"60 113 OFFCURVE",
"61 98 CURVE SMOOTH",
"61 68 OFFCURVE",
"63 44 OFFCURVE",
"63 29 CURVE SMOOTH",
"63 23 OFFCURVE",
"63 18 OFFCURVE",
"64 18 CURVE",
"68 10 LINE",
"113 -1 LINE",
"113 -1 OFFCURVE",
"115 -1 OFFCURVE",
"120 -1 CURVE",
"125 -1 OFFCURVE",
"130 -1 OFFCURVE",
"138 -1 CURVE SMOOTH",
"143 -1 OFFCURVE",
"150 -1 OFFCURVE",
"158 -1 CURVE",
"164 -3 OFFCURVE",
"169 -3 OFFCURVE",
"174 -3 CURVE SMOOTH"
);
}
);
width = 1015;
}
);
leftKerningGroup = M;
rightKerningGroup = M;
unicode = 004D;
},
{
glyphname = N;
lastChange = "2016-10-15 12:39:21 +0000";
layers = (
{
anchors = (
{
name = bottom;
position = "{438, 0}";
},
{
name = top;
position = "{438, 676}";
}
);
background = {
paths = (
{
closed = 1;
nodes = (
"813 224 LINE",
"813 168 LINE",
"813 91 LINE",
"811 41 LINE",
"806 14 LINE",
"798 1 LINE",
"785 -1 LINE",
"776 -1 LINE",
"741 0 LINE",
"688 0 LINE",
"623 0 LINE",
"594 0 LINE",
"588 0 LINE",
"570 -1 LINE",
"550 1 LINE",
"529 9 LINE",
"520 18 LINE",
"418 161 LINE",
"416 165 LINE",
"403 186 LINE",
"388 209 LINE",
"375 228 LINE",
"373 228 LINE",
"368 228 LINE",
"364 223 LINE",
"364 220 LINE",
"364 213 LINE",
"363 184 LINE",
"363 146 LINE",
"363 106 LINE",
"361 70 LINE",
"361 43 LINE",
"361 38 LINE",
"361 29 LINE",
"363 18 LINE",
"358 8 LINE",
"349 5 LINE",
"338 6 LINE",
"298 3 LINE",
"226 -3 LINE",
"186 -3 LINE",
"179 -3 LINE",
"159 -1 LINE",
"139 -1 LINE",
"124 -1 LINE",
"79 10 LINE",
"76 18 LINE",
"75 18 LINE",
"74 40 LINE",
"73 75 LINE",
"73 119 LINE",
"71 164 LINE",
"70 206 LINE",
"70 220 LINE",
"64 271 LINE",
"63 375 LINE",
"64 478 LINE",
"66 583 LINE",
"65 634 LINE",
"63 646 LINE",
"70 663 LINE",
"85 670 LINE",
"104 673 LINE",
"113 673 LINE",
"165 673 LINE",
"248 678 LINE",
"308 681 LINE",
"343 679 LINE",
"348 673 LINE",
"351 668 LINE",
"369 643 LINE",
"396 603 LINE",
"428 555 LINE",
"463 503 LINE",
"496 453 LINE",
"511 430 LINE",
"511 448 LINE",
"513 493 LINE",
"513 541 LINE",
"514 588 LINE",
"515 624 LINE",
"518 646 LINE",
"518 648 LINE",
"520 649 LINE",
"528 658 LINE",
"541 665 LINE",
"556 670 LINE",
"564 670 LINE",
"621 670 LINE",
"623 670 LINE",
"645 669 LINE",
"678 669 LINE",
"714 668 LINE",
"748 668 LINE",
"769 668 LINE",
"770 668 LINE",
"781 668 LINE",
"799 664 LINE",
"810 655 LINE",
"816 639 LINE",
"816 625 LINE",
"816 623 LINE",
"814 608 LINE",
"813 590 LINE",
"813 575 LINE",
"813 571 LINE",
"813 568 LINE",
"815 558 LINE",
"815 553 LINE",
"815 545 LINE",
"814 496 LINE",
"814 428 LINE",
"813 351 LINE",
"813 283 LINE",
"813 231 LINE"
);
}
);
};
layerId = UUID0;
paths = (
{
closed = 1;
nodes = (
"239 -3 OFFCURVE",
"285 3 OFFCURVE",
"338 6 CURVE",
"345 5 OFFCURVE",
"350 5 OFFCURVE",
"354 8 CURVE",
"360 9 OFFCURVE",
"363 15 OFFCURVE",
"361 23 CURVE",
"361 28 OFFCURVE",
"361 33 OFFCURVE",
"361 38 CURVE SMOOTH",
"361 41 OFFCURVE",
"361 48 OFFCURVE",
"361 58 CURVE",
"361 66 OFFCURVE",
"361 76 OFFCURVE",
"363 88 CURVE",
"363 100 OFFCURVE",
"363 113 OFFCURVE",
"363 126 CURVE SMOOTH",
"363 140 OFFCURVE",
"363 153 OFFCURVE",
"363 165 CURVE",
"363 178 OFFCURVE",
"363 188 OFFCURVE",
"364 198 CURVE",
"364 208 OFFCURVE",
"364 215 OFFCURVE",
"364 220 CURVE SMOOTH",
"364 224 OFFCURVE",
"366 228 OFFCURVE",
"373 228 CURVE SMOOTH",
"374 228 OFFCURVE",
"378 225 OFFCURVE",
"381 219 CURVE",
"386 213 OFFCURVE",
"391 206 OFFCURVE",
"396 198 CURVE SMOOTH",
"405 183 OFFCURVE",
"416 166 OFFCURVE",
"418 161 CURVE",
"520 18 LINE",
"526 13 OFFCURVE",
"533 8 OFFCURVE",
"540 5 CURVE",
"554 0 OFFCURVE",
"568 -1 OFFCURVE",
"579 0 CURVE SMOOTH",
"585 0 OFFCURVE",
"590 0 OFFCURVE",
"594 0 CURVE SMOOTH",
"613 0 OFFCURVE",
"633 0 OFFCURVE",
"655 0 CURVE SMOOTH",
"676 0 OFFCURVE",
"696 0 OFFCURVE",
"714 0 CURVE SMOOTH",
"733 0 OFFCURVE",
"748 0 OFFCURVE",
"759 0 CURVE",
"771 -1 OFFCURVE",
"776 -1 OFFCURVE",
"776 -1 CURVE",
"783 -1 OFFCURVE",
"788 0 OFFCURVE",
"793 0 CURVE",
"800 3 OFFCURVE",
"806 9 OFFCURVE",
"809 28 CURVE SMOOTH",
"810 38 OFFCURVE",
"811 49 OFFCURVE",
"813 66 CURVE SMOOTH",
"813 100 OFFCURVE",
"813 149 OFFCURVE",
"813 224 CURVE SMOOTH",
"813 229 OFFCURVE",
"813 240 OFFCURVE",
"813 258 CURVE SMOOTH",
"813 273 OFFCURVE",
"813 293 OFFCURVE",
"813 316 CURVE SMOOTH",
"813 339 OFFCURVE",
"813 363 OFFCURVE",
"814 389 CURVE SMOOTH",
"814 415 OFFCURVE",
"814 439 OFFCURVE",
"814 463 CURVE SMOOTH",
"814 484 OFFCURVE",
"814 504 OFFCURVE",
"815 521 CURVE SMOOTH",
"815 538 OFFCURVE",
"815 548 OFFCURVE",
"815 553 CURVE SMOOTH",
"815 555 OFFCURVE",
"814 559 OFFCURVE",
"813 563 CURVE",
"813 565 OFFCURVE",
"813 568 OFFCURVE",
"813 571 CURVE SMOOTH",
"813 573 OFFCURVE",
"813 578 OFFCURVE",
"813 583 CURVE SMOOTH",
"813 588 OFFCURVE",
"813 593 OFFCURVE",
"814 599 CURVE SMOOTH",
"814 604 OFFCURVE",
"815 610 OFFCURVE",
"815 615 CURVE SMOOTH",
"816 620 OFFCURVE",
"816 623 OFFCURVE",
"816 625 CURVE SMOOTH",
"816 643 OFFCURVE",
"813 654 OFFCURVE",
"805 660 CURVE SMOOTH",
"798 666 OFFCURVE",
"785 668 OFFCURVE",
"770 668 CURVE SMOOTH",
"769 668 OFFCURVE",
"765 668 OFFCURVE",
"758 668 CURVE",
"750 668 OFFCURVE",
"741 668 OFFCURVE",
"730 668 CURVE",
"720 668 OFFCURVE",
"708 668 OFFCURVE",
"696 668 CURVE SMOOTH",
"683 669 OFFCURVE",
"671 669 OFFCURVE",
"661 669 CURVE",
"650 669 OFFCURVE",
"641 669 OFFCURVE",
"633 670 CURVE",
"626 670 OFFCURVE",
"623 670 OFFCURVE",
"621 670 CURVE SMOOTH",
"564 670 LINE",
"559 670 OFFCURVE",
"553 669 OFFCURVE",
"548 668 CURVE",
"538 664 OFFCURVE",
"530 658 OFFCURVE",
"524 653 CURVE SMOOTH",
"518 648 OFFCURVE",
"518 650 OFFCURVE",
"516 635 CURVE SMOOTH",
"515 620 OFFCURVE",
"514 595 OFFCURVE",
"513 564 CURVE SMOOTH",
"513 533 OFFCURVE",
"513 501 OFFCURVE",
"513 471 CURVE SMOOTH",
"511 456 OFFCURVE",
"511 443 OFFCURVE",
"511 430 CURVE",
"501 445 OFFCURVE",
"490 461 OFFCURVE",
"479 478 CURVE SMOOTH",
"456 513 OFFCURVE",
"433 548 OFFCURVE",
"413 579 CURVE SMOOTH",
"390 611 OFFCURVE",
"373 638 OFFCURVE",
"360 655 CURVE SMOOTH",
"348 673 OFFCURVE",
"348 679 OFFCURVE",
"325 680 CURVE SMOOTH",
"301 683 OFFCURVE",
"261 679 OFFCURVE",
"208 675 CURVE SMOOTH",
"179 674 OFFCURVE",
"148 673 OFFCURVE",
"113 673 CURVE SMOOTH",
"101 673 OFFCURVE",
"88 673 OFFCURVE",
"78 668 CURVE SMOOTH",
"68 661 OFFCURVE",
"63 651 OFFCURVE",
"65 634 CURVE",
"66 599 OFFCURVE",
"66 564 OFFCURVE",
"65 530 CURVE SMOOTH",
"64 495 OFFCURVE",
"64 461 OFFCURVE",
"63 428 CURVE SMOOTH",
"63 358 OFFCURVE",
"63 289 OFFCURVE",
"70 220 CURVE",
"70 210 OFFCURVE",
"70 199 OFFCURVE",
"70 185 CURVE SMOOTH",
"71 171 OFFCURVE",
"71 158 OFFCURVE",
"71 143 CURVE SMOOTH",
"73 126 OFFCURVE",
"73 113 OFFCURVE",
"73 98 CURVE SMOOTH",
"73 68 OFFCURVE",
"74 44 OFFCURVE",
"75 29 CURVE SMOOTH",
"75 23 OFFCURVE",
"75 18 OFFCURVE",
"76 18 CURVE",
"79 10 LINE",
"124 -1 LINE",
"124 -1 OFFCURVE",
"126 -1 OFFCURVE",
"133 -1 CURVE",
"138 -1 OFFCURVE",
"143 -1 OFFCURVE",
"149 -1 CURVE SMOOTH",
"155 -1 OFFCURVE",
"163 -1 OFFCURVE",
"169 -1 CURVE",
"176 -3 OFFCURVE",
"181 -3 OFFCURVE",
"186 -3 CURVE SMOOTH"
);
}
);
width = 873;
}
);
leftKerningGroup = H;
rightKerningGroup = H;
unicode = 004E;
},
{
glyphname = Eng;
lastChange = "2016-10-15 12:39:21 +0000";
layers = (
{
background = {
paths = (
{
closed = 1;
nodes = (
"418 161 LINE",
"416 165 LINE",
"403 186 LINE",
"388 209 LINE",
"375 228 LINE",
"373 228 LINE",
"368 228 LINE",
"364 223 LINE",
"364 220 LINE",
"364 213 LINE",
"363 184 LINE",
"363 146 LINE",
"363 106 LINE",
"361 70 LINE",
"361 43 LINE",
"361 38 LINE",
"361 29 LINE",
"363 18 LINE",
"358 8 LINE",
"349 5 LINE",
"338 6 LINE",
"298 3 LINE",
"226 -3 LINE",
"186 -3 LINE",
"179 -3 LINE",
"159 -1 LINE",
"139 -1 LINE",
"124 -1 LINE",
"79 10 LINE",
"76 18 LINE",
"75 18 LINE",
"74 40 LINE",
"73 75 LINE",
"73 119 LINE",
"71 164 LINE",
"70 206 LINE",
"70 220 LINE",
"64 271 LINE",
"63 375 LINE",
"64 478 LINE",
"66 583 LINE",
"65 634 LINE",
"63 646 LINE",
"70 663 LINE",
"85 670 LINE",
"104 673 LINE",
"113 673 LINE",
"165 673 LINE",
"248 678 LINE",
"308 681 LINE",
"343 679 LINE",
"348 673 LINE",
"351 668 LINE",
"369 643 LINE",
"396 603 LINE",
"428 555 LINE",
"463 503 LINE",
"496 453 LINE",
"511 430 LINE",
"511 448 LINE",
"513 493 LINE",
"513 541 LINE",
"514 588 LINE",
"515 624 LINE",
"518 646 LINE",
"518 648 LINE",
"520 649 LINE",
"528 658 LINE",
"541 665 LINE",
"556 670 LINE",
"564 670 LINE",
"621 670 LINE",
"623 670 LINE",
"645 669 LINE",
"678 669 LINE",
"714 668 LINE",
"748 668 LINE",
"769 668 LINE",
"770 668 LINE",
"781 668 LINE",
"799 664 LINE",
"810 655 LINE",
"816 639 LINE",
"816 625 LINE",
"816 623 LINE",
"814 608 LINE",
"813 590 LINE",
"813 575 LINE",
"813 571 LINE",
"813 568 LINE",
"815 558 LINE",
"815 553 LINE",
"815 545 LINE",
"814 496 LINE",
"814 428 LINE",
"813 351 LINE",
"813 283 LINE",
"813 231 LINE",
"813 224 LINE",
"813 58 LINE",
"813 28 LINE",
"813 -43 LINE",
"804 -108 LINE",
"786 -168 LINE",
"769 -191 LINE",
"746 -228 LINE",
"689 -268 LINE",
"663 -278 LINE",
"633 -291 LINE",
"603 -294 LINE",
"534 -304 LINE",
"396 -290 LINE",
"333 -264 LINE",
"288 -244 LINE",
"288 -240 LINE",
"288 -226 LINE",
"290 -208 LINE",
"293 -185 LINE",
"293 -174 LINE",
"293 -169 LINE",
"295 -149 LINE",
"298 -130 LINE",
"300 -118 LINE",
"301 -120 LINE",
"326 -128 LINE",
"364 -140 LINE",
"400 -148 LINE",
"438 -150 LINE",
"461 -149 LINE",
"473 -149 LINE",
"488 -133 LINE",
"498 -109 LINE",
"503 -85 LINE",
"505 -79 LINE",
"506 -63 LINE",
"509 -8 LINE",
"509 33 LINE"
);
}
);
};
layerId = UUID0;
paths = (
{
closed = 1;
nodes = (
"623 -293 OFFCURVE",
"643 -286 OFFCURVE",
"663 -278 CURVE SMOOTH",
"698 -264 OFFCURVE",
"739 -238 OFFCURVE",
"769 -191 CURVE",
"793 -161 OFFCURVE",
"803 -119 OFFCURVE",
"808 -75 CURVE SMOOTH",
"813 -30 OFFCURVE",
"813 18 OFFCURVE",
"813 58 CURVE SMOOTH",
"813 224 LINE SMOOTH",
"813 229 OFFCURVE",
"813 240 OFFCURVE",
"813 258 CURVE SMOOTH",
"813 273 OFFCURVE",
"813 293 OFFCURVE",
"813 316 CURVE SMOOTH",
"813 339 OFFCURVE",
"813 363 OFFCURVE",
"814 389 CURVE SMOOTH",
"814 415 OFFCURVE",
"814 439 OFFCURVE",
"814 463 CURVE SMOOTH",
"814 484 OFFCURVE",
"814 504 OFFCURVE",
"815 521 CURVE SMOOTH",
"815 538 OFFCURVE",
"815 548 OFFCURVE",
"815 553 CURVE SMOOTH",
"815 555 OFFCURVE",
"814 559 OFFCURVE",
"813 563 CURVE",
"813 565 OFFCURVE",
"813 568 OFFCURVE",
"813 571 CURVE SMOOTH",
"813 573 OFFCURVE",
"813 578 OFFCURVE",
"813 583 CURVE SMOOTH",
"813 588 OFFCURVE",
"813 593 OFFCURVE",
"814 599 CURVE SMOOTH",
"814 604 OFFCURVE",
"815 610 OFFCURVE",
"815 615 CURVE SMOOTH",
"816 620 OFFCURVE",
"816 623 OFFCURVE",
"816 625 CURVE SMOOTH",
"816 643 OFFCURVE",
"813 654 OFFCURVE",
"805 660 CURVE SMOOTH",
"798 666 OFFCURVE",
"785 668 OFFCURVE",
"770 668 CURVE SMOOTH",
"769 668 OFFCURVE",
"765 668 OFFCURVE",
"758 668 CURVE",
"750 668 OFFCURVE",
"741 668 OFFCURVE",
"730 668 CURVE",
"720 668 OFFCURVE",
"708 668 OFFCURVE",
"696 668 CURVE SMOOTH",
"683 669 OFFCURVE",
"671 669 OFFCURVE",
"661 669 CURVE",
"650 669 OFFCURVE",
"641 669 OFFCURVE",
"633 670 CURVE",
"626 670 OFFCURVE",
"623 670 OFFCURVE",
"621 670 CURVE SMOOTH",
"564 670 LINE",
"559 670 OFFCURVE",
"553 669 OFFCURVE",
"548 668 CURVE",
"538 664 OFFCURVE",
"530 658 OFFCURVE",
"524 653 CURVE SMOOTH",
"518 648 OFFCURVE",
"518 650 OFFCURVE",
"516 635 CURVE SMOOTH",
"515 620 OFFCURVE",
"514 595 OFFCURVE",
"513 564 CURVE SMOOTH",
"513 533 OFFCURVE",
"513 501 OFFCURVE",
"513 471 CURVE SMOOTH",
"511 456 OFFCURVE",
"511 443 OFFCURVE",
"511 430 CURVE",
"501 445 OFFCURVE",
"490 461 OFFCURVE",
"479 478 CURVE SMOOTH",
"456 513 OFFCURVE",
"433 548 OFFCURVE",
"413 579 CURVE SMOOTH",
"390 611 OFFCURVE",
"373 638 OFFCURVE",
"360 655 CURVE SMOOTH",
"348 673 OFFCURVE",
"348 679 OFFCURVE",
"325 680 CURVE SMOOTH",
"301 683 OFFCURVE",
"261 679 OFFCURVE",
"208 675 CURVE SMOOTH",
"179 674 OFFCURVE",
"148 673 OFFCURVE",
"113 673 CURVE SMOOTH",
"101 673 OFFCURVE",
"88 673 OFFCURVE",
"78 668 CURVE SMOOTH",
"68 661 OFFCURVE",
"63 651 OFFCURVE",
"65 634 CURVE",
"66 599 OFFCURVE",
"66 564 OFFCURVE",
"65 530 CURVE SMOOTH",
"64 495 OFFCURVE",
"64 461 OFFCURVE",
"63 428 CURVE SMOOTH",
"63 358 OFFCURVE",
"63 289 OFFCURVE",
"70 220 CURVE",
"70 210 OFFCURVE",
"70 199 OFFCURVE",
"70 185 CURVE SMOOTH",
"71 171 OFFCURVE",
"71 158 OFFCURVE",
"71 143 CURVE SMOOTH",
"73 126 OFFCURVE",
"73 113 OFFCURVE",
"73 98 CURVE SMOOTH",
"73 68 OFFCURVE",
"74 44 OFFCURVE",
"75 29 CURVE SMOOTH",
"75 23 OFFCURVE",
"75 18 OFFCURVE",
"76 18 CURVE",
"79 10 LINE",
"124 -1 LINE",
"124 -1 OFFCURVE",
"126 -1 OFFCURVE",
"133 -1 CURVE",
"138 -1 OFFCURVE",
"143 -1 OFFCURVE",
"149 -1 CURVE SMOOTH",
"155 -1 OFFCURVE",
"163 -1 OFFCURVE",
"169 -1 CURVE",
"176 -3 OFFCURVE",
"181 -3 OFFCURVE",
"186 -3 CURVE SMOOTH",
"239 -3 OFFCURVE",
"285 3 OFFCURVE",
"338 6 CURVE",
"345 5 OFFCURVE",
"350 5 OFFCURVE",
"354 8 CURVE",
"360 9 OFFCURVE",
"363 15 OFFCURVE",
"361 23 CURVE",
"361 28 OFFCURVE",
"361 33 OFFCURVE",
"361 38 CURVE SMOOTH",
"361 41 OFFCURVE",
"361 48 OFFCURVE",
"361 58 CURVE",
"361 66 OFFCURVE",
"361 76 OFFCURVE",
"363 88 CURVE",
"363 100 OFFCURVE",
"363 113 OFFCURVE",
"363 126 CURVE SMOOTH",
"363 140 OFFCURVE",
"363 153 OFFCURVE",
"363 165 CURVE",
"363 178 OFFCURVE",
"363 188 OFFCURVE",
"364 198 CURVE",
"364 208 OFFCURVE",
"364 215 OFFCURVE",
"364 220 CURVE SMOOTH",
"364 224 OFFCURVE",
"366 228 OFFCURVE",
"373 228 CURVE SMOOTH",
"374 228 OFFCURVE",
"378 225 OFFCURVE",
"381 219 CURVE",
"386 213 OFFCURVE",
"391 206 OFFCURVE",
"396 198 CURVE SMOOTH",
"405 183 OFFCURVE",
"416 166 OFFCURVE",
"418 161 CURVE",
"509 33 LINE",
"509 -23 OFFCURVE",
"508 -56 OFFCURVE",
"505 -79 CURVE",
"504 -83 OFFCURVE",
"503 -89 OFFCURVE",
"501 -98 CURVE",
"499 -105 OFFCURVE",
"498 -113 OFFCURVE",
"493 -121 CURVE",
"488 -136 OFFCURVE",
"478 -149 OFFCURVE",
"461 -149 CURVE SMOOTH",
"430 -150 OFFCURVE",
"406 -148 OFFCURVE",
"383 -144 CURVE SMOOTH",
"358 -139 OFFCURVE",
"334 -131 OFFCURVE",
"301 -120 CURVE",
"300 -118 OFFCURVE",
"299 -120 OFFCURVE",
"299 -124 CURVE",
"298 -128 OFFCURVE",
"298 -133 OFFCURVE",
"296 -140 CURVE",
"295 -153 OFFCURVE",
"293 -168 OFFCURVE",
"293 -174 CURVE",
"293 -183 OFFCURVE",
"293 -188 OFFCURVE",
"293 -196 CURVE",
"291 -203 OFFCURVE",
"290 -209 OFFCURVE",
"289 -216 CURVE",
"288 -229 OFFCURVE",
"286 -239 OFFCURVE",
"288 -244 CURVE",
"333 -264 LINE",
"418 -299 OFFCURVE",
"511 -308 OFFCURVE",
"603 -294 CURVE SMOOTH"
);
}
);
width = 873;
}
);
leftKerningGroup = Eng;
rightKerningGroup = Eng;
unicode = 014A;
},
{
glyphname = O;
lastChange = "2016-10-15 12:39:21 +0000";
layers = (
{
anchors = (
{
name = bottom;
position = "{430, 0}";
},
{
name = center;
position = "{430, 338}";
},
{
name = ogonek;
position = "{648, 10}";
},
{
name = top;
position = "{430, 676}";
},
{
name = topleft;
position = "{20, 676}";
},
{
name = topright;
position = "{624, 661}";
}
);
background = {
paths = (
{
closed = 1;
nodes = (
"438 -24 LINE",
"389 -24 LINE",
"293 -18 LINE",
"208 6 LINE",
"133 50 LINE",
"78 125 LINE",
"46 235 LINE",
"46 313 LINE",
"46 415 LINE",
"91 560 LINE",
"188 653 LINE",
"341 695 LINE",
"448 695 LINE",
"484 695 LINE",
"566 683 LINE",
"648 654 LINE",
"723 605 LINE",
"780 529 LINE",
"814 425 LINE",
"814 355 LINE",
"814 275 LINE",
"790 158 LINE",
"743 73 LINE",
"678 19 LINE",
"593 -13 LINE",
"494 -24 LINE"
);
},
{
closed = 1;
nodes = (
"385 328 LINE",
"385 313 LINE",
"385 263 LINE",
"388 206 LINE",
"393 148 LINE",
"403 101 LINE",
"418 73 LINE",
"430 73 LINE",
"441 73 LINE",
"458 105 LINE",
"468 158 LINE",
"473 221 LINE",
"476 283 LINE",
"476 333 LINE",
"476 348 LINE",
"476 353 LINE",
"476 393 LINE",
"473 449 LINE",
"468 513 LINE",
"458 565 LINE",
"441 600 LINE",
"430 600 LINE",
"418 600 LINE",
"403 578 LINE",
"393 536 LINE",
"388 483 LINE",
"385 423 LINE",
"385 358 LINE"
);
}
);
};
layerId = UUID0;
paths = (
{
closed = 1;
nodes = (
"513 -24 OFFCURVE",
"580 -18 OFFCURVE",
"635 3 CURVE SMOOTH",
"691 24 OFFCURVE",
"735 58 OFFCURVE",
"768 115 CURVE SMOOTH",
"798 171 OFFCURVE",
"814 248 OFFCURVE",
"814 355 CURVE SMOOTH",
"814 448 OFFCURVE",
"790 518 OFFCURVE",
"751 568 CURVE SMOOTH",
"713 618 OFFCURVE",
"663 649 OFFCURVE",
"608 669 CURVE SMOOTH",
"553 688 OFFCURVE",
"496 695 OFFCURVE",
"448 695 CURVE SMOOTH",
"305 695 OFFCURVE",
"205 668 OFFCURVE",
"140 606 CURVE SMOOTH",
"75 544 OFFCURVE",
"46 449 OFFCURVE",
"46 313 CURVE SMOOTH",
"46 209 OFFCURVE",
"68 138 OFFCURVE",
"104 88 CURVE SMOOTH",
"141 38 OFFCURVE",
"193 10 OFFCURVE",
"250 -5 CURVE SMOOTH",
"308 -21 OFFCURVE",
"373 -24 OFFCURVE",
"438 -24 CURVE SMOOTH"
);
},
{
closed = 1;
nodes = (
"415 73 OFFCURVE",
"404 93 OFFCURVE",
"398 125 CURVE SMOOTH",
"393 156 OFFCURVE",
"388 196 OFFCURVE",
"388 234 CURVE SMOOTH",
"385 271 OFFCURVE",
"385 308 OFFCURVE",
"385 328 CURVE SMOOTH",
"385 368 OFFCURVE",
"385 413 OFFCURVE",
"388 453 CURVE SMOOTH",
"388 493 OFFCURVE",
"393 529 OFFCURVE",
"398 558 CURVE SMOOTH",
"404 583 OFFCURVE",
"415 600 OFFCURVE",
"430 600 CURVE SMOOTH",
"438 600 OFFCURVE",
"444 594 OFFCURVE",
"449 583 CURVE SMOOTH",
"459 559 OFFCURVE",
"466 523 OFFCURVE",
"470 480 CURVE SMOOTH",
"474 438 OFFCURVE",
"476 399 OFFCURVE",
"476 373 CURVE SMOOTH",
"476 358 OFFCURVE",
"476 350 OFFCURVE",
"476 348 CURVE SMOOTH",
"476 338 OFFCURVE",
"476 325 OFFCURVE",
"476 308 CURVE SMOOTH",
"476 273 OFFCURVE",
"474 231 OFFCURVE",
"470 189 CURVE SMOOTH",
"466 146 OFFCURVE",
"459 110 OFFCURVE",
"449 88 CURVE SMOOTH",
"444 78 OFFCURVE",
"438 73 OFFCURVE",
"430 73 CURVE SMOOTH"
);
}
);
width = 859;
}
);
leftKerningGroup = O;
rightKerningGroup = O;
unicode = 004F;
},
{
color = 9;
glyphname = Odotaccentmacron;
lastChange = "2016-10-15 12:39:21 +0000";
layers = (
{
background = {
components = (
{
name = dotaccentcomb;
transform = "{1, 0, 0, 1, 24, 79}";
},
{
name = macroncomb;
transform = "{1, 0, 0, 1, 24, 279}";
}
);
};
components = (
{
name = O;
},
{
alignment = -1;
name = macroncomb;
transform = "{1, 0, 0, 1, 30, 293}";
}
);
layerId = UUID0;
paths = (
{
closed = 1;
nodes = (
"526 740 LINE",
"539 741 OFFCURVE",
"543 755 OFFCURVE",
"543 768 CURVE SMOOTH",
"543 775 OFFCURVE",
"543 783 OFFCURVE",
"541 790 CURVE SMOOTH",
"540 796 OFFCURVE",
"541 805 OFFCURVE",
"541 811 CURVE SMOOTH",
"541 815 OFFCURVE",
"541 818 OFFCURVE",
"541 821 CURVE",
"541 825 OFFCURVE",
"541 830 OFFCURVE",
"541 834 CURVE SMOOTH",
"541 838 OFFCURVE",
"541 840 OFFCURVE",
"541 844 CURVE",
"540 846 OFFCURVE",
"540 850 OFFCURVE",
"540 850 CURVE SMOOTH",
"540 856 OFFCURVE",
"540 863 OFFCURVE",
"541 870 CURVE SMOOTH",
"543 878 OFFCURVE",
"541 884 OFFCURVE",
"541 890 CURVE SMOOTH",
"541 904 OFFCURVE",
"540 915 OFFCURVE",
"530 915 CURVE SMOOTH",
"526 915 LINE",
"525 915 OFFCURVE",
"521 914 OFFCURVE",
"520 914 CURVE SMOOTH",
"516 914 OFFCURVE",
"515 914 OFFCURVE",
"513 914 CURVE SMOOTH",
"506 914 OFFCURVE",
"504 915 OFFCURVE",
"500 915 CURVE SMOOTH",
"496 915 OFFCURVE",
"493 916 OFFCURVE",
"486 916 CURVE SMOOTH",
"479 916 OFFCURVE",
"469 915 OFFCURVE",
"451 914 CURVE",
"348 914 LINE SMOOTH",
"338 914 OFFCURVE",
"334 913 OFFCURVE",
"330 909 CURVE",
"326 904 OFFCURVE",
"323 896 OFFCURVE",
"319 885 CURVE",
"319 884 OFFCURVE",
"320 883 OFFCURVE",
"320 880 CURVE SMOOTH",
"320 880 OFFCURVE",
"320 879 OFFCURVE",
"320 878 CURVE",
"316 846 LINE",
"313 840 OFFCURVE",
"313 834 OFFCURVE",
"314 828 CURVE",
"314 820 OFFCURVE",
"315 815 OFFCURVE",
"315 808 CURVE SMOOTH",
"315 779 LINE",
"321 746 LINE",
"328 740 LINE"
);
}
);
width = 859;
}
);
leftKerningGroup = O;
rightKerningGroup = O;
unicode = 0230;
},
{
glyphname = Ohorn;
lastChange = "2016-10-15 12:39:21 +0000";
layers = (
{
anchors = (
{
name = bottom;
position = "{430, 0}";
},
{
name = top;
position = "{430, 676}";
}
);
background = {
paths = (
{
closed = 1;
nodes = (
"438 -24 LINE",
"389 -24 LINE",
"293 -18 LINE",
"208 6 LINE",
"133 50 LINE",
"78 125 LINE",
"46 235 LINE",
"46 313 LINE",
"46 415 LINE",
"91 560 LINE",
"188 653 LINE",
"341 695 LINE",
"448 695 LINE",
"484 695 LINE",
"566 683 LINE",
"648 654 LINE",
"723 605 LINE",
"780 529 LINE",
"814 425 LINE",
"814 355 LINE",
"814 275 LINE",
"790 158 LINE",
"743 73 LINE",
"678 19 LINE",
"593 -13 LINE",
"494 -24 LINE"
);
},
{
closed = 1;
nodes = (
"385 328 LINE",
"385 313 LINE",
"385 263 LINE",
"388 206 LINE",
"393 148 LINE",
"403 101 LINE",
"418 73 LINE",
"430 73 LINE",
"441 73 LINE",
"458 105 LINE",
"468 158 LINE",
"473 221 LINE",
"476 283 LINE",
"476 333 LINE",
"476 348 LINE",
"476 353 LINE",
"476 393 LINE",
"473 449 LINE",
"468 513 LINE",
"458 565 LINE",
"441 600 LINE",
"430 600 LINE",
"418 600 LINE",
"403 578 LINE",
"393 536 LINE",
"388 483 LINE",
"385 423 LINE",
"385 358 LINE"
);
},
{
closed = 1;
nodes = (
"853 795 LINE",
"858 778 LINE",
"861 738 LINE",
"861 715 LINE",
"854 669 LINE",
"834 609 LINE",
"801 561 LINE",
"778 538 LINE",
"730 508 LINE",
"680 493 LINE",
"624 488 LINE",
"566 683 LINE",
"631 668 LINE",
"666 673 LINE",
"688 694 LINE",
"698 723 LINE",
"698 739 LINE",
"698 748 LINE",
"695 781 LINE",
"690 799 LINE"
);
}
);
};
layerId = UUID0;
paths = (
{
closed = 1;
nodes = (
"513 -24 OFFCURVE",
"580 -18 OFFCURVE",
"635 3 CURVE SMOOTH",
"691 24 OFFCURVE",
"735 58 OFFCURVE",
"768 115 CURVE SMOOTH",
"798 171 OFFCURVE",
"814 248 OFFCURVE",
"814 355 CURVE SMOOTH",
"814 429 OFFCURVE",
"799 488 OFFCURVE",
"771 541 CURVE",
"775 544 LINE",
"798 561 LINE",
"813 578 OFFCURVE",
"823 593 OFFCURVE",
"831 611 CURVE SMOOTH",
"854 669 LINE",
"861 715 LINE",
"861 738 LINE",
"858 778 LINE",
"853 795 LINE",
"700 799 LINE",
"695 781 LINE",
"698 748 LINE",
"698 739 OFFCURVE",
"700 730 OFFCURVE",
"698 723 CURVE SMOOTH",
"696 713 OFFCURVE",
"691 703 OFFCURVE",
"685 694 CURVE",
"680 688 OFFCURVE",
"673 683 OFFCURVE",
"665 678 CURVE SMOOTH",
"654 673 OFFCURVE",
"643 670 OFFCURVE",
"631 668 CURVE",
"568 681 LINE",
"528 691 OFFCURVE",
"485 695 OFFCURVE",
"448 695 CURVE SMOOTH",
"305 695 OFFCURVE",
"205 668 OFFCURVE",
"140 606 CURVE SMOOTH",
"75 544 OFFCURVE",
"46 449 OFFCURVE",
"46 313 CURVE SMOOTH",
"46 209 OFFCURVE",
"68 138 OFFCURVE",
"104 88 CURVE SMOOTH",
"141 38 OFFCURVE",
"193 10 OFFCURVE",
"250 -5 CURVE SMOOTH",
"308 -21 OFFCURVE",
"373 -24 OFFCURVE",
"438 -24 CURVE SMOOTH"
);
},
{
closed = 1;
nodes = (
"415 73 OFFCURVE",
"404 93 OFFCURVE",
"398 125 CURVE SMOOTH",
"393 156 OFFCURVE",
"388 196 OFFCURVE",
"388 234 CURVE SMOOTH",
"385 271 OFFCURVE",
"385 308 OFFCURVE",
"385 328 CURVE SMOOTH",
"385 368 OFFCURVE",
"385 413 OFFCURVE",
"388 453 CURVE SMOOTH",
"388 493 OFFCURVE",
"393 529 OFFCURVE",
"398 558 CURVE SMOOTH",
"404 583 OFFCURVE",
"415 600 OFFCURVE",
"430 600 CURVE SMOOTH",
"438 600 OFFCURVE",
"444 594 OFFCURVE",
"449 583 CURVE SMOOTH",
"459 559 OFFCURVE",
"466 523 OFFCURVE",
"470 480 CURVE SMOOTH",
"474 438 OFFCURVE",
"476 399 OFFCURVE",
"476 373 CURVE SMOOTH",
"476 348 LINE",
"476 308 LINE SMOOTH",
"476 273 OFFCURVE",
"474 231 OFFCURVE",
"470 189 CURVE SMOOTH",
"466 146 OFFCURVE",
"459 110 OFFCURVE",
"449 88 CURVE SMOOTH",
"444 78 OFFCURVE",
"438 73 OFFCURVE",
"430 73 CURVE SMOOTH"
);
}
);
width = 859;
}
);
leftKerningGroup = O;
rightKerningGroup = O;
unicode = 01A0;
},
{
glyphname = Oslash;
lastChange = "2016-10-15 12:39:21 +0000";
layers = (
{
anchors = (
{
name = bottom;
position = "{451, 0}";
},
{
name = top;
position = "{451, 676}";
}
);
background = {
paths = (
{
closed = 1;
nodes = (
"453 -24 LINE",
"419 -24 LINE",
"353 -21 LINE",
"290 -13 LINE",
"230 3 LINE",
"204 16 LINE",
"178 -10 LINE",
"136 -48 LINE",
"123 -53 LINE",
"113 -51 LINE",
"101 -46 LINE",
"96 -44 LINE",
"86 -35 LINE",
"78 -28 LINE",
"76 -28 LINE",
"64 -21 LINE",
"58 -10 LINE",
"61 1 LINE",
"69 13 LINE",
"74 18 LINE",
"83 28 LINE",
"111 58 LINE",
"128 74 LINE",
"98 113 LINE",
"60 228 LINE",
"60 313 LINE",
"60 415 LINE",
"105 560 LINE",
"203 653 LINE",
"355 695 LINE",
"463 695 LINE",
"490 695 LINE",
"553 688 LINE",
"615 673 LINE",
"678 646 LINE",
"705 625 LINE",
"771 686 LINE",
"778 689 LINE",
"788 688 LINE",
"793 685 LINE",
"798 683 LINE",
"815 671 LINE",
"823 670 LINE",
"834 663 LINE",
"848 654 LINE",
"848 641 LINE",
"833 619 LINE",
"813 599 LINE",
"808 594 LINE",
"803 588 LINE",
"796 583 LINE",
"780 569 LINE",
"771 560 LINE",
"798 523 LINE",
"828 423 LINE",
"828 355 LINE",
"828 275 LINE",
"804 158 LINE",
"758 73 LINE",
"691 19 LINE",
"608 -13 LINE",
"508 -24 LINE"
);
},
{
closed = 1;
nodes = (
"444 600 LINE",
"433 600 LINE",
"418 579 LINE",
"408 543 LINE",
"403 494 LINE",
"400 438 LINE",
"399 378 LINE",
"399 349 LINE",
"488 429 LINE",
"486 458 LINE",
"480 518 LINE",
"470 568 LINE",
"455 600 LINE"
);
},
{
closed = 1;
nodes = (
"401 214 LINE",
"403 188 LINE",
"409 138 LINE",
"419 96 LINE",
"434 73 LINE",
"444 73 LINE",
"453 73 LINE",
"468 94 LINE",
"478 130 LINE",
"483 178 LINE",
"488 229 LINE",
"489 279 LINE",
"490 300 LINE"
);
}
);
};
layerId = UUID0;
paths = (
{
closed = 1;
nodes = (
"141 -46 OFFCURVE",
"169 -19 OFFCURVE",
"204 16 CURVE",
"239 -1 OFFCURVE",
"280 -11 OFFCURVE",
"323 -18 CURVE SMOOTH",
"364 -23 OFFCURVE",
"408 -24 OFFCURVE",
"453 -24 CURVE SMOOTH",
"528 -24 OFFCURVE",
"594 -18 OFFCURVE",
"649 3 CURVE SMOOTH",
"705 24 OFFCURVE",
"750 58 OFFCURVE",
"781 115 CURVE SMOOTH",
"813 171 OFFCURVE",
"828 248 OFFCURVE",
"828 355 CURVE SMOOTH",
"828 444 OFFCURVE",
"806 510 OFFCURVE",
"771 560 CURVE",
"778 566 OFFCURVE",
"783 571 OFFCURVE",
"789 576 CURVE",
"794 581 OFFCURVE",
"798 585 OFFCURVE",
"803 588 CURVE",
"806 593 OFFCURVE",
"810 596 OFFCURVE",
"813 599 CURVE",
"826 613 OFFCURVE",
"834 623 OFFCURVE",
"840 630 CURVE SMOOTH",
"845 638 OFFCURVE",
"848 644 OFFCURVE",
"848 648 CURVE",
"848 658 OFFCURVE",
"838 661 OFFCURVE",
"823 670 CURVE",
"818 671 OFFCURVE",
"813 673 OFFCURVE",
"808 678 CURVE",
"801 681 OFFCURVE",
"796 684 OFFCURVE",
"793 685 CURVE",
"788 688 OFFCURVE",
"780 691 OFFCURVE",
"771 686 CURVE",
"705 625 LINE",
"668 653 OFFCURVE",
"625 669 OFFCURVE",
"583 680 CURVE SMOOTH",
"543 691 OFFCURVE",
"499 695 OFFCURVE",
"463 695 CURVE SMOOTH",
"319 695 OFFCURVE",
"219 668 OFFCURVE",
"154 606 CURVE SMOOTH",
"89 544 OFFCURVE",
"60 449 OFFCURVE",
"60 313 CURVE SMOOTH",
"60 200 OFFCURVE",
"86 125 OFFCURVE",
"128 74 CURVE",
"118 63 OFFCURVE",
"108 53 OFFCURVE",
"98 43 CURVE SMOOTH",
"88 33 OFFCURVE",
"80 23 OFFCURVE",
"74 18 CURVE",
"68 10 OFFCURVE",
"61 3 OFFCURVE",
"60 -4 CURVE",
"58 -13 OFFCURVE",
"61 -20 OFFCURVE",
"76 -28 CURVE",
"76 -28 OFFCURVE",
"78 -29 OFFCURVE",
"83 -33 CURVE SMOOTH",
"85 -34 OFFCURVE",
"90 -38 OFFCURVE",
"96 -44 CURVE",
"100 -45 OFFCURVE",
"103 -48 OFFCURVE",
"108 -48 CURVE SMOOTH",
"111 -50 OFFCURVE",
"116 -53 OFFCURVE",
"123 -53 CURVE"
);
},
{
closed = 1;
nodes = (
"430 73 OFFCURVE",
"420 89 OFFCURVE",
"414 118 CURVE SMOOTH",
"408 144 OFFCURVE",
"403 179 OFFCURVE",
"401 214 CURVE",
"490 300 LINE",
"489 273 OFFCURVE",
"488 238 OFFCURVE",
"485 204 CURVE SMOOTH",
"483 170 OFFCURVE",
"479 138 OFFCURVE",
"473 113 CURVE SMOOTH",
"466 88 OFFCURVE",
"456 73 OFFCURVE",
"444 73 CURVE SMOOTH"
);
},
{
closed = 1;
nodes = (
"399 388 OFFCURVE",
"399 429 OFFCURVE",
"401 466 CURVE SMOOTH",
"403 503 OFFCURVE",
"408 538 OFFCURVE",
"414 561 CURVE SMOOTH",
"420 585 OFFCURVE",
"430 600 OFFCURVE",
"444 600 CURVE SMOOTH",
"451 600 OFFCURVE",
"458 595 OFFCURVE",
"463 584 CURVE",
"468 573 OFFCURVE",
"473 559 OFFCURVE",
"476 543 CURVE SMOOTH",
"483 509 OFFCURVE",
"486 466 OFFCURVE",
"488 429 CURVE",
"399 349 LINE"
);
}
);
width = 901;
}
);
leftKerningGroup = O;
rightKerningGroup = O;
unicode = 00D8;
},
{
glyphname = Otildemacron;
lastChange = "2016-10-15 12:39:21 +0000";
layers = (
{
background = {
components = (
{
name = tildecomb;
transform = "{1, 0, 0, 1, 24, 79}";
},
{
name = macroncomb;
transform = "{1, 0, 0, 1, 24, 322}";
}
);
};
components = (
{
name = O;
}
);
layerId = UUID0;
paths = (
{
closed = 1;
nodes = (
"526 735 OFFCURVE",
"538 736 OFFCURVE",
"551 741 CURVE",
"566 745 OFFCURVE",
"581 750 OFFCURVE",
"594 756 CURVE SMOOTH",
"643 781 OFFCURVE",
"658 825 OFFCURVE",
"658 865 CURVE SMOOTH",
"658 889 OFFCURVE",
"650 909 OFFCURVE",
"643 921 CURVE",
"640 928 OFFCURVE",
"636 931 OFFCURVE",
"631 931 CURVE",
"508 931 LINE",
"504 931 LINE SMOOTH",
"499 931 OFFCURVE",
"491 931 OFFCURVE",
"491 925 CURVE",
"496 921 OFFCURVE",
"501 913 OFFCURVE",
"506 903 CURVE SMOOTH",
"511 893 OFFCURVE",
"514 883 OFFCURVE",
"513 874 CURVE SMOOTH",
"511 865 OFFCURVE",
"506 860 OFFCURVE",
"491 860 CURVE SMOOTH",
"485 860 OFFCURVE",
"480 861 OFFCURVE",
"476 863 CURVE",
"466 869 OFFCURVE",
"460 878 OFFCURVE",
"454 886 CURVE SMOOTH",
"450 891 OFFCURVE",
"444 898 OFFCURVE",
"441 899 CURVE SMOOTH",
"429 909 OFFCURVE",
"421 914 OFFCURVE",
"401 921 CURVE SMOOTH",
"383 929 OFFCURVE",
"363 931 OFFCURVE",
"351 931 CURVE SMOOTH",
"301 931 OFFCURVE",
"269 920 OFFCURVE",
"246 903 CURVE SMOOTH",
"225 886 OFFCURVE",
"214 868 OFFCURVE",
"206 846 CURVE SMOOTH",
"198 823 OFFCURVE",
"201 799 OFFCURVE",
"201 780 CURVE",
"201 774 OFFCURVE",
"204 768 OFFCURVE",
"205 764 CURVE SMOOTH",
"206 759 OFFCURVE",
"206 755 OFFCURVE",
"209 753 CURVE SMOOTH",
"215 746 OFFCURVE",
"218 743 OFFCURVE",
"231 743 CURVE SMOOTH",
"246 743 OFFCURVE",
"269 744 OFFCURVE",
"306 743 CURVE",
"308 743 OFFCURVE",
"310 743 OFFCURVE",
"311 745 CURVE SMOOTH",
"313 749 OFFCURVE",
"316 754 OFFCURVE",
"318 766 CURVE",
"318 771 OFFCURVE",
"319 778 OFFCURVE",
"321 781 CURVE SMOOTH",
"328 790 OFFCURVE",
"328 801 OFFCURVE",
"338 801 CURVE SMOOTH",
"346 801 OFFCURVE",
"355 799 OFFCURVE",
"361 795 CURVE SMOOTH",
"424 758 OFFCURVE",
"425 735 OFFCURVE",
"511 735 CURVE SMOOTH"
);
},
{
closed = 1;
nodes = (
"591 967 OFFCURVE",
"603 967 OFFCURVE",
"616 967 CURVE SMOOTH",
"628 967 OFFCURVE",
"634 975 OFFCURVE",
"636 985 CURVE SMOOTH",
"639 993 OFFCURVE",
"640 1005 OFFCURVE",
"640 1015 CURVE SMOOTH",
"640 1024 OFFCURVE",
"640 1030 OFFCURVE",
"640 1035 CURVE",
"639 1045 OFFCURVE",
"639 1053 OFFCURVE",
"639 1058 CURVE",
"639 1060 OFFCURVE",
"639 1064 OFFCURVE",
"639 1067 CURVE",
"639 1075 OFFCURVE",
"638 1084 OFFCURVE",
"638 1101 CURVE SMOOTH",
"638 1111 OFFCURVE",
"629 1116 OFFCURVE",
"619 1119 CURVE SMOOTH",
"609 1122 OFFCURVE",
"594 1123 OFFCURVE",
"583 1123 CURVE SMOOTH",
"579 1123 OFFCURVE",
"571 1123 OFFCURVE",
"559 1123 CURVE",
"536 1123 OFFCURVE",
"504 1124 OFFCURVE",
"469 1125 CURVE SMOOTH",
"434 1126 OFFCURVE",
"400 1127 OFFCURVE",
"376 1127 CURVE SMOOTH",
"365 1127 OFFCURVE",
"358 1127 OFFCURVE",
"354 1127 CURVE SMOOTH",
"244 1127 LINE SMOOTH",
"238 1127 OFFCURVE",
"233 1123 OFFCURVE",
"228 1120 CURVE SMOOTH",
"223 1116 OFFCURVE",
"219 1111 OFFCURVE",
"219 1106 CURVE SMOOTH",
"219 1095 OFFCURVE",
"219 1084 OFFCURVE",
"220 1075 CURVE",
"220 1067 OFFCURVE",
"220 1058 OFFCURVE",
"220 1051 CURVE SMOOTH",
"220 1042 OFFCURVE",
"220 1033 OFFCURVE",
"220 1025 CURVE",
"220 1016 OFFCURVE",
"220 1005 OFFCURVE",
"220 993 CURVE SMOOTH",
"220 988 OFFCURVE",
"224 982 OFFCURVE",
"228 980 CURVE",
"236 973 OFFCURVE",
"251 972 OFFCURVE",
"269 972 CURVE SMOOTH",
"279 972 OFFCURVE",
"289 972 OFFCURVE",
"298 972 CURVE SMOOTH",
"398 972 LINE SMOOTH",
"399 972 OFFCURVE",
"403 972 OFFCURVE",
"408 972 CURVE",
"413 972 OFFCURVE",
"419 972 OFFCURVE",
"429 972 CURVE SMOOTH",
"435 972 OFFCURVE",
"444 972 OFFCURVE",
"454 971 CURVE SMOOTH",
"463 969 OFFCURVE",
"471 971 OFFCURVE",
"479 971 CURVE SMOOTH",
"488 971 OFFCURVE",
"494 971 OFFCURVE",
"499 971 CURVE",
"504 969 OFFCURVE",
"509 969 OFFCURVE",
"509 969 CURVE SMOOTH",
"518 969 OFFCURVE",
"525 969 OFFCURVE",
"534 969 CURVE SMOOTH",
"540 969 OFFCURVE",
"548 968 OFFCURVE",
"556 968 CURVE",
"564 968 OFFCURVE",
"573 968 OFFCURVE",
"583 967 CURVE SMOOTH"
);
}
);
width = 859;
}
);
leftKerningGroup = O;
rightKerningGroup = O;
unicode = 022C;
},
{
glyphname = OE;
lastChange = "2016-10-15 12:39:21 +0000";
layers = (
{
anchors = (
{
name = bottom;
position = "{605, 0}";
},
{
name = top;
position = "{605, 676}";
}
);
background = {
paths = (
{
closed = 1;
nodes = (
"443 -24 LINE",
"394 -24 LINE",
"298 -18 LINE",
"210 6 LINE",
"136 50 LINE",
"81 125 LINE",
"50 235 LINE",
"50 313 LINE",
"50 415 LINE",
"95 560 LINE",
"193 653 LINE",
"345 695 LINE",
"453 695 LINE",
"489 695 LINE",
"573 683 LINE",
"614 668 LINE",
"625 669 LINE",
"646 670 LINE",
"658 670 LINE",
"720 670 LINE",
"833 673 LINE",
"941 675 LINE",
"1058 674 LINE",
"1125 669 LINE",
"1134 669 LINE",
"1145 648 LINE",
"1153 615 LINE",
"1158 576 LINE",
"1163 558 LINE",
"1164 545 LINE",
"1161 534 LINE",
"1156 530 LINE",
"1146 531 LINE",
"1140 531 LINE",
"1115 531 LINE",
"1063 528 LINE",
"1011 523 LINE",
"958 518 LINE",
"933 515 LINE",
"928 515 LINE",
"920 491 LINE",
"916 458 LINE",
"913 426 LINE",
"913 418 LINE",
"913 404 LINE",
"920 398 LINE",
"929 398 LINE",
"974 398 LINE",
"1063 398 LINE",
"1106 393 LINE",
"1114 393 LINE",
"1125 391 LINE",
"1133 388 LINE",
"1138 379 LINE",
"1140 370 LINE",
"1144 281 LINE",
"1144 278 LINE",
"1144 269 LINE",
"1125 259 LINE",
"1093 254 LINE",
"1050 253 LINE",
"1028 253 LINE",
"985 253 LINE",
"938 255 LINE",
"915 250 LINE",
"910 233 LINE",
"910 213 LINE",
"910 194 LINE",
"906 158 LINE",
"908 138 LINE",
"955 138 LINE",
"1053 143 LINE",
"1099 143 LINE",
"1103 143 LINE",
"1110 128 LINE",
"1119 105 LINE",
"1126 78 LINE",
"1133 51 LINE",
"1138 30 LINE",
"1138 26 LINE",
"1138 18 LINE",
"1128 5 LINE",
"1118 5 LINE",
"1081 5 LINE",
"1013 1 LINE",
"975 1 LINE",
"896 1 LINE",
"738 0 LINE",
"659 0 LINE",
"656 0 LINE",
"644 0 LINE",
"636 3 LINE",
"594 -13 LINE",
"498 -24 LINE"
);
},
{
closed = 1;
nodes = (
"389 328 LINE",
"389 313 LINE",
"389 263 LINE",
"393 206 LINE",
"398 148 LINE",
"408 101 LINE",
"423 73 LINE",
"434 73 LINE",
"446 73 LINE",
"461 105 LINE",
"473 158 LINE",
"478 221 LINE",
"479 283 LINE",
"480 333 LINE",
"480 348 LINE",
"480 353 LINE",
"479 393 LINE",
"478 449 LINE",
"473 513 LINE",
"461 565 LINE",
"445 600 LINE",
"434 600 LINE",
"423 600 LINE",
"408 578 LINE",
"398 536 LINE",
"393 483 LINE",
"389 423 LINE",
"389 358 LINE"
);
}
);
};
layerId = UUID0;
paths = (
{
closed = 1;
nodes = (
"516 -24 OFFCURVE",
"581 -18 OFFCURVE",
"636 3 CURVE",
"646 0 OFFCURVE",
"655 0 OFFCURVE",
"659 0 CURVE SMOOTH",
"711 0 OFFCURVE",
"764 0 OFFCURVE",
"818 0 CURVE SMOOTH",
"870 1 OFFCURVE",
"923 1 OFFCURVE",
"975 1 CURVE SMOOTH",
"1000 1 OFFCURVE",
"1024 1 OFFCURVE",
"1048 3 CURVE SMOOTH",
"1069 4 OFFCURVE",
"1093 5 OFFCURVE",
"1118 5 CURVE SMOOTH",
"1131 5 OFFCURVE",
"1138 14 OFFCURVE",
"1138 26 CURVE SMOOTH",
"1138 29 OFFCURVE",
"1136 34 OFFCURVE",
"1135 41 CURVE SMOOTH",
"1133 55 OFFCURVE",
"1128 73 OFFCURVE",
"1123 91 CURVE SMOOTH",
"1118 110 OFFCURVE",
"1113 126 OFFCURVE",
"1106 136 CURVE",
"1104 141 OFFCURVE",
"1101 143 OFFCURVE",
"1099 143 CURVE SMOOTH",
"1068 143 OFFCURVE",
"1036 143 OFFCURVE",
"1003 140 CURVE SMOOTH",
"971 138 OFFCURVE",
"939 138 OFFCURVE",
"908 138 CURVE",
"906 151 OFFCURVE",
"906 164 OFFCURVE",
"908 176 CURVE SMOOTH",
"909 188 OFFCURVE",
"910 201 OFFCURVE",
"910 213 CURVE SMOOTH",
"910 238 OFFCURVE",
"911 249 OFFCURVE",
"926 253 CURVE",
"933 254 OFFCURVE",
"945 254 OFFCURVE",
"961 254 CURVE SMOOTH",
"978 253 OFFCURVE",
"999 253 OFFCURVE",
"1028 253 CURVE SMOOTH",
"1058 253 OFFCURVE",
"1086 253 OFFCURVE",
"1108 258 CURVE SMOOTH",
"1130 260 OFFCURVE",
"1144 266 OFFCURVE",
"1144 278 CURVE SMOOTH",
"1144 281 LINE",
"1140 370 LINE",
"1139 376 OFFCURVE",
"1138 380 OFFCURVE",
"1135 383 CURVE",
"1131 389 OFFCURVE",
"1126 391 OFFCURVE",
"1119 393 CURVE",
"1116 393 OFFCURVE",
"1111 393 OFFCURVE",
"1106 393 CURVE SMOOTH",
"1078 396 OFFCURVE",
"1048 398 OFFCURVE",
"1018 398 CURVE SMOOTH",
"989 398 OFFCURVE",
"959 398 OFFCURVE",
"929 398 CURVE SMOOTH",
"918 398 OFFCURVE",
"913 400 OFFCURVE",
"913 418 CURVE SMOOTH",
"913 423 OFFCURVE",
"914 431 OFFCURVE",
"915 443 CURVE SMOOTH",
"916 463 OFFCURVE",
"919 488 OFFCURVE",
"924 503 CURVE SMOOTH",
"928 511 OFFCURVE",
"929 515 OFFCURVE",
"933 515 CURVE",
"949 516 OFFCURVE",
"968 518 OFFCURVE",
"984 520 CURVE SMOOTH",
"1003 521 OFFCURVE",
"1020 523 OFFCURVE",
"1038 524 CURVE SMOOTH",
"1073 528 OFFCURVE",
"1108 531 OFFCURVE",
"1140 531 CURVE SMOOTH",
"1145 531 OFFCURVE",
"1148 531 OFFCURVE",
"1151 530 CURVE",
"1158 530 OFFCURVE",
"1161 533 OFFCURVE",
"1163 540 CURVE",
"1163 543 OFFCURVE",
"1164 550 OFFCURVE",
"1163 558 CURVE",
"1160 570 OFFCURVE",
"1158 583 OFFCURVE",
"1155 595 CURVE",
"1153 608 OFFCURVE",
"1151 620 OFFCURVE",
"1148 631 CURVE SMOOTH",
"1144 653 OFFCURVE",
"1138 669 OFFCURVE",
"1125 669 CURVE",
"1080 673 OFFCURVE",
"1038 674 OFFCURVE",
"1000 675 CURVE SMOOTH",
"923 676 OFFCURVE",
"850 674 OFFCURVE",
"776 673 CURVE SMOOTH",
"739 670 OFFCURVE",
"699 670 OFFCURVE",
"658 670 CURVE SMOOTH",
"643 670 OFFCURVE",
"628 670 OFFCURVE",
"614 668 CURVE",
"559 688 OFFCURVE",
"501 695 OFFCURVE",
"453 695 CURVE SMOOTH",
"309 695 OFFCURVE",
"208 668 OFFCURVE",
"144 606 CURVE SMOOTH",
"79 544 OFFCURVE",
"50 449 OFFCURVE",
"50 313 CURVE SMOOTH",
"50 209 OFFCURVE",
"73 138 OFFCURVE",
"108 88 CURVE SMOOTH",
"145 38 OFFCURVE",
"196 10 OFFCURVE",
"254 -5 CURVE SMOOTH",
"313 -21 OFFCURVE",
"378 -24 OFFCURVE",
"443 -24 CURVE SMOOTH"
);
},
{
closed = 1;
nodes = (
"419 73 OFFCURVE",
"409 93 OFFCURVE",
"403 125 CURVE SMOOTH",
"396 156 OFFCURVE",
"393 196 OFFCURVE",
"391 234 CURVE SMOOTH",
"389 271 OFFCURVE",
"389 308 OFFCURVE",
"389 328 CURVE SMOOTH",
"389 368 OFFCURVE",
"389 413 OFFCURVE",
"391 453 CURVE SMOOTH",
"393 493 OFFCURVE",
"396 529 OFFCURVE",
"403 558 CURVE SMOOTH",
"409 583 OFFCURVE",
"419 600 OFFCURVE",
"434 600 CURVE SMOOTH",
"441 600 OFFCURVE",
"448 594 OFFCURVE",
"454 583 CURVE SMOOTH",
"464 559 OFFCURVE",
"471 523 OFFCURVE",
"475 480 CURVE SMOOTH",
"478 438 OFFCURVE",
"479 399 OFFCURVE",
"480 373 CURVE SMOOTH",
"480 358 OFFCURVE",
"480 350 OFFCURVE",
"480 348 CURVE SMOOTH",
"480 338 OFFCURVE",
"480 325 OFFCURVE",
"480 308 CURVE SMOOTH",
"479 273 OFFCURVE",
"478 231 OFFCURVE",
"475 189 CURVE SMOOTH",
"471 146 OFFCURVE",
"464 110 OFFCURVE",
"454 88 CURVE SMOOTH",
"448 78 OFFCURVE",
"443 73 OFFCURVE",
"434 73 CURVE SMOOTH"
);
}
);
width = 1210;
}
);
leftKerningGroup = O;
rightKerningGroup = E;
unicode = 0152;
},
{
glyphname = P;
lastChange = "2016-10-15 12:39:21 +0000";
layers = (
{
anchors = (
{
name = bottom;
position = "{420, 0}";
},
{
name = top;
position = "{420, 676}";
}
);
background = {
paths = (
{
closed = 1;
nodes = (
"58 645 LINE",
"58 654 LINE",
"75 671 LINE",
"84 671 LINE",
"151 671 LINE",
"248 669 LINE",
"283 669 LINE",
"338 669 LINE",
"461 673 LINE",
"535 673 LINE",
"563 673 LINE",
"624 665 LINE",
"686 645 LINE",
"743 613 LINE",
"785 561 LINE",
"811 490 LINE",
"811 443 LINE",
"811 363 LINE",
"771 255 LINE",
"698 188 LINE",
"594 159 LINE",
"531 159 LINE",
"394 159 LINE",
"395 143 LINE",
"395 120 LINE",
"395 100 LINE",
"394 75 LINE",
"394 55 LINE",
"394 38 LINE",
"388 18 LINE",
"373 6 LINE",
"353 4 LINE",
"339 4 LINE",
"304 4 LINE",
"253 3 LINE",
"199 3 LINE",
"136 1 LINE",
"90 1 LINE",
"81 1 LINE",
"70 13 LINE",
"64 31 LINE",
"63 53 LINE",
"63 63 LINE",
"63 85 LINE",
"63 168 LINE",
"60 268 LINE",
"58 375 LINE",
"58 425 LINE"
);
},
{
closed = 1;
nodes = (
"403 283 LINE",
"403 281 LINE",
"408 280 LINE",
"411 279 LINE",
"430 279 LINE",
"448 279 LINE",
"458 279 LINE",
"474 301 LINE",
"484 336 LINE",
"490 379 LINE",
"493 420 LINE",
"493 455 LINE",
"493 464 LINE",
"493 465 LINE",
"493 483 LINE",
"490 509 LINE",
"484 538 LINE",
"474 561 LINE",
"458 578 LINE",
"448 578 LINE",
"438 578 LINE",
"425 553 LINE",
"416 510 LINE",
"409 458 LINE",
"408 430 LINE",
"403 365 LINE"
);
}
);
};
layerId = UUID0;
paths = (
{
closed = 1;
nodes = (
"121 1 OFFCURVE",
"146 1 OFFCURVE",
"168 1 CURVE SMOOTH",
"209 3 OFFCURVE",
"243 3 OFFCURVE",
"278 3 CURVE SMOOTH",
"295 4 OFFCURVE",
"316 4 OFFCURVE",
"339 4 CURVE SMOOTH",
"356 4 OFFCURVE",
"370 5 OFFCURVE",
"380 13 CURVE SMOOTH",
"389 19 OFFCURVE",
"394 31 OFFCURVE",
"394 55 CURVE SMOOTH",
"394 83 OFFCURVE",
"395 96 OFFCURVE",
"395 110 CURVE",
"395 124 OFFCURVE",
"395 136 OFFCURVE",
"394 159 CURVE",
"531 159 LINE SMOOTH",
"615 159 OFFCURVE",
"686 178 OFFCURVE",
"734 223 CURVE SMOOTH",
"783 266 OFFCURVE",
"811 338 OFFCURVE",
"811 443 CURVE SMOOTH",
"811 506 OFFCURVE",
"793 553 OFFCURVE",
"764 586 CURVE SMOOTH",
"735 620 OFFCURVE",
"696 643 OFFCURVE",
"655 655 CURVE SMOOTH",
"614 668 OFFCURVE",
"571 673 OFFCURVE",
"535 673 CURVE SMOOTH",
"485 673 OFFCURVE",
"440 671 OFFCURVE",
"399 670 CURVE SMOOTH",
"358 669 OFFCURVE",
"319 669 OFFCURVE",
"283 669 CURVE SMOOTH",
"259 669 OFFCURVE",
"231 669 OFFCURVE",
"199 670 CURVE SMOOTH",
"168 670 OFFCURVE",
"128 671 OFFCURVE",
"84 671 CURVE SMOOTH",
"73 671 OFFCURVE",
"58 658 OFFCURVE",
"58 645 CURVE SMOOTH",
"58 425 LINE SMOOTH",
"58 358 OFFCURVE",
"59 283 OFFCURVE",
"61 218 CURVE SMOOTH",
"63 150 OFFCURVE",
"63 93 OFFCURVE",
"63 63 CURVE SMOOTH",
"63 49 OFFCURVE",
"63 34 OFFCURVE",
"68 23 CURVE",
"71 10 OFFCURVE",
"78 1 OFFCURVE",
"90 1 CURVE SMOOTH"
);
},
{
closed = 1;
nodes = (
"414 279 OFFCURVE",
"410 280 OFFCURVE",
"408 280 CURVE",
"404 281 OFFCURVE",
"403 283 OFFCURVE",
"403 283 CURVE SMOOTH",
"403 338 OFFCURVE",
"404 386 OFFCURVE",
"408 430 CURVE SMOOTH",
"409 448 OFFCURVE",
"410 466 OFFCURVE",
"413 484 CURVE SMOOTH",
"418 519 OFFCURVE",
"423 548 OFFCURVE",
"433 564 CURVE SMOOTH",
"438 573 OFFCURVE",
"441 578 OFFCURVE",
"448 578 CURVE SMOOTH",
"454 578 OFFCURVE",
"461 575 OFFCURVE",
"466 569 CURVE SMOOTH",
"478 559 OFFCURVE",
"483 543 OFFCURVE",
"488 523 CURVE SMOOTH",
"491 504 OFFCURVE",
"493 486 OFFCURVE",
"493 475 CURVE",
"493 468 OFFCURVE",
"493 465 OFFCURVE",
"493 464 CURVE SMOOTH",
"493 453 OFFCURVE",
"493 428 OFFCURVE",
"491 399 CURVE SMOOTH",
"489 373 OFFCURVE",
"486 343 OFFCURVE",
"479 319 CURVE SMOOTH",
"473 295 OFFCURVE",
"463 279 OFFCURVE",
"448 279 CURVE SMOOTH",
"436 279 OFFCURVE",
"428 279 OFFCURVE",
"420 279 CURVE"
);
}
);
width = 839;
}
);
leftKerningGroup = H;
rightKerningGroup = P;
unicode = 0050;
},
{
glyphname = Thorn;
lastChange = "2016-10-15 12:39:21 +0000";
layers = (
{
background = {
paths = (
{
closed = 1;
nodes = (
"58 404 LINE",
"58 441 LINE",
"60 520 LINE",
"61 589 LINE",
"63 646 LINE",
"63 663 LINE",
"63 671 LINE",
"64 693 LINE",
"69 711 LINE",
"80 723 LINE",
"89 723 LINE",
"135 723 LINE",
"198 723 LINE",
"251 721 LINE",
"304 720 LINE",
"338 720 LINE",
"353 720 LINE",
"373 718 LINE",
"386 708 LINE",
"394 688 LINE",
"394 668 LINE",
"394 658 LINE",
"394 643 LINE",
"394 629 LINE",
"395 618 LINE",
"395 613 LINE",
"428 613 LINE",
"496 613 LINE",
"534 613 LINE",
"563 613 LINE",
"624 608 LINE",
"685 591 LINE",
"743 563 LINE",
"785 519 LINE",
"811 458 LINE",
"811 418 LINE",
"811 345 LINE",
"771 248 LINE",
"698 186 LINE",
"594 159 LINE",
"530 159 LINE",
"394 159 LINE",
"394 139 LINE",
"395 113 LINE",
"394 88 LINE",
"394 59 LINE",
"394 36 LINE",
"394 18 LINE",
"386 -3 LINE",
"373 -13 LINE",
"353 -16 LINE",
"338 -16 LINE",
"304 -16 LINE",
"251 -18 LINE",
"198 -18 LINE",
"135 -19 LINE",
"89 -19 LINE",
"80 -19 LINE",
"69 -8 LINE",
"64 11 LINE",
"63 33 LINE",
"63 43 LINE",
"63 63 LINE",
"61 130 LINE",
"60 214 LINE",
"58 308 LINE",
"58 353 LINE",
"58 383 LINE",
"58 400 LINE"
);
},
{
closed = 1;
nodes = (
"401 258 LINE",
"401 258 LINE",
"408 256 LINE",
"411 255 LINE",
"429 254 LINE",
"446 254 LINE",
"458 254 LINE",
"474 278 LINE",
"484 313 LINE",
"489 354 LINE",
"493 396 LINE",
"493 430 LINE",
"493 439 LINE",
"493 440 LINE",
"493 453 LINE",
"488 471 LINE",
"479 491 LINE",
"463 508 LINE",
"439 519 LINE",
"423 519 LINE",
"418 519 LINE",
"413 496 LINE",
"408 459 LINE",
"405 413 LINE",
"404 388 LINE",
"403 331 LINE"
);
}
);
};
layerId = UUID0;
paths = (
{
closed = 1;
nodes = (
"120 -19 OFFCURVE",
"146 -19 OFFCURVE",
"168 -18 CURVE SMOOTH",
"209 -18 OFFCURVE",
"243 -18 OFFCURVE",
"278 -16 CURVE SMOOTH",
"295 -16 OFFCURVE",
"315 -16 OFFCURVE",
"338 -16 CURVE SMOOTH",
"356 -16 OFFCURVE",
"370 -15 OFFCURVE",
"379 -8 CURVE SMOOTH",
"389 -1 OFFCURVE",
"394 13 OFFCURVE",
"394 36 CURVE SMOOTH",
"394 68 OFFCURVE",
"394 84 OFFCURVE",
"395 101 CURVE SMOOTH",
"395 118 OFFCURVE",
"394 133 OFFCURVE",
"394 159 CURVE",
"530 159 LINE SMOOTH",
"615 159 OFFCURVE",
"685 175 OFFCURVE",
"734 216 CURVE SMOOTH",
"783 258 OFFCURVE",
"811 321 OFFCURVE",
"811 418 CURVE SMOOTH",
"811 473 OFFCURVE",
"793 513 OFFCURVE",
"763 541 CURVE SMOOTH",
"734 570 OFFCURVE",
"695 588 OFFCURVE",
"654 599 CURVE SMOOTH",
"613 610 OFFCURVE",
"571 613 OFFCURVE",
"534 613 CURVE SMOOTH",
"483 613 OFFCURVE",
"438 613 OFFCURVE",
"395 613 CURVE",
"395 616 OFFCURVE",
"395 620 OFFCURVE",
"395 624 CURVE",
"394 628 OFFCURVE",
"394 631 OFFCURVE",
"394 636 CURVE SMOOTH",
"394 640 OFFCURVE",
"394 644 OFFCURVE",
"394 649 CURVE",
"394 655 OFFCURVE",
"394 661 OFFCURVE",
"394 668 CURVE SMOOTH",
"394 693 OFFCURVE",
"389 706 OFFCURVE",
"379 713 CURVE SMOOTH",
"370 719 OFFCURVE",
"356 720 OFFCURVE",
"338 720 CURVE SMOOTH",
"315 720 OFFCURVE",
"295 720 OFFCURVE",
"278 720 CURVE SMOOTH",
"260 721 OFFCURVE",
"243 721 OFFCURVE",
"225 721 CURVE SMOOTH",
"189 723 OFFCURVE",
"150 723 OFFCURVE",
"89 723 CURVE SMOOTH",
"78 723 OFFCURVE",
"70 714 OFFCURVE",
"68 703 CURVE SMOOTH",
"63 690 OFFCURVE",
"63 675 OFFCURVE",
"63 663 CURVE SMOOTH",
"63 651 OFFCURVE",
"63 636 OFFCURVE",
"63 618 CURVE SMOOTH",
"63 598 OFFCURVE",
"61 578 OFFCURVE",
"61 554 CURVE SMOOTH",
"60 508 OFFCURVE",
"58 454 OFFCURVE",
"58 404 CURVE SMOOTH",
"58 400 LINE",
"58 383 LINE",
"58 353 LINE SMOOTH",
"58 323 OFFCURVE",
"59 293 OFFCURVE",
"59 261 CURVE SMOOTH",
"60 198 OFFCURVE",
"61 143 OFFCURVE",
"63 98 CURVE SMOOTH",
"63 74 OFFCURVE",
"63 56 OFFCURVE",
"63 43 CURVE SMOOTH",
"63 29 OFFCURVE",
"63 14 OFFCURVE",
"68 3 CURVE",
"70 -10 OFFCURVE",
"78 -19 OFFCURVE",
"89 -19 CURVE SMOOTH"
);
},
{
closed = 1;
nodes = (
"435 254 OFFCURVE",
"426 254 OFFCURVE",
"420 255 CURVE",
"414 255 OFFCURVE",
"409 255 OFFCURVE",
"408 256 CURVE",
"403 256 OFFCURVE",
"401 258 OFFCURVE",
"401 258 CURVE SMOOTH",
"403 306 OFFCURVE",
"403 350 OFFCURVE",
"404 388 CURVE SMOOTH",
"404 404 OFFCURVE",
"405 420 OFFCURVE",
"406 436 CURVE SMOOTH",
"408 468 OFFCURVE",
"411 493 OFFCURVE",
"415 508 CURVE SMOOTH",
"418 515 OFFCURVE",
"419 519 OFFCURVE",
"423 519 CURVE SMOOTH",
"434 519 OFFCURVE",
"443 518 OFFCURVE",
"453 513 CURVE",
"468 505 OFFCURVE",
"478 494 OFFCURVE",
"483 481 CURVE SMOOTH",
"489 468 OFFCURVE",
"493 455 OFFCURVE",
"493 448 CURVE",
"493 443 OFFCURVE",
"493 440 OFFCURVE",
"493 439 CURVE SMOOTH",
"493 428 OFFCURVE",
"493 403 OFFCURVE",
"491 375 CURVE SMOOTH",
"489 348 OFFCURVE",
"486 318 OFFCURVE",
"479 294 CURVE SMOOTH",
"473 271 OFFCURVE",
"461 254 OFFCURVE",
"446 254 CURVE SMOOTH"
);
}
);
width = 828;
}
);
leftKerningGroup = H;
rightKerningGroup = Thorn;
unicode = 00DE;
},
{
glyphname = Q;
lastChange = "2016-10-15 12:39:21 +0000";
layers = (
{
background = {
paths = (
{
closed = 1;
nodes = (
"799 355 LINE",
"799 273 LINE",
"773 154 LINE",
"726 69 LINE",
"658 16 LINE",
"615 1 LINE",
"626 -14 LINE",
"650 -48 LINE",
"669 -78 LINE",
"681 -103 LINE",
"681 -109 LINE",
"681 -119 LINE",
"661 -138 LINE",
"633 -154 LINE",
"605 -169 LINE",
"596 -176 LINE",
"588 -178 LINE",
"568 -185 LINE",
"558 -188 LINE",
"556 -188 LINE",
"534 -196 LINE",
"508 -203 LINE",
"485 -208 LINE",
"483 -208 LINE",
"483 -213 LINE",
"475 -213 LINE",
"475 -213 LINE",
"470 -213 LINE",
"463 -208 LINE",
"450 -198 LINE",
"441 -189 LINE",
"438 -184 LINE",
"436 -183 LINE",
"435 -183 LINE",
"434 -183 LINE",
"431 -181 LINE",
"429 -178 LINE",
"350 -48 LINE",
"349 -44 LINE",
"340 -29 LINE",
"335 -21 LINE",
"294 -18 LINE",
"218 -3 LINE",
"150 28 LINE",
"94 76 LINE",
"53 148 LINE",
"31 248 LINE",
"31 313 LINE",
"31 415 LINE",
"76 560 LINE",
"173 653 LINE",
"326 695 LINE",
"433 695 LINE",
"469 695 LINE",
"553 683 LINE",
"633 654 LINE",
"708 605 LINE",
"765 529 LINE",
"799 425 LINE"
);
},
{
closed = 1;
nodes = (
"370 328 LINE",
"370 313 LINE",
"371 263 LINE",
"373 206 LINE",
"378 148 LINE",
"388 101 LINE",
"404 73 LINE",
"415 73 LINE",
"426 73 LINE",
"443 105 LINE",
"453 158 LINE",
"458 221 LINE",
"460 283 LINE",
"461 333 LINE",
"461 348 LINE",
"461 353 LINE",
"460 393 LINE",
"458 449 LINE",
"453 513 LINE",
"443 565 LINE",
"426 600 LINE",
"415 600 LINE",
"404 600 LINE",
"388 578 LINE",
"378 536 LINE",
"373 483 LINE",
"371 423 LINE",
"370 358 LINE"
);
}
);
};
layerId = UUID0;
paths = (
{
closed = 1;
nodes = (
"475 -213 OFFCURVE",
"476 -213 OFFCURVE",
"479 -213 CURVE SMOOTH",
"481 -213 OFFCURVE",
"483 -211 OFFCURVE",
"483 -208 CURVE",
"484 -208 OFFCURVE",
"489 -208 OFFCURVE",
"496 -206 CURVE",
"511 -203 OFFCURVE",
"530 -198 OFFCURVE",
"545 -193 CURVE SMOOTH",
"553 -189 OFFCURVE",
"558 -188 OFFCURVE",
"558 -188 CURVE",
"565 -186 OFFCURVE",
"571 -184 OFFCURVE",
"578 -181 CURVE",
"584 -179 OFFCURVE",
"590 -178 OFFCURVE",
"596 -176 CURVE",
"603 -171 OFFCURVE",
"610 -168 OFFCURVE",
"619 -161 CURVE",
"628 -156 OFFCURVE",
"638 -151 OFFCURVE",
"648 -146 CURVE SMOOTH",
"665 -134 OFFCURVE",
"681 -123 OFFCURVE",
"681 -109 CURVE",
"681 -100 OFFCURVE",
"673 -83 OFFCURVE",
"660 -63 CURVE SMOOTH",
"648 -43 OFFCURVE",
"630 -19 OFFCURVE",
"615 1 CURVE",
"673 21 OFFCURVE",
"718 55 OFFCURVE",
"750 113 CURVE SMOOTH",
"781 168 OFFCURVE",
"799 246 OFFCURVE",
"799 355 CURVE SMOOTH",
"799 448 OFFCURVE",
"774 518 OFFCURVE",
"736 568 CURVE SMOOTH",
"698 618 OFFCURVE",
"646 649 OFFCURVE",
"593 669 CURVE SMOOTH",
"538 688 OFFCURVE",
"481 695 OFFCURVE",
"433 695 CURVE SMOOTH",
"290 695 OFFCURVE",
"189 668 OFFCURVE",
"125 606 CURVE SMOOTH",
"60 544 OFFCURVE",
"31 449 OFFCURVE",
"31 313 CURVE SMOOTH",
"31 225 OFFCURVE",
"46 160 OFFCURVE",
"74 113 CURVE SMOOTH",
"101 63 OFFCURVE",
"139 33 OFFCURVE",
"184 13 CURVE SMOOTH",
"229 -8 OFFCURVE",
"281 -18 OFFCURVE",
"335 -21 CURVE",
"343 -33 OFFCURVE",
"348 -43 OFFCURVE",
"350 -48 CURVE",
"429 -178 LINE SMOOTH",
"430 -179 OFFCURVE",
"433 -181 OFFCURVE",
"433 -181 CURVE",
"434 -183 OFFCURVE",
"436 -183 OFFCURVE",
"438 -183 CURVE",
"438 -184 OFFCURVE",
"439 -186 OFFCURVE",
"441 -189 CURVE",
"453 -201 OFFCURVE",
"460 -208 OFFCURVE",
"466 -209 CURVE",
"469 -211 OFFCURVE",
"471 -213 OFFCURVE",
"473 -213 CURVE SMOOTH",
"474 -213 OFFCURVE",
"475 -213 OFFCURVE",
"475 -213 CURVE"
);
},
{
closed = 1;
nodes = (
"400 73 OFFCURVE",
"390 93 OFFCURVE",
"383 125 CURVE SMOOTH",
"378 156 OFFCURVE",
"374 196 OFFCURVE",
"373 234 CURVE SMOOTH",
"370 271 OFFCURVE",
"370 308 OFFCURVE",
"370 328 CURVE SMOOTH",
"370 368 OFFCURVE",
"370 413 OFFCURVE",
"373 453 CURVE SMOOTH",
"374 493 OFFCURVE",
"378 529 OFFCURVE",
"383 558 CURVE SMOOTH",
"390 583 OFFCURVE",
"400 600 OFFCURVE",
"415 600 CURVE SMOOTH",
"423 600 OFFCURVE",
"429 594 OFFCURVE",
"435 583 CURVE SMOOTH",
"445 559 OFFCURVE",
"453 523 OFFCURVE",
"456 480 CURVE SMOOTH",
"459 438 OFFCURVE",
"460 399 OFFCURVE",
"461 373 CURVE SMOOTH",
"461 358 OFFCURVE",
"461 350 OFFCURVE",
"461 348 CURVE SMOOTH",
"461 338 OFFCURVE",
"461 325 OFFCURVE",
"461 308 CURVE SMOOTH",
"460 273 OFFCURVE",
"459 231 OFFCURVE",
"456 189 CURVE SMOOTH",
"453 146 OFFCURVE",
"445 110 OFFCURVE",
"435 88 CURVE SMOOTH",
"429 78 OFFCURVE",
"423 73 OFFCURVE",
"415 73 CURVE SMOOTH"
);
}
);
width = 839;
}
);
leftKerningGroup = O;
rightKerningGroup = O;
unicode = 0051;
},
{
glyphname = R;
lastChange = "2016-10-15 12:39:21 +0000";
layers = (
{
anchors = (
{
name = bottom;
position = "{438, 0}";
},
{
name = top;
position = "{438, 676}";
}
);
background = {
paths = (
{
closed = 1;
nodes = (
"563 -13 LINE",
"560 -8 LINE",
"558 -6 LINE",
"556 -6 LINE",
"555 -6 LINE",
"553 -4 LINE",
"550 -1 LINE",
"465 125 LINE",
"463 128 LINE",
"453 145 LINE",
"441 161 LINE",
"430 174 LINE",
"428 174 LINE",
"423 174 LINE",
"419 149 LINE",
"418 113 LINE",
"418 68 LINE",
"415 31 LINE",
"410 6 LINE",
"404 6 LINE",
"400 6 LINE",
"394 8 LINE",
"393 8 LINE",
"339 4 LINE",
"238 -3 LINE",
"184 -3 LINE",
"178 -3 LINE",
"156 -1 LINE",
"135 -1 LINE",
"120 -1 LINE",
"119 -1 LINE",
"83 11 LINE",
"80 19 LINE",
"78 43 LINE",
"74 78 LINE",
"71 124 LINE",
"68 170 LINE",
"64 213 LINE",
"63 228 LINE",
"61 266 LINE",
"55 345 LINE",
"55 383 LINE",
"55 385 LINE",
"58 403 LINE",
"58 423 LINE",
"60 439 LINE",
"60 443 LINE",
"60 475 LINE",
"54 533 LINE",
"54 568 LINE",
"54 590 LINE",
"58 633 LINE",
"65 666 LINE",
"80 686 LINE",
"91 686 LINE",
"146 686 LINE",
"263 685 LINE",
"380 683 LINE",
"496 678 LINE",
"549 678 LINE",
"618 675 LINE",
"713 641 LINE",
"774 586 LINE",
"803 516 LINE",
"803 478 LINE",
"803 453 LINE",
"793 410 LINE",
"778 375 LINE",
"758 348 LINE",
"746 336 LINE",
"721 311 LINE",
"689 296 LINE",
"698 289 LINE",
"705 283 LINE",
"713 276 LINE",
"726 264 LINE",
"733 260 LINE",
"738 253 LINE",
"758 229 LINE",
"783 199 LINE",
"808 166 LINE",
"830 135 LINE",
"843 110 LINE",
"843 103 LINE",
"843 93 LINE",
"824 74 LINE",
"798 56 LINE",
"769 40 LINE",
"760 33 LINE",
"743 23 LINE",
"703 1 LINE",
"680 -6 LINE",
"679 -6 LINE",
"666 -11 LINE",
"649 -18 LINE",
"630 -23 LINE",
"615 -28 LINE",
"605 -30 LINE",
"605 -29 LINE",
"603 -34 LINE",
"598 -34 LINE",
"598 -34 LINE",
"593 -34 LINE",
"584 -30 LINE",
"571 -23 LINE"
);
},
{
closed = 1;
nodes = (
"406 323 LINE",
"406 321 LINE",
"409 320 LINE",
"411 319 LINE",
"421 319 LINE",
"431 319 LINE",
"448 319 LINE",
"473 336 LINE",
"488 364 LINE",
"498 398 LINE",
"501 430 LINE",
"501 458 LINE",
"501 464 LINE",
"501 465 LINE",
"501 483 LINE",
"498 509 LINE",
"488 538 LINE",
"473 561 LINE",
"448 578 LINE",
"431 578 LINE",
"426 578 LINE",
"418 555 LINE",
"414 519 LINE",
"410 473 LINE",
"409 449 LINE",
"406 393 LINE"
);
}
);
};
layerId = UUID0;
paths = (
{
closed = 1;
nodes = (
"596 -34 OFFCURVE",
"598 -34 OFFCURVE",
"598 -34 CURVE SMOOTH",
"598 -34 OFFCURVE",
"599 -34 OFFCURVE",
"601 -34 CURVE SMOOTH",
"603 -34 OFFCURVE",
"604 -33 OFFCURVE",
"605 -29 CURVE",
"605 -29 OFFCURVE",
"606 -29 OFFCURVE",
"610 -29 CURVE SMOOTH",
"613 -28 OFFCURVE",
"618 -28 OFFCURVE",
"623 -25 CURVE SMOOTH",
"628 -24 OFFCURVE",
"634 -23 OFFCURVE",
"640 -20 CURVE SMOOTH",
"653 -16 OFFCURVE",
"664 -13 OFFCURVE",
"673 -9 CURVE",
"678 -8 OFFCURVE",
"679 -6 OFFCURVE",
"680 -6 CURVE",
"695 -1 OFFCURVE",
"709 5 OFFCURVE",
"723 13 CURVE SMOOTH",
"736 20 OFFCURVE",
"748 26 OFFCURVE",
"760 33 CURVE",
"766 38 OFFCURVE",
"774 43 OFFCURVE",
"783 48 CURVE SMOOTH",
"793 53 OFFCURVE",
"803 59 OFFCURVE",
"811 65 CURVE SMOOTH",
"829 78 OFFCURVE",
"843 89 OFFCURVE",
"843 103 CURVE SMOOTH",
"843 108 OFFCURVE",
"841 114 OFFCURVE",
"836 123 CURVE SMOOTH",
"828 140 OFFCURVE",
"813 160 OFFCURVE",
"795 183 CURVE SMOOTH",
"778 204 OFFCURVE",
"761 225 OFFCURVE",
"748 241 CURVE SMOOTH",
"741 250 OFFCURVE",
"736 255 OFFCURVE",
"733 260 CURVE",
"728 263 OFFCURVE",
"724 266 OFFCURVE",
"719 270 CURVE",
"714 274 OFFCURVE",
"709 278 OFFCURVE",
"705 283 CURVE",
"700 288 OFFCURVE",
"695 293 OFFCURVE",
"689 296 CURVE",
"710 306 OFFCURVE",
"729 319 OFFCURVE",
"746 336 CURVE SMOOTH",
"760 350 OFFCURVE",
"775 369 OFFCURVE",
"786 393 CURVE SMOOTH",
"796 416 OFFCURVE",
"803 443 OFFCURVE",
"803 478 CURVE SMOOTH",
"803 529 OFFCURVE",
"785 578 OFFCURVE",
"744 613 CURVE SMOOTH",
"703 650 OFFCURVE",
"639 674 OFFCURVE",
"549 678 CURVE SMOOTH",
"514 678 OFFCURVE",
"478 679 OFFCURVE",
"438 680 CURVE SMOOTH",
"399 681 OFFCURVE",
"360 683 OFFCURVE",
"321 683 CURVE SMOOTH",
"243 685 OFFCURVE",
"164 686 OFFCURVE",
"91 686 CURVE SMOOTH",
"76 686 OFFCURVE",
"66 671 OFFCURVE",
"61 650 CURVE SMOOTH",
"55 628 OFFCURVE",
"54 598 OFFCURVE",
"54 568 CURVE SMOOTH",
"54 544 OFFCURVE",
"55 523 OFFCURVE",
"58 504 CURVE SMOOTH",
"59 484 OFFCURVE",
"60 464 OFFCURVE",
"60 443 CURVE SMOOTH",
"60 440 OFFCURVE",
"60 438 OFFCURVE",
"59 431 CURVE SMOOTH",
"59 425 OFFCURVE",
"58 419 OFFCURVE",
"58 413 CURVE SMOOTH",
"58 406 OFFCURVE",
"58 400 OFFCURVE",
"56 394 CURVE SMOOTH",
"56 388 OFFCURVE",
"55 384 OFFCURVE",
"55 383 CURVE SMOOTH",
"55 358 OFFCURVE",
"56 333 OFFCURVE",
"58 306 CURVE SMOOTH",
"60 279 OFFCURVE",
"63 253 OFFCURVE",
"63 228 CURVE SMOOTH",
"64 218 OFFCURVE",
"65 206 OFFCURVE",
"66 191 CURVE SMOOTH",
"68 163 OFFCURVE",
"70 133 OFFCURVE",
"73 101 CURVE SMOOTH",
"75 70 OFFCURVE",
"78 46 OFFCURVE",
"79 31 CURVE",
"79 23 OFFCURVE",
"80 19 OFFCURVE",
"80 19 CURVE",
"83 11 LINE",
"119 -1 LINE",
"120 -1 OFFCURVE",
"123 -1 OFFCURVE",
"128 -1 CURVE",
"133 -1 OFFCURVE",
"139 -1 OFFCURVE",
"146 -1 CURVE SMOOTH",
"153 -1 OFFCURVE",
"159 -1 OFFCURVE",
"168 -1 CURVE",
"174 -3 OFFCURVE",
"179 -3 OFFCURVE",
"184 -3 CURVE SMOOTH",
"219 -3 OFFCURVE",
"254 -1 OFFCURVE",
"288 1 CURVE SMOOTH",
"323 3 OFFCURVE",
"358 5 OFFCURVE",
"393 8 CURVE",
"393 8 OFFCURVE",
"395 8 OFFCURVE",
"398 6 CURVE SMOOTH",
"399 6 OFFCURVE",
"403 6 OFFCURVE",
"404 6 CURVE SMOOTH",
"408 6 OFFCURVE",
"411 10 OFFCURVE",
"413 19 CURVE SMOOTH",
"416 35 OFFCURVE",
"418 61 OFFCURVE",
"418 90 CURVE SMOOTH",
"418 119 OFFCURVE",
"419 145 OFFCURVE",
"421 163 CURVE SMOOTH",
"423 170 OFFCURVE",
"424 174 OFFCURVE",
"428 174 CURVE SMOOTH",
"429 174 OFFCURVE",
"433 173 OFFCURVE",
"436 168 CURVE",
"439 163 OFFCURVE",
"443 158 OFFCURVE",
"448 153 CURVE",
"455 143 OFFCURVE",
"463 129 OFFCURVE",
"465 125 CURVE",
"550 -1 LINE",
"553 -3 OFFCURVE",
"553 -4 OFFCURVE",
"554 -5 CURVE",
"555 -5 OFFCURVE",
"556 -6 OFFCURVE",
"556 -6 CURVE SMOOTH",
"558 -6 OFFCURVE",
"558 -6 OFFCURVE",
"559 -8 CURVE SMOOTH",
"560 -8 OFFCURVE",
"561 -10 OFFCURVE",
"563 -13 CURVE",
"574 -25 OFFCURVE",
"583 -30 OFFCURVE",
"588 -33 CURVE",
"591 -34 OFFCURVE",
"593 -34 OFFCURVE",
"595 -34 CURVE SMOOTH"
);
},
{
closed = 1;
nodes = (
"413 319 OFFCURVE",
"410 320 OFFCURVE",
"409 320 CURVE SMOOTH",
"408 321 OFFCURVE",
"406 321 OFFCURVE",
"406 323 CURVE",
"406 369 OFFCURVE",
"408 413 OFFCURVE",
"409 449 CURVE SMOOTH",
"409 465 OFFCURVE",
"410 481 OFFCURVE",
"413 496 CURVE SMOOTH",
"414 528 OFFCURVE",
"418 553 OFFCURVE",
"423 566 CURVE SMOOTH",
"425 574 OFFCURVE",
"428 578 OFFCURVE",
"431 578 CURVE SMOOTH",
"443 578 OFFCURVE",
"453 575 OFFCURVE",
"460 569 CURVE SMOOTH",
"478 559 OFFCURVE",
"488 543 OFFCURVE",
"493 523 CURVE SMOOTH",
"499 504 OFFCURVE",
"501 486 OFFCURVE",
"501 475 CURVE",
"501 468 OFFCURVE",
"501 465 OFFCURVE",
"501 464 CURVE SMOOTH",
"501 454 OFFCURVE",
"501 435 OFFCURVE",
"499 414 CURVE SMOOTH",
"498 393 OFFCURVE",
"491 368 OFFCURVE",
"480 350 CURVE SMOOTH",
"470 333 OFFCURVE",
"454 319 OFFCURVE",
"431 319 CURVE SMOOTH",
"424 319 OFFCURVE",
"419 319 OFFCURVE",
"416 319 CURVE"
);
}
);
width = 873;
}
);
leftKerningGroup = H;
rightKerningGroup = R;
unicode = 0052;
},
{
glyphname = S;
lastChange = "2016-10-15 12:39:21 +0000";
layers = (
{
anchors = (
{
name = bottom;
position = "{341, 0}";
},
{
name = top;
position = "{361, 676}";
}
);
background = {
paths = (
{
closed = 1;
nodes = (
"670 201 LINE",
"666 161 LINE",
"635 96 LINE",
"588 46 LINE",
"525 10 LINE",
"454 -13 LINE",
"375 -24 LINE",
"336 -24 LINE",
"299 -24 LINE",
"228 -16 LINE",
"160 0 LINE",
"100 23 LINE",
"76 38 LINE",
"63 79 LINE",
"49 168 LINE",
"43 213 LINE",
"43 216 LINE",
"44 221 LINE",
"50 231 LINE",
"56 234 LINE",
"93 211 LINE",
"163 188 LINE",
"206 188 LINE",
"215 188 LINE",
"246 186 LINE",
"278 189 LINE",
"306 200 LINE",
"311 213 LINE",
"285 226 LINE",
"228 253 LINE",
"173 283 LINE",
"124 319 LINE",
"86 366 LINE",
"64 424 LINE",
"64 463 LINE",
"64 510 LINE",
"93 583 LINE",
"144 634 LINE",
"211 668 LINE",
"288 688 LINE",
"368 695 LINE",
"405 695 LINE",
"445 695 LINE",
"513 688 LINE",
"573 679 LINE",
"624 669 LINE",
"648 668 LINE",
"649 668 LINE",
"654 663 LINE",
"658 658 LINE",
"663 653 LINE",
"664 653 LINE",
"665 653 LINE",
"665 653 LINE",
"666 653 LINE",
"668 626 LINE",
"674 573 LINE",
"674 546 LINE",
"674 538 LINE",
"673 519 LINE",
"668 501 LINE",
"660 486 LINE",
"653 481 LINE",
"560 493 LINE",
"556 493 LINE",
"544 493 LINE",
"536 493 LINE",
"520 493 LINE",
"478 489 LINE",
"438 483 LINE",
"413 478 LINE",
"413 475 LINE",
"413 460 LINE",
"431 438 LINE",
"458 423 LINE",
"484 413 LINE",
"493 409 LINE",
"530 398 LINE",
"598 360 LINE",
"646 313 LINE",
"674 258 LINE",
"674 233 LINE",
"674 225 LINE",
"673 211 LINE"
);
}
);
};
layerId = UUID0;
paths = (
{
closed = 1;
nodes = (
"389 -24 OFFCURVE",
"443 -18 OFFCURVE",
"490 -1 CURVE SMOOTH",
"538 14 OFFCURVE",
"580 38 OFFCURVE",
"613 71 CURVE SMOOTH",
"643 104 OFFCURVE",
"665 148 OFFCURVE",
"670 201 CURVE",
"673 214 OFFCURVE",
"674 223 OFFCURVE",
"674 233 CURVE SMOOTH",
"674 266 OFFCURVE",
"654 304 OFFCURVE",
"621 336 CURVE SMOOTH",
"588 368 OFFCURVE",
"543 395 OFFCURVE",
"493 409 CURVE",
"483 413 OFFCURVE",
"463 419 OFFCURVE",
"444 430 CURVE SMOOTH",
"428 441 OFFCURVE",
"413 456 OFFCURVE",
"413 475 CURVE SMOOTH",
"413 476 OFFCURVE",
"418 478 OFFCURVE",
"425 479 CURVE SMOOTH",
"434 481 OFFCURVE",
"445 483 OFFCURVE",
"458 486 CURVE SMOOTH",
"483 490 OFFCURVE",
"515 493 OFFCURVE",
"536 493 CURVE SMOOTH",
"543 493 OFFCURVE",
"546 493 OFFCURVE",
"550 493 CURVE SMOOTH",
"554 493 OFFCURVE",
"558 493 OFFCURVE",
"560 493 CURVE",
"653 481 LINE",
"663 488 OFFCURVE",
"668 498 OFFCURVE",
"671 510 CURVE SMOOTH",
"674 521 OFFCURVE",
"674 534 OFFCURVE",
"674 546 CURVE SMOOTH",
"674 564 OFFCURVE",
"673 583 OFFCURVE",
"671 600 CURVE SMOOTH",
"668 618 OFFCURVE",
"668 635 OFFCURVE",
"666 653 CURVE",
"666 653 OFFCURVE",
"665 653 OFFCURVE",
"665 653 CURVE SMOOTH",
"665 653 OFFCURVE",
"665 653 OFFCURVE",
"664 653 CURVE",
"661 653 OFFCURVE",
"658 656 OFFCURVE",
"656 660 CURVE",
"653 663 OFFCURVE",
"650 668 OFFCURVE",
"648 668 CURVE",
"631 668 OFFCURVE",
"615 671 OFFCURVE",
"598 674 CURVE SMOOTH",
"581 678 OFFCURVE",
"563 680 OFFCURVE",
"543 684 CURVE SMOOTH",
"503 689 OFFCURVE",
"458 695 OFFCURVE",
"405 695 CURVE SMOOTH",
"354 695 OFFCURVE",
"299 690 OFFCURVE",
"249 678 CURVE SMOOTH",
"198 665 OFFCURVE",
"153 643 OFFCURVE",
"119 608 CURVE SMOOTH",
"85 574 OFFCURVE",
"64 526 OFFCURVE",
"64 463 CURVE SMOOTH",
"64 438 OFFCURVE",
"68 415 OFFCURVE",
"75 395 CURVE SMOOTH",
"90 356 OFFCURVE",
"115 325 OFFCURVE",
"148 301 CURVE SMOOTH",
"183 278 OFFCURVE",
"219 258 OFFCURVE",
"258 239 CURVE SMOOTH",
"276 230 OFFCURVE",
"294 221 OFFCURVE",
"311 213 CURVE",
"308 204 OFFCURVE",
"303 198 OFFCURVE",
"293 194 CURVE SMOOTH",
"274 188 OFFCURVE",
"251 186 OFFCURVE",
"230 188 CURVE SMOOTH",
"220 188 OFFCURVE",
"213 188 OFFCURVE",
"206 188 CURVE SMOOTH",
"148 188 OFFCURVE",
"104 204 OFFCURVE",
"56 234 CURVE",
"48 230 OFFCURVE",
"44 223 OFFCURVE",
"43 216 CURVE",
"43 213 LINE",
"51 153 OFFCURVE",
"58 93 OFFCURVE",
"76 38 CURVE",
"108 18 OFFCURVE",
"148 3 OFFCURVE",
"193 -8 CURVE SMOOTH",
"238 -18 OFFCURVE",
"288 -24 OFFCURVE",
"336 -24 CURVE SMOOTH"
);
}
);
width = 721;
}
);
leftKerningGroup = S;
rightKerningGroup = S;
unicode = 0053;
},
{
glyphname = Germandbls;
lastChange = "2016-10-15 12:39:21 +0000";
layers = (
{
background = {
paths = (
{
closed = 1;
nodes = (
"446 219 LINE",
"473 224 LINE",
"526 229 LINE",
"554 234 LINE",
"568 236 LINE",
"579 256 LINE",
"579 266 LINE",
"579 276 LINE",
"563 280 LINE",
"534 298 LINE",
"483 313 LINE",
"455 313 LINE",
"456 433 LINE",
"461 436 LINE",
"474 443 LINE",
"485 449 LINE",
"494 453 LINE",
"495 453 LINE",
"500 455 LINE",
"515 459 LINE",
"528 469 LINE",
"536 486 LINE",
"536 500 LINE",
"536 510 LINE",
"511 521 LINE",
"478 526 LINE",
"443 528 LINE",
"434 528 LINE",
"418 528 LINE",
"401 518 LINE",
"393 498 LINE",
"391 473 LINE",
"391 458 LINE",
"391 458 LINE",
"391 445 LINE",
"391 428 LINE",
"393 406 LINE",
"393 388 LINE",
"393 375 LINE",
"390 316 LINE",
"390 313 LINE",
"391 291 LINE",
"393 266 LINE",
"394 244 LINE",
"394 241 LINE",
"394 190 LINE",
"394 170 LINE",
"393 135 LINE",
"391 103 LINE",
"390 68 LINE",
"390 46 LINE",
"389 43 LINE",
"385 30 LINE",
"379 20 LINE",
"373 13 LINE",
"368 13 LINE",
"354 9 LINE",
"335 8 LINE",
"319 5 LINE",
"303 5 LINE",
"290 5 LINE",
"224 5 LINE",
"135 5 LINE",
"83 9 LINE",
"59 18 LINE",
"59 25 LINE",
"59 31 LINE",
"60 61 LINE",
"60 98 LINE",
"61 140 LINE",
"63 176 LINE",
"63 204 LINE",
"63 208 LINE",
"63 231 LINE",
"60 274 LINE",
"56 318 LINE",
"54 360 LINE",
"54 383 LINE",
"54 461 LINE",
"78 569 LINE",
"121 638 LINE",
"181 676 LINE",
"253 693 LINE",
"335 696 LINE",
"378 696 LINE",
"393 696 LINE",
"408 696 LINE",
"415 695 LINE",
"420 695 LINE",
"428 694 LINE",
"443 694 LINE",
"458 694 LINE",
"485 690 LINE",
"551 681 LINE",
"618 665 LINE",
"680 640 LINE",
"728 601 LINE",
"756 545 LINE",
"756 506 LINE",
"756 469 LINE",
"728 418 LINE",
"698 398 LINE",
"688 394 LINE",
"668 388 LINE",
"663 383 LINE",
"666 378 LINE",
"713 369 LINE",
"778 338 LINE",
"819 289 LINE",
"840 219 LINE",
"844 171 LINE",
"845 166 LINE",
"846 156 LINE",
"846 150 LINE",
"846 131 LINE",
"831 91 LINE",
"795 55 LINE",
"736 24 LINE",
"648 1 LINE",
"528 -13 LINE",
"449 -13 LINE",
"446 -13 LINE"
);
}
);
};
layerId = UUID0;
paths = (
{
closed = 1;
nodes = (
"449 -13 LINE",
"554 -13 OFFCURVE",
"633 -3 OFFCURVE",
"693 13 CURVE SMOOTH",
"751 28 OFFCURVE",
"790 49 OFFCURVE",
"813 73 CURVE SMOOTH",
"836 98 OFFCURVE",
"846 125 OFFCURVE",
"846 150 CURVE SMOOTH",
"846 154 OFFCURVE",
"846 158 OFFCURVE",
"845 161 CURVE SMOOTH",
"845 164 OFFCURVE",
"845 168 OFFCURVE",
"844 171 CURVE",
"838 235 OFFCURVE",
"826 280 OFFCURVE",
"798 313 CURVE SMOOTH",
"771 346 OFFCURVE",
"729 366 OFFCURVE",
"666 378 CURVE",
"663 383 LINE",
"666 386 OFFCURVE",
"670 389 OFFCURVE",
"678 391 CURVE",
"684 393 OFFCURVE",
"690 396 OFFCURVE",
"698 398 CURVE",
"738 424 OFFCURVE",
"756 458 OFFCURVE",
"756 506 CURVE SMOOTH",
"756 558 OFFCURVE",
"735 595 OFFCURVE",
"704 621 CURVE SMOOTH",
"673 646 OFFCURVE",
"629 663 OFFCURVE",
"585 673 CURVE SMOOTH",
"540 683 OFFCURVE",
"494 688 OFFCURVE",
"458 694 CURVE",
"448 694 OFFCURVE",
"440 694 OFFCURVE",
"435 694 CURVE",
"430 694 OFFCURVE",
"426 694 OFFCURVE",
"424 695 CURVE",
"421 695 OFFCURVE",
"419 695 OFFCURVE",
"418 695 CURVE",
"416 695 OFFCURVE",
"414 695 OFFCURVE",
"411 696 CURVE",
"409 696 OFFCURVE",
"405 696 OFFCURVE",
"400 696 CURVE",
"395 696 OFFCURVE",
"388 696 OFFCURVE",
"378 696 CURVE SMOOTH",
"320 696 OFFCURVE",
"265 696 OFFCURVE",
"218 685 CURVE SMOOTH",
"168 673 OFFCURVE",
"128 650 OFFCURVE",
"100 604 CURVE SMOOTH",
"70 558 OFFCURVE",
"54 488 OFFCURVE",
"54 383 CURVE SMOOTH",
"54 353 OFFCURVE",
"56 325 OFFCURVE",
"58 296 CURVE SMOOTH",
"60 268 OFFCURVE",
"63 239 OFFCURVE",
"63 208 CURVE SMOOTH",
"63 205 OFFCURVE",
"63 199 OFFCURVE",
"63 190 CURVE",
"63 181 OFFCURVE",
"63 170 OFFCURVE",
"63 158 CURVE",
"61 146 OFFCURVE",
"61 133 OFFCURVE",
"61 119 CURVE SMOOTH",
"60 105 OFFCURVE",
"60 93 OFFCURVE",
"60 80 CURVE",
"60 68 OFFCURVE",
"60 56 OFFCURVE",
"60 46 CURVE",
"59 36 OFFCURVE",
"59 29 OFFCURVE",
"59 25 CURVE SMOOTH",
"59 20 OFFCURVE",
"63 16 OFFCURVE",
"70 13 CURVE",
"78 10 OFFCURVE",
"90 8 OFFCURVE",
"108 8 CURVE SMOOTH",
"126 6 OFFCURVE",
"150 5 OFFCURVE",
"180 5 CURVE SMOOTH",
"209 5 OFFCURVE",
"246 5 OFFCURVE",
"290 5 CURVE SMOOTH",
"298 5 OFFCURVE",
"305 5 OFFCURVE",
"311 5 CURVE SMOOTH",
"316 5 OFFCURVE",
"323 6 OFFCURVE",
"328 6 CURVE SMOOTH",
"338 8 OFFCURVE",
"349 8 OFFCURVE",
"368 13 CURVE",
"373 13 OFFCURVE",
"378 19 OFFCURVE",
"383 25 CURVE SMOOTH",
"386 33 OFFCURVE",
"388 41 OFFCURVE",
"390 46 CURVE",
"390 74 OFFCURVE",
"391 96 OFFCURVE",
"393 118 CURVE SMOOTH",
"393 140 OFFCURVE",
"394 163 OFFCURVE",
"394 190 CURVE SMOOTH",
"394 241 LINE SMOOTH",
"394 243 OFFCURVE",
"394 248 OFFCURVE",
"393 255 CURVE SMOOTH",
"393 263 OFFCURVE",
"393 270 OFFCURVE",
"393 278 CURVE SMOOTH",
"391 295 OFFCURVE",
"390 313 OFFCURVE",
"390 316 CURVE SMOOTH",
"393 375 LINE SMOOTH",
"393 375 OFFCURVE",
"393 378 OFFCURVE",
"393 383 CURVE SMOOTH",
"393 386 OFFCURVE",
"393 391 OFFCURVE",
"393 398 CURVE SMOOTH",
"393 403 OFFCURVE",
"393 409 OFFCURVE",
"393 418 CURVE",
"391 423 OFFCURVE",
"391 430 OFFCURVE",
"391 436 CURVE SMOOTH",
"391 443 OFFCURVE",
"391 448 OFFCURVE",
"391 451 CURVE SMOOTH",
"391 455 OFFCURVE",
"391 458 OFFCURVE",
"391 458 CURVE SMOOTH",
"391 476 OFFCURVE",
"391 494 OFFCURVE",
"398 508 CURVE SMOOTH",
"403 520 OFFCURVE",
"413 528 OFFCURVE",
"434 528 CURVE SMOOTH",
"445 528 OFFCURVE",
"471 528 OFFCURVE",
"494 523 CURVE SMOOTH",
"518 520 OFFCURVE",
"536 513 OFFCURVE",
"536 500 CURVE SMOOTH",
"536 491 OFFCURVE",
"535 483 OFFCURVE",
"533 478 CURVE",
"526 466 OFFCURVE",
"518 460 OFFCURVE",
"508 458 CURVE SMOOTH",
"503 456 OFFCURVE",
"499 455 OFFCURVE",
"495 453 CURVE",
"494 453 OFFCURVE",
"493 453 OFFCURVE",
"490 451 CURVE",
"488 450 OFFCURVE",
"483 448 OFFCURVE",
"479 446 CURVE",
"476 443 OFFCURVE",
"473 441 OFFCURVE",
"468 439 CURVE SMOOTH",
"463 438 OFFCURVE",
"459 435 OFFCURVE",
"456 433 CURVE",
"455 313 LINE",
"493 311 OFFCURVE",
"524 304 OFFCURVE",
"563 280 CURVE",
"573 278 OFFCURVE",
"579 273 OFFCURVE",
"579 266 CURVE SMOOTH",
"579 253 OFFCURVE",
"571 238 OFFCURVE",
"554 234 CURVE SMOOTH",
"536 231 OFFCURVE",
"518 229 OFFCURVE",
"500 228 CURVE SMOOTH",
"483 225 OFFCURVE",
"464 223 OFFCURVE",
"446 219 CURVE",
"446 -13 LINE"
);
}
);
width = 885;
}
);
leftKerningGroup = H;
rightKerningGroup = S;
unicode = 1E9E;
},
{
glyphname = Schwa;
lastChange = "2016-10-15 12:39:21 +0000";
layers = (
{
anchors = (
{
name = bottom;
position = "{430, 0}";
},
{
name = top;
position = "{430, 676}";
}
);
background = {
paths = (
{
closed = 1;
nodes = (
"1423 598 LINE",
"1348 648 LINE",
"1266 676 LINE",
"1184 688 LINE",
"980 688 LINE",
"795 661 LINE",
"778 638 LINE",
"778 493 LINE",
"794 475 LINE",
"921 498 LINE",
"1008 503 LINE",
"1034 503 LINE",
"1115 485 LINE",
"1161 448 LINE",
"1168 426 LINE",
"1173 386 LINE",
"1174 355 LINE",
"1133 353 LINE",
"1011 351 LINE",
"765 353 LINE",
"746 333 LINE",
"746 235 LINE",
"778 125 LINE",
"833 50 LINE",
"908 6 LINE",
"993 -18 LINE",
"1089 -24 LINE",
"1194 -24 LINE",
"1293 -13 LINE",
"1378 19 LINE",
"1443 73 LINE",
"1490 158 LINE",
"1514 275 LINE",
"1514 418 LINE",
"1480 523 LINE"
);
},
{
closed = 1;
nodes = (
"1168 149 LINE",
"1158 103 LINE",
"1141 73 LINE",
"1118 73 LINE",
"1103 98 LINE",
"1093 141 LINE",
"1088 180 LINE",
"1085 208 LINE",
"1085 238 LINE",
"1119 236 LINE",
"1176 240 LINE",
"1176 225 LINE",
"1173 194 LINE"
);
},
{
closed = 1;
nodes = (
"478 241 LINE",
"478 224 OFFCURVE",
"476 206 OFFCURVE",
"473 189 CURVE SMOOTH",
"465 146 OFFCURVE",
"463 110 OFFCURVE",
"451 88 CURVE SMOOTH",
"445 78 OFFCURVE",
"439 73 OFFCURVE",
"430 73 CURVE SMOOTH",
"414 73 OFFCURVE",
"403 93 OFFCURVE",
"396 125 CURVE SMOOTH",
"390 156 OFFCURVE",
"385 196 OFFCURVE",
"384 234 CURVE"
);
}
);
};
layerId = UUID0;
paths = (
{
closed = 1;
nodes = (
"573 -14 LINE SMOOTH",
"713 3 OFFCURVE",
"815 154 OFFCURVE",
"814 305 CURVE SMOOTH",
"813 388 LINE SMOOTH",
"813 538 OFFCURVE",
"694 660 OFFCURVE",
"545 676 CURVE SMOOTH",
"454 686 LINE",
"321 688 LINE SMOOTH",
"258 688 OFFCURVE",
"148 674 OFFCURVE",
"95 661 CURVE",
"78 638 LINE",
"78 493 LINE",
"94 475 LINE",
"136 483 OFFCURVE",
"193 496 OFFCURVE",
"236 498 CURVE SMOOTH",
"308 503 LINE",
"329 503 LINE",
"361 496 OFFCURVE",
"388 494 OFFCURVE",
"413 483 CURVE SMOOTH",
"448 469 OFFCURVE",
"463 453 OFFCURVE",
"468 426 CURVE",
"473 386 LINE",
"474 355 LINE",
"433 353 LINE",
"311 351 LINE",
"65 353 LINE",
"46 333 LINE",
"46 235 LINE SMOOTH",
"46 93 OFFCURVE",
"166 -16 OFFCURVE",
"368 -21 CURVE SMOOTH",
"494 -24 LINE"
);
},
{
closed = 1;
nodes = (
"414 73 OFFCURVE",
"403 93 OFFCURVE",
"396 125 CURVE SMOOTH",
"390 156 OFFCURVE",
"385 196 OFFCURVE",
"384 234 CURVE",
"478 241 LINE",
"478 224 OFFCURVE",
"476 206 OFFCURVE",
"473 189 CURVE SMOOTH",
"465 146 OFFCURVE",
"463 110 OFFCURVE",
"451 88 CURVE SMOOTH",
"445 78 OFFCURVE",
"439 73 OFFCURVE",
"430 73 CURVE SMOOTH"
);
}
);
width = 859;
}
);
leftKerningGroup = O;
leftMetricsKey = O;
rightKerningGroup = O;
rightMetricsKey = O;
unicode = 018F;
},
{
glyphname = T;
lastChange = "2016-10-15 12:39:21 +0000";
layers = (
{
anchors = (
{
name = bottom;
position = "{361, 0}";
},
{
name = center;
position = "{361, 338}";
},
{
name = top;
position = "{361, 676}";
}
);
background = {
paths = (
{
closed = 1;
nodes = (
"189 449 LINE",
"189 450 LINE",
"186 453 LINE",
"75 453 LINE",
"61 453 LINE",
"46 485 LINE",
"39 531 LINE",
"38 578 LINE",
"38 594 LINE",
"38 598 LINE",
"38 615 LINE",
"39 633 LINE",
"39 646 LINE",
"39 648 LINE",
"39 654 LINE",
"50 663 LINE",
"66 668 LINE",
"83 668 LINE",
"89 668 LINE",
"126 668 LINE",
"203 666 LINE",
"240 666 LINE",
"600 666 LINE",
"633 666 LINE",
"669 663 LINE",
"686 656 LINE",
"688 645 LINE",
"688 638 LINE",
"688 473 LINE",
"688 466 LINE",
"683 460 LINE",
"674 458 LINE",
"665 456 LINE",
"663 456 LINE",
"648 456 LINE",
"615 456 LINE",
"580 456 LINE",
"546 458 LINE",
"533 458 LINE",
"528 458 LINE",
"524 456 LINE",
"521 453 LINE",
"521 443 LINE",
"521 433 LINE",
"521 426 LINE",
"520 373 LINE",
"518 285 LINE",
"513 193 LINE",
"510 148 LINE",
"510 53 LINE",
"510 33 LINE",
"503 14 LINE",
"488 5 LINE",
"466 3 LINE",
"453 3 LINE",
"421 3 LINE",
"373 1 LINE",
"323 0 LINE",
"263 -1 LINE",
"221 -1 LINE",
"208 -1 LINE",
"193 34 LINE",
"185 95 LINE",
"185 179 LINE",
"188 276 LINE",
"189 394 LINE"
);
}
);
};
layerId = UUID0;
paths = (
{
closed = 1;
nodes = (
"248 -1 OFFCURVE",
"273 -1 OFFCURVE",
"293 0 CURVE SMOOTH",
"333 0 OFFCURVE",
"365 1 OFFCURVE",
"398 1 CURVE SMOOTH",
"414 3 OFFCURVE",
"433 3 OFFCURVE",
"453 3 CURVE",
"461 3 OFFCURVE",
"470 4 OFFCURVE",
"478 4 CURVE SMOOTH",
"485 5 OFFCURVE",
"491 8 OFFCURVE",
"496 10 CURVE SMOOTH",
"505 16 OFFCURVE",
"510 28 OFFCURVE",
"510 53 CURVE SMOOTH",
"510 148 LINE",
"513 178 OFFCURVE",
"514 208 OFFCURVE",
"516 239 CURVE SMOOTH",
"519 300 OFFCURVE",
"520 353 OFFCURVE",
"521 389 CURVE SMOOTH",
"521 408 OFFCURVE",
"521 418 OFFCURVE",
"521 423 CURVE SMOOTH",
"521 429 OFFCURVE",
"521 434 OFFCURVE",
"521 438 CURVE SMOOTH",
"521 440 OFFCURVE",
"523 443 OFFCURVE",
"523 444 CURVE",
"524 448 OFFCURVE",
"528 448 OFFCURVE",
"533 448 CURVE SMOOTH",
"543 448 OFFCURVE",
"553 448 OFFCURVE",
"563 448 CURVE",
"575 446 OFFCURVE",
"586 446 OFFCURVE",
"598 446 CURVE SMOOTH",
"609 446 OFFCURVE",
"620 446 OFFCURVE",
"631 446 CURVE SMOOTH",
"643 446 OFFCURVE",
"653 446 OFFCURVE",
"663 446 CURVE SMOOTH",
"666 446 OFFCURVE",
"673 446 OFFCURVE",
"679 448 CURVE SMOOTH",
"684 450 OFFCURVE",
"688 454 OFFCURVE",
"688 463 CURVE SMOOTH",
"688 628 LINE SMOOTH",
"688 638 OFFCURVE",
"688 645 OFFCURVE",
"678 649 CURVE SMOOTH",
"673 653 OFFCURVE",
"663 653 OFFCURVE",
"651 655 CURVE",
"639 656 OFFCURVE",
"623 656 OFFCURVE",
"600 656 CURVE SMOOTH",
"240 656 LINE SMOOTH",
"215 656 OFFCURVE",
"190 658 OFFCURVE",
"165 658 CURVE SMOOTH",
"139 658 OFFCURVE",
"114 658 OFFCURVE",
"89 658 CURVE SMOOTH",
"83 658 OFFCURVE",
"69 658 OFFCURVE",
"59 655 CURVE SMOOTH",
"48 653 OFFCURVE",
"39 646 OFFCURVE",
"39 638 CURVE SMOOTH",
"39 636 OFFCURVE",
"39 634 OFFCURVE",
"39 629 CURVE",
"39 625 OFFCURVE",
"39 620 OFFCURVE",
"39 614 CURVE",
"38 608 OFFCURVE",
"38 603 OFFCURVE",
"38 598 CURVE",
"38 591 OFFCURVE",
"38 586 OFFCURVE",
"38 584 CURVE SMOOTH",
"38 563 OFFCURVE",
"38 528 OFFCURVE",
"43 498 CURVE SMOOTH",
"48 468 OFFCURVE",
"56 443 OFFCURVE",
"75 443 CURVE SMOOTH",
"186 443 LINE",
"188 440 OFFCURVE",
"189 439 OFFCURVE",
"189 439 CURVE SMOOTH",
"189 403 OFFCURVE",
"189 366 OFFCURVE",
"188 331 CURVE SMOOTH",
"186 258 OFFCURVE",
"185 193 OFFCURVE",
"185 138 CURVE SMOOTH",
"185 83 OFFCURVE",
"190 40 OFFCURVE",
"200 18 CURVE SMOOTH",
"205 5 OFFCURVE",
"211 -1 OFFCURVE",
"221 -1 CURVE SMOOTH"
);
}
);
width = 723;
}
);
leftKerningGroup = T;
rightKerningGroup = T;
unicode = 0054;
},
{
glyphname = Tbar;
lastChange = "2016-10-15 12:39:21 +0000";
layers = (
{
background = {
paths = (
{
closed = 1;
nodes = (
"189 439 LINE",
"189 440 LINE",
"186 443 LINE",
"75 443 LINE",
"61 443 LINE",
"46 475 LINE",
"39 521 LINE",
"38 568 LINE",
"38 584 LINE",
"38 588 LINE",
"38 605 LINE",
"39 623 LINE",
"39 636 LINE",
"39 638 LINE",
"39 644 LINE",
"50 653 LINE",
"66 658 LINE",
"83 658 LINE",
"89 658 LINE",
"126 658 LINE",
"203 656 LINE",
"240 656 LINE",
"600 656 LINE",
"633 656 LINE",
"669 653 LINE",
"686 646 LINE",
"688 635 LINE",
"688 628 LINE",
"688 463 LINE",
"688 456 LINE",
"683 450 LINE",
"674 448 LINE",
"665 446 LINE",
"663 446 LINE",
"598 446 LINE",
"580 446 LINE",
"546 448 LINE",
"533 448 LINE",
"528 448 LINE",
"524 446 LINE",
"521 443 LINE",
"521 433 LINE",
"521 423 LINE",
"521 416 LINE",
"520 363 LINE",
"519 324 LINE",
"539 324 LINE",
"549 324 LINE",
"573 323 LINE",
"593 319 LINE",
"605 313 LINE",
"605 305 LINE",
"605 294 LINE",
"606 280 LINE",
"606 271 LINE",
"608 263 LINE",
"608 254 LINE",
"608 241 LINE",
"608 230 LINE",
"608 223 LINE",
"608 208 LINE",
"601 196 LINE",
"589 188 LINE",
"579 188 LINE",
"555 188 LINE",
"538 188 LINE",
"524 188 LINE",
"513 189 LINE",
"510 148 LINE",
"510 53 LINE",
"510 33 LINE",
"503 14 LINE",
"488 5 LINE",
"466 3 LINE",
"453 3 LINE",
"421 3 LINE",
"373 1 LINE",
"323 0 LINE",
"263 -1 LINE",
"221 -1 LINE",
"208 -1 LINE",
"193 34 LINE",
"185 95 LINE",
"185 138 LINE",
"185 163 LINE",
"185 191 LINE",
"169 191 LINE",
"154 191 LINE",
"138 191 LINE",
"111 194 LINE",
"94 203 LINE",
"94 211 LINE",
"94 228 LINE",
"94 250 LINE",
"94 271 LINE",
"93 294 LINE",
"93 310 LINE",
"93 313 LINE",
"99 319 LINE",
"108 324 LINE",
"118 328 LINE",
"123 328 LINE",
"188 328 LINE",
"188 330 LINE",
"189 384 LINE"
);
}
);
};
layerId = UUID0;
paths = (
{
closed = 1;
nodes = (
"248 -1 OFFCURVE",
"273 -1 OFFCURVE",
"293 0 CURVE SMOOTH",
"333 0 OFFCURVE",
"365 1 OFFCURVE",
"398 1 CURVE SMOOTH",
"414 3 OFFCURVE",
"433 3 OFFCURVE",
"453 3 CURVE",
"461 3 OFFCURVE",
"470 4 OFFCURVE",
"478 4 CURVE SMOOTH",
"485 5 OFFCURVE",
"491 8 OFFCURVE",
"496 10 CURVE SMOOTH",
"505 16 OFFCURVE",
"510 28 OFFCURVE",
"510 53 CURVE SMOOTH",
"510 148 LINE",
"513 189 LINE",
"528 188 OFFCURVE",
"548 188 OFFCURVE",
"579 188 CURVE SMOOTH",
"593 188 OFFCURVE",
"600 194 OFFCURVE",
"604 203 CURVE SMOOTH",
"608 210 OFFCURVE",
"608 221 OFFCURVE",
"608 230 CURVE SMOOTH",
"608 238 OFFCURVE",
"608 243 OFFCURVE",
"608 248 CURVE SMOOTH",
"608 253 OFFCURVE",
"608 255 OFFCURVE",
"608 259 CURVE",
"608 263 OFFCURVE",
"608 265 OFFCURVE",
"608 268 CURVE",
"606 270 OFFCURVE",
"606 273 OFFCURVE",
"606 275 CURVE",
"606 283 OFFCURVE",
"605 290 OFFCURVE",
"605 305 CURVE SMOOTH",
"605 314 OFFCURVE",
"596 319 OFFCURVE",
"583 321 CURVE SMOOTH",
"569 324 OFFCURVE",
"553 324 OFFCURVE",
"539 324 CURVE SMOOTH",
"519 324 LINE",
"520 349 OFFCURVE",
"520 371 OFFCURVE",
"521 389 CURVE SMOOTH",
"521 408 OFFCURVE",
"521 418 OFFCURVE",
"521 423 CURVE SMOOTH",
"521 429 OFFCURVE",
"521 434 OFFCURVE",
"521 438 CURVE SMOOTH",
"521 440 OFFCURVE",
"523 443 OFFCURVE",
"523 444 CURVE",
"524 448 OFFCURVE",
"528 448 OFFCURVE",
"533 448 CURVE SMOOTH",
"543 448 OFFCURVE",
"553 448 OFFCURVE",
"563 448 CURVE",
"575 446 OFFCURVE",
"586 446 OFFCURVE",
"598 446 CURVE SMOOTH",
"663 446 LINE SMOOTH",
"666 446 OFFCURVE",
"673 446 OFFCURVE",
"679 448 CURVE SMOOTH",
"684 450 OFFCURVE",
"688 454 OFFCURVE",
"688 463 CURVE SMOOTH",
"688 628 LINE SMOOTH",
"688 638 OFFCURVE",
"688 645 OFFCURVE",
"678 649 CURVE SMOOTH",
"673 653 OFFCURVE",
"663 653 OFFCURVE",
"651 655 CURVE",
"639 656 OFFCURVE",
"623 656 OFFCURVE",
"600 656 CURVE SMOOTH",
"240 656 LINE SMOOTH",
"215 656 OFFCURVE",
"190 658 OFFCURVE",
"165 658 CURVE SMOOTH",
"139 658 OFFCURVE",
"114 658 OFFCURVE",
"89 658 CURVE SMOOTH",
"83 658 OFFCURVE",
"69 658 OFFCURVE",
"59 655 CURVE SMOOTH",
"48 653 OFFCURVE",
"39 646 OFFCURVE",
"39 638 CURVE SMOOTH",
"39 636 OFFCURVE",
"39 634 OFFCURVE",
"39 629 CURVE",
"39 625 OFFCURVE",
"39 620 OFFCURVE",
"39 614 CURVE",
"38 608 OFFCURVE",
"38 603 OFFCURVE",
"38 598 CURVE",
"38 591 OFFCURVE",
"38 586 OFFCURVE",
"38 584 CURVE SMOOTH",
"38 563 OFFCURVE",
"38 528 OFFCURVE",
"43 498 CURVE SMOOTH",
"48 468 OFFCURVE",
"56 443 OFFCURVE",
"75 443 CURVE SMOOTH",
"186 443 LINE",
"188 440 OFFCURVE",
"189 439 OFFCURVE",
"189 439 CURVE SMOOTH",
"189 403 OFFCURVE",
"189 366 OFFCURVE",
"188 330 CURVE SMOOTH",
"188 328 LINE",
"123 328 LINE SMOOTH",
"116 328 OFFCURVE",
"109 325 OFFCURVE",
"103 323 CURVE SMOOTH",
"98 318 OFFCURVE",
"93 314 OFFCURVE",
"93 310 CURVE SMOOTH",
"93 300 OFFCURVE",
"93 291 OFFCURVE",
"94 283 CURVE",
"94 275 OFFCURVE",
"94 268 OFFCURVE",
"94 261 CURVE SMOOTH",
"94 253 OFFCURVE",
"94 246 OFFCURVE",
"94 238 CURVE",
"94 230 OFFCURVE",
"94 221 OFFCURVE",
"94 211 CURVE SMOOTH",
"94 206 OFFCURVE",
"98 201 OFFCURVE",
"103 198 CURVE SMOOTH",
"114 193 OFFCURVE",
"133 191 OFFCURVE",
"154 191 CURVE",
"165 191 OFFCURVE",
"174 191 OFFCURVE",
"185 191 CURVE",
"185 173 OFFCURVE",
"185 154 OFFCURVE",
"185 138 CURVE SMOOTH",
"185 83 OFFCURVE",
"190 40 OFFCURVE",
"200 18 CURVE SMOOTH",
"205 5 OFFCURVE",
"211 -1 OFFCURVE",
"221 -1 CURVE SMOOTH"
);
}
);
width = 723;
}
);
leftKerningGroup = T;
rightKerningGroup = T;
unicode = 0166;
},
{
glyphname = U;
lastChange = "2016-10-15 12:39:21 +0000";
layers = (
{
anchors = (
{
name = bottom;
position = "{443, 0}";
},
{
name = ogonek;
position = "{796, 10}";
},
{
name = top;
position = "{443, 676}";
},
{
name = topright;
position = "{691, 671}";
}
);
background = {
paths = (
{
closed = 1;
nodes = (
"503 35 LINE",
"478 23 LINE",
"419 1 LINE",
"359 -15 LINE",
"296 -23 LINE",
"265 -23 LINE",
"215 -23 LINE",
"145 0 LINE",
"98 43 LINE",
"71 99 LINE",
"58 168 LINE",
"55 245 LINE",
"55 286 LINE",
"55 326 LINE",
"59 406 LINE",
"64 488 LINE",
"68 573 LINE",
"68 615 LINE",
"68 626 LINE",
"64 646 LINE",
"64 658 LINE",
"64 668 LINE",
"85 674 LINE",
"98 674 LINE",
"128 674 LINE",
"188 675 LINE",
"249 673 LINE",
"313 668 LINE",
"344 661 LINE",
"358 658 LINE",
"375 648 LINE",
"384 633 LINE",
"388 608 LINE",
"388 589 LINE",
"388 549 LINE",
"385 465 LINE",
"383 373 LINE",
"380 265 LINE",
"380 203 LINE",
"380 166 LINE",
"386 133 LINE",
"399 133 LINE",
"415 133 LINE",
"445 141 LINE",
"458 146 LINE",
"473 153 LINE",
"486 161 LINE",
"486 563 LINE",
"484 574 LINE",
"483 598 LINE",
"481 618 LINE",
"481 633 LINE",
"481 634 LINE",
"481 643 LINE",
"484 655 LINE",
"493 663 LINE",
"508 665 LINE",
"521 665 LINE",
"533 665 LINE",
"573 668 LINE",
"619 669 LINE",
"660 671 LINE",
"669 673 LINE",
"671 673 LINE",
"691 671 LINE",
"703 670 LINE",
"716 669 LINE",
"733 669 LINE",
"768 665 LINE",
"806 658 LINE",
"825 649 LINE",
"830 641 LINE",
"830 636 LINE",
"830 561 LINE",
"826 413 LINE",
"821 266 LINE",
"818 118 LINE",
"818 43 LINE",
"818 23 LINE",
"800 3 LINE",
"780 3 LINE",
"773 3 LINE",
"746 3 LINE",
"713 1 LINE",
"674 0 LINE",
"656 -1 LINE",
"613 -3 LINE",
"563 -5 LINE",
"538 -5 LINE",
"508 14 LINE"
);
}
);
};
layerId = UUID0;
paths = (
{
closed = 1;
nodes = (
"306 -23 OFFCURVE",
"349 -18 OFFCURVE",
"389 -8 CURVE SMOOTH",
"430 3 OFFCURVE",
"469 18 OFFCURVE",
"503 35 CURVE",
"510 6 OFFCURVE",
"528 -5 OFFCURVE",
"563 -5 CURVE",
"595 -3 OFFCURVE",
"626 -3 OFFCURVE",
"656 -1 CURVE SMOOTH",
"681 0 OFFCURVE",
"708 1 OFFCURVE",
"729 3 CURVE SMOOTH",
"753 3 OFFCURVE",
"771 3 OFFCURVE",
"780 3 CURVE SMOOTH",
"806 3 OFFCURVE",
"818 16 OFFCURVE",
"818 43 CURVE SMOOTH",
"818 143 OFFCURVE",
"821 241 OFFCURVE",
"824 339 CURVE SMOOTH",
"828 438 OFFCURVE",
"830 535 OFFCURVE",
"830 636 CURVE SMOOTH",
"830 643 OFFCURVE",
"829 648 OFFCURVE",
"816 653 CURVE SMOOTH",
"810 655 OFFCURVE",
"800 658 OFFCURVE",
"788 661 CURVE",
"774 664 OFFCURVE",
"756 668 OFFCURVE",
"733 669 CURVE",
"723 669 OFFCURVE",
"713 670 OFFCURVE",
"703 670 CURVE SMOOTH",
"695 671 OFFCURVE",
"688 671 OFFCURVE",
"683 671 CURVE SMOOTH",
"675 673 OFFCURVE",
"671 673 OFFCURVE",
"669 673 CURVE",
"663 671 OFFCURVE",
"653 670 OFFCURVE",
"640 670 CURVE SMOOTH",
"626 669 OFFCURVE",
"611 668 OFFCURVE",
"596 668 CURVE SMOOTH",
"565 666 OFFCURVE",
"535 665 OFFCURVE",
"521 665 CURVE SMOOTH",
"503 665 OFFCURVE",
"494 664 OFFCURVE",
"488 659 CURVE",
"483 654 OFFCURVE",
"481 646 OFFCURVE",
"481 634 CURVE SMOOTH",
"481 633 OFFCURVE",
"481 629 OFFCURVE",
"481 625 CURVE SMOOTH",
"481 620 OFFCURVE",
"481 614 OFFCURVE",
"483 608 CURVE",
"483 594 OFFCURVE",
"484 578 OFFCURVE",
"486 563 CURVE",
"486 161 LINE",
"478 156 OFFCURVE",
"468 151 OFFCURVE",
"458 146 CURVE SMOOTH",
"441 139 OFFCURVE",
"420 133 OFFCURVE",
"399 133 CURVE SMOOTH",
"390 133 OFFCURVE",
"385 138 OFFCURVE",
"383 149 CURVE",
"381 160 OFFCURVE",
"380 178 OFFCURVE",
"380 203 CURVE SMOOTH",
"380 286 OFFCURVE",
"383 356 OFFCURVE",
"384 418 CURVE SMOOTH",
"386 481 OFFCURVE",
"388 536 OFFCURVE",
"388 589 CURVE SMOOTH",
"388 614 OFFCURVE",
"386 630 OFFCURVE",
"380 641 CURVE",
"374 650 OFFCURVE",
"363 656 OFFCURVE",
"344 661 CURVE",
"323 666 OFFCURVE",
"303 668 OFFCURVE",
"281 670 CURVE SMOOTH",
"239 674 OFFCURVE",
"198 675 OFFCURVE",
"158 674 CURVE SMOOTH",
"138 674 OFFCURVE",
"118 674 OFFCURVE",
"98 674 CURVE SMOOTH",
"81 674 OFFCURVE",
"64 671 OFFCURVE",
"64 658 CURVE SMOOTH",
"64 650 OFFCURVE",
"65 643 OFFCURVE",
"66 636 CURVE SMOOTH",
"68 630 OFFCURVE",
"68 623 OFFCURVE",
"68 615 CURVE SMOOTH",
"68 558 OFFCURVE",
"65 503 OFFCURVE",
"63 448 CURVE SMOOTH",
"58 393 OFFCURVE",
"55 339 OFFCURVE",
"55 286 CURVE SMOOTH",
"55 231 OFFCURVE",
"56 179 OFFCURVE",
"65 133 CURVE SMOOTH",
"74 88 OFFCURVE",
"90 48 OFFCURVE",
"121 21 CURVE SMOOTH",
"153 -8 OFFCURVE",
"198 -23 OFFCURVE",
"265 -23 CURVE SMOOTH"
);
}
);
width = 885;
}
);
leftKerningGroup = U;
rightKerningGroup = U;
unicode = 0055;
},
{
glyphname = Uhorn;
lastChange = "2016-10-15 12:39:21 +0000";
layers = (
{
anchors = (
{
name = bottom;
position = "{443, 0}";
},
{
name = top;
position = "{443, 676}";
}
);
background = {
paths = (
{
closed = 1;
nodes = (
"919 805 LINE",
"924 786 LINE",
"928 745 LINE",
"928 723 LINE",
"928 680 LINE",
"903 603 LINE",
"874 560 LINE",
"843 524 LINE",
"798 504 LINE",
"748 489 LINE",
"691 528 LINE",
"691 671 LINE",
"706 671 LINE",
"733 683 LINE",
"754 704 LINE",
"765 733 LINE",
"765 749 LINE",
"765 758 LINE",
"763 791 LINE",
"758 809 LINE"
);
},
{
closed = 1;
nodes = (
"503 35 LINE",
"478 23 LINE",
"419 1 LINE",
"359 -15 LINE",
"296 -23 LINE",
"265 -23 LINE",
"215 -23 LINE",
"145 0 LINE",
"98 43 LINE",
"71 99 LINE",
"58 168 LINE",
"55 245 LINE",
"55 286 LINE",
"55 326 LINE",
"59 406 LINE",
"64 488 LINE",
"68 573 LINE",
"68 615 LINE",
"68 626 LINE",
"64 646 LINE",
"64 658 LINE",
"64 668 LINE",
"85 674 LINE",
"98 674 LINE",
"128 674 LINE",
"188 675 LINE",
"249 673 LINE",
"313 668 LINE",
"344 661 LINE",
"358 658 LINE",
"375 648 LINE",
"384 633 LINE",
"388 608 LINE",
"388 589 LINE",
"388 549 LINE",
"385 465 LINE",
"383 373 LINE",
"380 265 LINE",
"380 203 LINE",
"380 166 LINE",
"386 133 LINE",
"399 133 LINE",
"415 133 LINE",
"445 141 LINE",
"458 146 LINE",
"473 153 LINE",
"486 161 LINE",
"486 563 LINE",
"484 574 LINE",
"483 598 LINE",
"481 618 LINE",
"481 633 LINE",
"481 634 LINE",
"481 643 LINE",
"484 655 LINE",
"493 663 LINE",
"508 665 LINE",
"521 665 LINE",
"533 665 LINE",
"573 668 LINE",
"619 669 LINE",
"660 671 LINE",
"669 673 LINE",
"671 673 LINE",
"691 671 LINE",
"703 670 LINE",
"716 669 LINE",
"733 669 LINE",
"768 665 LINE",
"806 658 LINE",
"825 649 LINE",
"830 641 LINE",
"830 636 LINE",
"830 561 LINE",
"826 413 LINE",
"821 266 LINE",
"818 118 LINE",
"818 43 LINE",
"818 23 LINE",
"800 3 LINE",
"780 3 LINE",
"773 3 LINE",
"746 3 LINE",
"713 1 LINE",
"674 0 LINE",
"656 -1 LINE",
"613 -3 LINE",
"563 -5 LINE",
"538 -5 LINE",
"508 14 LINE"
);
}
);
};
layerId = UUID0;
paths = (
{
closed = 1;
nodes = (
"306 -23 OFFCURVE",
"349 -18 OFFCURVE",
"389 -8 CURVE SMOOTH",
"430 3 OFFCURVE",
"469 18 OFFCURVE",
"503 35 CURVE",
"510 6 OFFCURVE",
"528 -5 OFFCURVE",
"563 -5 CURVE",
"595 -3 OFFCURVE",
"626 -3 OFFCURVE",
"656 -1 CURVE SMOOTH",
"729 3 LINE SMOOTH",
"753 3 OFFCURVE",
"771 3 OFFCURVE",
"780 3 CURVE SMOOTH",
"806 3 OFFCURVE",
"818 16 OFFCURVE",
"818 43 CURVE SMOOTH",
"818 143 OFFCURVE",
"821 241 OFFCURVE",
"824 339 CURVE SMOOTH",
"826 399 OFFCURVE",
"828 458 OFFCURVE",
"829 518 CURVE",
"853 536 LINE",
"874 560 LINE",
"898 598 LINE SMOOTH",
"913 623 OFFCURVE",
"919 654 OFFCURVE",
"926 700 CURVE",
"928 745 LINE",
"924 786 LINE",
"919 805 LINE",
"758 809 LINE",
"763 791 LINE",
"765 758 LINE",
"764 733 LINE",
"755 708 LINE SMOOTH",
"748 689 OFFCURVE",
"725 671 OFFCURVE",
"706 671 CURVE SMOOTH",
"691 671 LINE",
"674 673 LINE",
"673 673 LINE",
"669 673 LINE",
"660 671 LINE",
"655 670 OFFCURVE",
"648 670 OFFCURVE",
"640 670 CURVE",
"626 669 OFFCURVE",
"611 668 OFFCURVE",
"596 668 CURVE",
"565 666 OFFCURVE",
"535 665 OFFCURVE",
"521 665 CURVE SMOOTH",
"503 665 OFFCURVE",
"494 664 OFFCURVE",
"488 659 CURVE SMOOTH",
"483 654 OFFCURVE",
"481 646 OFFCURVE",
"481 634 CURVE SMOOTH",
"481 625 LINE SMOOTH",
"481 620 OFFCURVE",
"481 614 OFFCURVE",
"483 608 CURVE",
"483 594 OFFCURVE",
"484 578 OFFCURVE",
"486 563 CURVE",
"486 161 LINE",
"478 156 OFFCURVE",
"468 151 OFFCURVE",
"458 146 CURVE",
"441 139 OFFCURVE",
"420 133 OFFCURVE",
"399 133 CURVE SMOOTH",
"390 133 OFFCURVE",
"385 138 OFFCURVE",
"383 149 CURVE SMOOTH",
"381 160 OFFCURVE",
"380 178 OFFCURVE",
"380 203 CURVE SMOOTH",
"380 286 OFFCURVE",
"383 356 OFFCURVE",
"384 418 CURVE SMOOTH",
"386 481 OFFCURVE",
"388 536 OFFCURVE",
"388 589 CURVE SMOOTH",
"388 614 OFFCURVE",
"386 630 OFFCURVE",
"380 641 CURVE",
"374 650 OFFCURVE",
"363 656 OFFCURVE",
"344 661 CURVE",
"323 666 OFFCURVE",
"303 668 OFFCURVE",
"281 670 CURVE SMOOTH",
"239 674 OFFCURVE",
"198 675 OFFCURVE",
"158 674 CURVE SMOOTH",
"98 674 LINE SMOOTH",
"81 674 OFFCURVE",
"64 671 OFFCURVE",
"64 658 CURVE SMOOTH",
"64 650 OFFCURVE",
"65 643 OFFCURVE",
"66 636 CURVE",
"68 630 OFFCURVE",
"68 623 OFFCURVE",
"68 615 CURVE SMOOTH",
"68 558 OFFCURVE",
"65 503 OFFCURVE",
"63 448 CURVE SMOOTH",
"58 393 OFFCURVE",
"55 339 OFFCURVE",
"55 286 CURVE SMOOTH",
"55 231 OFFCURVE",
"56 179 OFFCURVE",
"65 133 CURVE SMOOTH",
"74 88 OFFCURVE",
"90 48 OFFCURVE",
"121 21 CURVE SMOOTH",
"153 -8 OFFCURVE",
"198 -23 OFFCURVE",
"265 -23 CURVE SMOOTH"
);
}
);
width = 885;
}
);
leftKerningGroup = Uhorn;
rightKerningGroup = Uhorn;
unicode = 01AF;
},
{
glyphname = V;
lastChange = "2016-10-15 12:39:21 +0000";
layers = (
{
anchors = (
{
name = bottom;
position = "{459, 0}";
},
{
name = top;
position = "{459, 676}";
}
);
background = {
paths = (
{
closed = 1;
nodes = (
"629 5 LINE",
"536 1 LINE",
"351 0 LINE",
"265 0 LINE",
"251 0 LINE",
"224 6 LINE",
"211 6 LINE",
"208 6 LINE",
"205 5 LINE",
"203 5 LINE",
"199 6 LINE",
"193 14 LINE",
"193 16 LINE",
"123 333 LINE",
"106 393 LINE",
"78 520 LINE",
"64 580 LINE",
"63 588 LINE",
"56 618 LINE",
"54 648 LINE",
"60 673 LINE",
"73 673 LINE",
"76 673 LINE",
"95 673 LINE",
"120 671 LINE",
"148 671 LINE",
"171 670 LINE",
"186 670 LINE",
"188 670 LINE",
"280 670 LINE",
"280 669 LINE",
"285 668 LINE",
"288 668 LINE",
"290 666 LINE",
"294 666 LINE",
"298 670 LINE",
"304 670 LINE",
"308 670 LINE",
"308 670 LINE",
"328 668 LINE",
"356 668 LINE",
"389 666 LINE",
"403 666 LINE",
"408 658 LINE",
"418 619 LINE",
"428 568 LINE",
"439 505 LINE",
"448 473 LINE",
"448 471 LINE",
"453 441 LINE",
"461 398 LINE",
"471 348 LINE",
"480 304 LINE",
"486 275 LINE",
"486 273 LINE",
"486 271 LINE",
"488 269 LINE",
"488 263 LINE",
"489 260 LINE",
"490 263 LINE",
"490 269 LINE",
"491 271 LINE",
"491 273 LINE",
"493 275 LINE",
"498 304 LINE",
"506 348 LINE",
"516 398 LINE",
"525 441 LINE",
"531 471 LINE",
"531 473 LINE",
"538 505 LINE",
"550 568 LINE",
"561 619 LINE",
"570 658 LINE",
"576 666 LINE",
"585 666 LINE",
"611 668 LINE",
"634 668 LINE",
"650 670 LINE",
"651 670 LINE",
"654 670 LINE",
"655 670 LINE",
"658 666 LINE",
"658 666 LINE",
"666 666 LINE",
"668 669 LINE",
"668 670 LINE",
"731 670 LINE",
"748 670 LINE",
"771 671 LINE",
"798 671 LINE",
"823 673 LINE",
"843 673 LINE",
"846 673 LINE",
"858 673 LINE",
"864 648 LINE",
"863 618 LINE",
"855 588 LINE",
"854 580 LINE",
"841 520 LINE",
"813 393 LINE",
"796 333 LINE",
"726 16 LINE",
"726 14 LINE",
"719 6 LINE",
"716 5 LINE",
"713 5 LINE",
"710 6 LINE",
"708 6 LINE",
"701 6 LINE",
"689 0 LINE",
"683 0 LINE",
"669 0 LINE",
"643 5 LINE"
);
}
);
};
layerId = UUID0;
paths = (
{
closed = 1;
nodes = (
"380 0 OFFCURVE",
"505 0 OFFCURVE",
"629 5 CURVE",
"638 5 OFFCURVE",
"648 4 OFFCURVE",
"656 3 CURVE SMOOTH",
"665 1 OFFCURVE",
"674 0 OFFCURVE",
"683 0 CURVE SMOOTH",
"688 0 OFFCURVE",
"691 1 OFFCURVE",
"695 3 CURVE SMOOTH",
"699 5 OFFCURVE",
"703 6 OFFCURVE",
"708 6 CURVE SMOOTH",
"709 6 OFFCURVE",
"710 6 OFFCURVE",
"713 5 CURVE",
"713 5 OFFCURVE",
"714 5 OFFCURVE",
"716 5 CURVE",
"720 8 OFFCURVE",
"726 13 OFFCURVE",
"726 16 CURVE",
"796 333 LINE",
"818 413 OFFCURVE",
"838 500 OFFCURVE",
"854 580 CURVE SMOOTH",
"855 584 OFFCURVE",
"856 593 OFFCURVE",
"859 603 CURVE SMOOTH",
"861 613 OFFCURVE",
"863 623 OFFCURVE",
"863 633 CURVE SMOOTH",
"865 654 OFFCURVE",
"863 673 OFFCURVE",
"846 673 CURVE SMOOTH",
"843 673 OFFCURVE",
"839 673 OFFCURVE",
"833 673 CURVE SMOOTH",
"826 673 OFFCURVE",
"818 673 OFFCURVE",
"810 673 CURVE",
"803 671 OFFCURVE",
"793 671 OFFCURVE",
"784 671 CURVE",
"775 671 OFFCURVE",
"768 671 OFFCURVE",
"759 671 CURVE",
"751 670 OFFCURVE",
"745 670 OFFCURVE",
"739 670 CURVE SMOOTH",
"734 670 OFFCURVE",
"731 670 OFFCURVE",
"731 670 CURVE",
"668 670 LINE",
"668 669 OFFCURVE",
"668 668 OFFCURVE",
"668 668 CURVE",
"666 668 OFFCURVE",
"663 666 OFFCURVE",
"658 666 CURVE SMOOTH",
"658 666 OFFCURVE",
"658 668 OFFCURVE",
"656 668 CURVE SMOOTH",
"656 669 OFFCURVE",
"655 670 OFFCURVE",
"654 670 CURVE SMOOTH",
"651 670 LINE SMOOTH",
"650 670 OFFCURVE",
"648 670 OFFCURVE",
"643 669 CURVE SMOOTH",
"638 669 OFFCURVE",
"630 668 OFFCURVE",
"623 668 CURVE SMOOTH",
"608 668 OFFCURVE",
"589 666 OFFCURVE",
"576 666 CURVE",
"573 660 OFFCURVE",
"569 651 OFFCURVE",
"565 638 CURVE SMOOTH",
"559 613 OFFCURVE",
"553 578 OFFCURVE",
"544 536 CURVE SMOOTH",
"540 515 OFFCURVE",
"536 494 OFFCURVE",
"531 473 CURVE",
"531 473 OFFCURVE",
"530 466 OFFCURVE",
"528 458 CURVE SMOOTH",
"526 446 OFFCURVE",
"523 434 OFFCURVE",
"521 420 CURVE SMOOTH",
"518 405 OFFCURVE",
"515 390 OFFCURVE",
"511 373 CURVE SMOOTH",
"505 339 OFFCURVE",
"499 309 OFFCURVE",
"495 290 CURVE SMOOTH",
"493 280 OFFCURVE",
"493 275 OFFCURVE",
"493 275 CURVE",
"491 273 OFFCURVE",
"490 270 OFFCURVE",
"490 266 CURVE",
"490 264 OFFCURVE",
"489 263 OFFCURVE",
"489 260 CURVE",
"488 263 OFFCURVE",
"488 264 OFFCURVE",
"488 266 CURVE SMOOTH",
"488 268 OFFCURVE",
"488 270 OFFCURVE",
"486 271 CURVE SMOOTH",
"486 273 OFFCURVE",
"486 273 OFFCURVE",
"486 275 CURVE SMOOTH",
"486 275 OFFCURVE",
"485 280 OFFCURVE",
"483 290 CURVE SMOOTH",
"479 309 OFFCURVE",
"473 339 OFFCURVE",
"466 373 CURVE SMOOTH",
"463 390 OFFCURVE",
"460 405 OFFCURVE",
"458 420 CURVE SMOOTH",
"454 434 OFFCURVE",
"453 446 OFFCURVE",
"450 458 CURVE SMOOTH",
"448 466 OFFCURVE",
"448 473 OFFCURVE",
"448 473 CURVE",
"443 494 OFFCURVE",
"438 515 OFFCURVE",
"434 536 CURVE SMOOTH",
"430 558 OFFCURVE",
"426 576 OFFCURVE",
"423 593 CURVE SMOOTH",
"415 628 OFFCURVE",
"409 654 OFFCURVE",
"403 666 CURVE",
"394 666 OFFCURVE",
"384 666 OFFCURVE",
"373 668 CURVE SMOOTH",
"351 668 OFFCURVE",
"331 668 OFFCURVE",
"318 669 CURVE SMOOTH",
"311 670 OFFCURVE",
"308 670 OFFCURVE",
"308 670 CURVE SMOOTH",
"304 670 LINE SMOOTH",
"300 670 OFFCURVE",
"298 669 OFFCURVE",
"296 668 CURVE SMOOTH",
"294 668 OFFCURVE",
"293 666 OFFCURVE",
"290 666 CURVE",
"286 668 OFFCURVE",
"280 669 OFFCURVE",
"280 670 CURVE",
"188 670 LINE SMOOTH",
"188 670 OFFCURVE",
"184 670 OFFCURVE",
"179 670 CURVE",
"168 670 OFFCURVE",
"153 671 OFFCURVE",
"134 671 CURVE SMOOTH",
"125 671 OFFCURVE",
"116 671 OFFCURVE",
"108 673 CURVE",
"100 673 OFFCURVE",
"93 673 OFFCURVE",
"85 673 CURVE SMOOTH",
"79 673 OFFCURVE",
"74 673 OFFCURVE",
"73 673 CURVE SMOOTH",
"64 673 OFFCURVE",
"59 668 OFFCURVE",
"58 660 CURVE SMOOTH",
"53 645 OFFCURVE",
"55 623 OFFCURVE",
"60 603 CURVE SMOOTH",
"63 593 OFFCURVE",
"63 584 OFFCURVE",
"64 580 CURVE",
"81 500 OFFCURVE",
"101 413 OFFCURVE",
"123 333 CURVE",
"193 16 LINE",
"193 13 OFFCURVE",
"198 8 OFFCURVE",
"203 5 CURVE",
"204 5 OFFCURVE",
"205 5 OFFCURVE",
"208 5 CURVE",
"208 6 OFFCURVE",
"209 6 OFFCURVE",
"211 6 CURVE SMOOTH",
"219 6 OFFCURVE",
"228 5 OFFCURVE",
"238 3 CURVE SMOOTH",
"248 1 OFFCURVE",
"256 0 OFFCURVE",
"265 0 CURVE SMOOTH"
);
}
);
width = 918;
}
);
leftKerningGroup = V;
rightKerningGroup = V;
unicode = 0056;
},
